<svg width="384" height="710" viewBox="0 0 384 710" fill="none" xmlns="http://www.w3.org/2000/svg">
<path d="M316.866 648.533C318.664 654.653 338.59 656.208 347.03 639.673L351.401 638.389M316.866 648.533L314.68 649.175M316.866 648.533L314.765 626.831C314.663 625.87 314.402 624.612 313.932 623.277M351.401 638.389C352.373 651.4 320.458 668.847 314.68 649.175M351.401 638.389L373.259 631.969L354.427 590.488M314.68 649.175L291.511 655.98M291.511 655.98L290.224 659.682M291.511 655.98L277.301 623.589M290.224 659.682L315.579 652.235M290.224 659.682L290.609 660.993C290.187 662.614 290.137 664.055 290.415 665.325M290.224 659.682L268.078 610.153M351.915 640.138L377.27 632.691L355.509 584.472L351.935 583.622M354.427 590.488L338.71 606.502C328.999 613.533 344.701 629.594 353.767 636.745M354.427 590.488L351.935 583.622M351.935 583.622L349.239 574.442C348.29 573.297 344.7 571.407 337.929 573.016M377.707 632.562C371.262 665.157 294.551 684.203 290.415 665.325M268.078 610.153L269.736 610.14M268.078 610.153L267.735 611.678M290.415 665.325L267.048 614.729L267.735 611.678M259.609 565.153L262.916 572.73M311.8 649.071C311.617 642.935 310.549 633.163 307.863 626.484M273.24 614.334L271.395 610.128L269.736 610.14M273.24 614.334L300.189 619.241C303.262 619.02 305.587 621.491 307.317 625.22M273.24 614.334L277.301 623.589M269.736 610.14L255.003 576.953M255.003 576.953L238.828 581.704M255.003 576.953L262.554 599.429M238.828 581.704C238.525 588.758 242.847 602.178 262.554 599.429M238.828 581.704L209.694 518.082M262.554 599.429L267.735 611.678M346.773 638.799L333.125 621.439C332.04 620.353 330.726 618.644 329.88 616.693M337.929 573.016L342.036 582.257C345.983 587.935 343.198 592.679 341.312 594.341L336.385 601.011M337.929 573.016L325.234 544.453C321.71 550.237 311.852 562.915 300.619 567.354C289.387 571.793 281.247 574.152 278.581 574.777C275.37 575.403 267.742 575.871 262.916 572.73M337.929 573.016C339.668 572.505 343.464 570.63 344.741 567.216C344.111 566.073 343.343 564.646 342.546 563.112M352.669 547.317L337.548 550.809C336.98 551.85 339.923 558.061 342.546 563.112M352.669 547.317C351.091 551.738 346.858 561.086 342.546 563.112M352.669 547.317L348.123 533.457M348.123 533.457L333.387 538.26L334.029 540.446L327.909 542.243L327.524 540.932L326.212 541.317L325.827 540.005L327.139 539.62L326.754 538.309L332.436 536.64L333.259 537.823M348.123 533.457L324.099 484.004L308.542 487.623L159.971 168.937M329.88 616.693C328.214 620.032 322.692 626.023 313.932 623.277M329.88 616.693C328.947 614.542 328.584 612.096 329.727 609.867M313.932 623.277C313.303 621.487 312.298 619.558 310.801 618.024M329.727 609.867C330.116 609.107 330.682 608.372 331.459 607.682L336.385 601.011M329.727 609.867C325.853 612.737 316.644 618.385 310.801 618.024M310.801 618.024C310.088 617.293 309.263 616.651 308.313 616.157M308.313 616.157C307.521 615.744 306.641 615.433 305.667 615.258L287.053 611.702C284.088 611.307 277.644 608.768 275.59 601.773L262.916 572.73M308.313 616.157C315.352 614.296 330.82 608.663 336.385 601.011M307.317 625.22C304.999 623.843 295.75 621.59 277.301 623.589M307.317 625.22C307.506 625.627 307.688 626.049 307.863 626.484M277.301 623.589C279.273 625.859 288.147 629.616 307.863 626.484M262.902 561.812L256.126 563.802L254.596 564.251L253.44 560.317L261.746 557.877M262.902 561.812L261.746 557.877M262.902 561.812C263.646 566.5 269.217 574.583 285.551 569.405C290.257 568.181 301.037 564.572 306.51 559.925C309.888 556.875 316.912 549.747 317.983 545.633M262.902 561.812C264.849 564.722 272.995 568.82 290.002 561.925C296.748 560.102 311.532 553.417 316.699 541.262M261.746 557.877L277.792 552.69M317.983 545.633L316.699 541.262M317.983 545.633L326.289 543.194L325.005 538.822L322.382 539.593M316.699 541.262L300.524 546.013M316.699 541.262L322.382 539.593M300.524 546.013C296.846 550.734 287.149 558.679 277.792 552.69M300.524 546.013L120.424 159.183M277.792 552.69L99.0035 165.475C102.277 167.996 111.143 170.267 120.424 159.183M120.424 159.183L125.233 157.771M322.382 539.593L142.282 152.763M142.282 152.763L143.208 151.067L144.956 150.553L145.342 151.864L151.025 150.195L150.563 147.007M142.282 152.763L125.233 157.771M169.819 152.748L154.519 157.242L159.971 168.937M169.819 152.748C168.932 156.016 165.721 163.829 159.971 168.937M169.819 152.748L165.863 142.513M165.863 142.513L150.563 147.007M165.863 142.513L159.517 130.606M150.563 147.007L148.738 145.643L144.366 146.927L144.88 148.676L142.129 149.009L130.326 152.476L129.427 149.416L125.93 150.443L126.828 153.503L125.233 157.771M139.558 148.34L138.017 143.094M237.926 586.718L209.691 526.155L209.694 518.082M209.694 518.082L222.371 514.358M72.539 183.695L224.994 513.588L222.371 514.358M72.539 183.695L67.2932 185.236M72.539 183.695L75.8774 195.061L80.2934 204.686M222.371 514.358L80.2934 204.686M60.7359 187.162C63.5117 190.146 65.9726 187.207 66.856 185.364L63.7744 174.873L57.6543 176.67L60.7359 187.162ZM60.7359 187.162C59.6384 188.276 57.0889 189.943 55.6704 187.7M55.6704 187.7L52.7172 177.645L57.5259 176.233M55.6704 187.7C55.97 188.72 56.1938 190.775 54.6922 190.836M54.6922 190.836L51.4822 179.908L52.28 177.774M54.6922 190.836C56.933 198.093 65.1905 211.022 80.2934 204.686" stroke="white"/>
<path d="M60.5184 194.348C60.4157 193.997 60.5546 193.502 61.0937 192.955C61.6194 192.422 62.4516 191.926 63.4719 191.627C64.4923 191.327 65.4603 191.294 66.1909 191.458C66.9403 191.627 67.3248 191.968 67.4277 192.318C67.5306 192.669 67.3917 193.163 66.8525 193.711C66.3268 194.244 65.4947 194.739 64.4742 195.039C63.4538 195.339 62.4859 195.372 61.7553 195.208C61.0058 195.039 60.6213 194.698 60.5184 194.348Z" stroke="white"/>
<path d="M66.8161 199.622C66.7467 199.385 66.8287 199.027 67.2303 198.609C67.6205 198.204 68.247 197.823 69.0239 197.595C69.8009 197.367 70.5336 197.348 71.0812 197.478C71.6447 197.612 71.9076 197.869 71.977 198.106C72.0463 198.342 71.9643 198.701 71.5629 199.118C71.1726 199.524 70.546 199.904 69.7692 200.132C68.9924 200.361 68.2595 200.379 67.7119 200.249C67.1485 200.115 66.8856 199.858 66.8161 199.622Z" stroke="white"/>
<path d="M75.3683 203.758C75.3384 203.656 75.381 203.474 75.6292 203.243C75.8651 203.023 76.2369 202.814 76.6905 202.681C77.1441 202.547 77.5701 202.522 77.8873 202.579C78.2209 202.639 78.3555 202.77 78.3854 202.872C78.4152 202.973 78.3726 203.156 78.1245 203.387C77.8885 203.607 77.5167 203.816 77.0631 203.949C76.6095 204.082 76.1835 204.107 75.8664 204.05C75.5328 203.99 75.3982 203.86 75.3683 203.758Z" stroke="white" stroke-width="0.5"/>
<path d="M52.2798 177.775L41.2069 153.01M41.2069 153.01L36.0679 143.597M41.2069 153.01L56.0701 148.644M36.0679 143.597L34.6006 148.302L54.5116 191.84M36.0679 143.597L49.6197 139.617M66.9989 145.434L65.2503 145.948M66.9989 145.434L66.3569 143.248L63.734 144.019L62.9636 141.396M66.9989 145.434L93.6653 137.602M66.9989 145.434C69.4838 156.481 85.225 155.752 92.785 154.006C100.875 153.146 107.522 150.036 112.784 146.108M65.2503 145.948L74.9353 169.221M65.2503 145.948L56.0701 148.644M74.9353 169.221L76.8368 172.461M74.9353 169.221L89.7985 164.855L92.5743 167.839M76.8368 172.461L255.934 559.111M76.8368 172.461L92.5743 167.839M99.1316 165.913L92.5743 167.839M75.3205 170.532L72.6976 171.303M72.6976 171.303L73.3396 173.489L68.0937 175.029L67.5801 173.281M72.6976 171.303L72.3124 169.991L67.0665 171.532L67.5801 173.281M67.5801 173.281L63.6457 174.436M56.0701 148.644L56.7121 150.83L62.3951 149.161L61.1111 144.789L55.4281 146.458L56.0701 148.644ZM62.9636 141.396L92.2529 132.793M62.9636 141.396L43.3095 98.7321M92.2529 132.793L93.6653 137.602M92.2529 132.793C95.7521 133.518 97.0166 132.823 98.8102 130.867M93.6653 137.602C95.5678 138.151 99.5427 138.535 100.223 135.676M100.223 135.676L98.8102 130.867M100.223 135.676L103.283 134.777M98.8102 130.867L127.662 122.393M127.326 127.715L126.427 124.655L128.176 124.141L127.662 122.393M127.326 127.715L122.955 128.999M127.326 127.715C125.481 132.441 120.7 140.199 112.784 146.108M127.662 122.393L122.756 110.538M122.955 128.999C121.702 131.741 118.462 137.632 115.52 139.255L103.283 134.777M122.955 128.999L115.086 131.31M103.283 134.777L115.086 131.31M89.0614 141.328L77.3592 149.989C75.7737 149.98 72.7211 149.072 73.1955 145.514L88.933 140.891M105.235 140.614L99.6815 138.684L98.771 142.513M105.235 140.614L110.788 142.545C109.759 144.43 105.587 148.441 97.1321 149.405L98.771 142.513M105.235 140.614L98.771 142.513M115.086 131.31L112.564 137.275M139.814 149.215L136.527 141.158M130.823 126.688L131.337 128.436L135.316 138.19M130.823 126.688L127.635 127.149M130.823 126.688C128.253 131.95 121.048 143.202 112.784 146.108M130.823 126.688L133.009 126.046M133.009 126.046L134.088 128.103L140.208 126.306L139.502 123.901M133.009 126.046L132.239 123.423L138.796 121.497L139.502 123.901M139.502 123.901L155.304 119.497M155.304 119.497L149.78 108.773L134.916 113.139L132.963 111.338L131.936 107.841M155.304 119.497L159.163 129.761M159.645 131.044L159.163 129.761M131.936 107.841L127.541 98.6849M131.936 107.841L128.439 108.868M122.756 110.538L112.787 87.8226M122.756 110.538L128.439 108.868M109.833 81.0923L111.31 84.4575M137.884 82.8254L122.147 87.4478L124.652 92.6657M137.884 82.8254C136.77 85.8436 133.141 93.2411 127.541 98.6849M137.884 82.8254L136.986 79.7653M127.541 98.6849L126.142 95.7716M136.986 79.7653L112.787 87.8226M136.986 79.7653L136.215 77.1423M112.787 87.8226L111.31 84.4575M111.31 84.4575L136.215 77.1423M136.215 77.1423L132.926 72.4101M132.926 72.4101L119.374 76.3905M132.926 72.4101L128.404 61.8664L78.4405 76.0669M119.374 76.3905L119.888 78.1391L111.582 80.5787L110.555 77.0815L118.86 74.6419L119.374 76.3905ZM78.4405 76.0669L61.6386 38.2637C60.1687 39.6312 58.019 41.346 55.795 42.6195M78.4405 76.0669C77.6347 79.2489 76.2096 81.166 74.5552 82.2397M74.5552 82.2397C71.5151 84.2128 67.7005 83.3383 65.5308 82.233L64.7595 80.5601M74.5552 82.2397L55.795 42.6195M55.795 42.6195C52.3761 44.5773 48.7818 45.4926 47.2126 42.5009L64.7595 80.5601M64.7595 80.5601L14.3074 95.3788M14.3074 95.3788L13.3537 101.832L22.1399 122.045M14.3074 95.3788L18.7387 106.424M23.17 117.469L22.1399 122.045M23.17 117.469L39.7818 112.59M23.17 117.469L18.7387 106.424M22.1399 122.045C25.5296 133.586 40.5525 135.79 47.6402 135.45M39.7818 112.59L51.3683 139.103L49.6197 139.617M39.7818 112.59L40.91 121.281L47.6402 135.45M49.6197 139.617L47.6402 135.45M43.3095 98.7321L37.3682 100.477M43.3095 98.7321L51.7908 96.0813M43.3095 98.7321L41.7687 93.4862M43.3095 98.7321C42.6472 105.1 48.9756 115.113 79.5872 104.222C81.8366 103.561 84.9822 102.288 88.4225 100.351M37.3682 100.477L34.7742 95.5406L41.7687 93.4862M37.3682 100.477L18.7387 106.424M66.6864 86.1674L68.5359 90.8477M66.6864 86.1674L73.6142 83.8863M66.6864 86.1674L58.8176 88.4786M68.5359 90.8477L75.0932 88.9217M68.5359 90.8477L60.2721 93.4306M110.09 78.6424L108.317 79.1633M113.486 75.7455L112.15 71.1973L101.759 74.6191M103.071 80.7041L101.759 74.6191M103.071 80.7041L93.8908 83.4005M103.071 80.7041L108.317 79.1633M101.759 74.6191L92.2328 77.7557M93.8908 83.4005L92.2328 77.7557M93.8908 83.4005L84.7106 86.0969M92.2328 77.7557L83.14 80.7497M84.7106 86.0969L83.14 80.7497M84.7106 86.0969L75.0932 88.9217M83.14 80.7497L73.6142 83.8863M75.0932 88.9217L73.6142 83.8863M60.2721 93.4306L58.8176 88.4786M60.2721 93.4306L51.7908 96.0813M58.8176 88.4786L50.2931 90.9824M51.7908 96.0813L50.2931 90.9824M50.2931 90.9824L41.7687 93.4862M108.317 79.1633C104.033 89.4052 95.5888 96.3168 88.4225 100.351M88.4225 100.351L101.832 129.03M107.944 113.463L106.789 109.529L109.849 108.63L111.004 112.564L108.381 113.335M126.142 95.7716L129.086 94.9069L129.884 92.773L128.188 91.8468L124.652 92.6657M126.142 95.7716L124.652 92.6657M128.439 108.868L129.081 111.054L123.835 112.595M159.163 129.761L156.637 130.503L157.15 132.251L135.316 138.19M135.316 138.19L136.527 141.158M161.418 133.847L136.527 141.158M157.319 163.543L163.002 161.874L163.772 164.497M94.2553 141.227L91.8862 150.946C88.869 151.99 82.1301 153.621 79.3127 151.79L94.2553 141.227ZM113.854 125.499L112.826 122.002L115.887 121.103L116.914 124.6L113.854 125.499Z" stroke="white"/>
<path d="M29.0731 122.856C28.8194 121.992 29.4458 120.893 30.7148 120.52C31.9839 120.148 33.1058 120.733 33.3597 121.597C33.6135 122.461 32.9863 123.56 31.7171 123.933C30.448 124.305 29.3268 123.72 29.0731 122.856Z" stroke="white"/>
<path d="M42.2856 132.273C42.2337 132.096 42.2707 131.871 42.4464 131.636C42.6224 131.4 42.9213 131.184 43.3102 131.07C43.6993 130.955 44.0684 130.976 44.3438 131.079C44.6188 131.181 44.7708 131.351 44.823 131.528C44.875 131.705 44.8387 131.93 44.6631 132.165C44.4871 132.401 44.1878 132.619 43.7987 132.733C43.4097 132.847 43.0411 132.826 42.7657 132.723C42.4905 132.62 42.3377 132.451 42.2856 132.273Z" stroke="white"/>
<path d="M244.294 587.225C244.214 586.952 244.289 586.598 244.602 586.224C244.912 585.854 245.421 585.516 246.064 585.327C246.707 585.138 247.318 585.147 247.78 585.291C248.244 585.436 248.5 585.693 248.58 585.966C248.66 586.238 248.584 586.592 248.271 586.966C247.961 587.336 247.452 587.675 246.809 587.864C246.166 588.053 245.555 588.043 245.094 587.899C244.629 587.754 244.374 587.497 244.294 587.225Z" stroke="white"/>
<path d="M341.085 557.844C341.005 557.572 341.081 557.217 341.394 556.843C341.704 556.473 342.213 556.135 342.855 555.946C343.498 555.757 344.11 555.766 344.571 555.91C345.036 556.055 345.291 556.312 345.372 556.585C345.451 556.857 345.375 557.211 345.063 557.585C344.753 557.955 344.243 558.295 343.6 558.483C342.958 558.672 342.346 558.662 341.885 558.518C341.42 558.373 341.165 558.117 341.085 557.844Z" stroke="white"/>
<path d="M369.195 632.69L351.571 593.703L352.213 595.889L335.828 614.473M345.953 629.544L348.679 625.894L351.764 628.312L349.166 632.399M300.903 563.473L299.234 557.79M329.7 496.606L315.711 500.715M315.711 500.715L316.224 502.463L310.104 504.261L309.591 502.512M315.711 500.715L315.197 498.966L309.077 500.764L309.591 502.512M309.591 502.512L305.656 503.668M246.65 564.687L233.099 568.667L232.017 574.684M246.65 564.687L247.036 565.999L252.719 564.329L252.333 563.018M246.65 564.687L246.008 562.501L251.691 560.832L252.333 563.018M252.333 563.018L253.645 562.633M229.72 526.447L215.731 530.556L214.521 536.135M229.72 526.447L230.234 528.195L235.48 526.655L234.966 524.906M229.72 526.447L228.641 524.389L234.324 522.72L234.966 524.906M234.966 524.906L238.9 523.75M237.798 586.282L239.314 588.211M77.5144 77.7639L60.0185 39.2148M63.1403 80.5612L45.9012 42.8865L47.2127 42.5013M68.6927 154.434C71.169 156.398 80.4416 158.866 97.7222 153.031" stroke="white"/>
<path d="M257.506 596.64C257.3 595.94 257.702 595.205 258.402 594.999C259.103 594.793 259.838 595.194 260.043 595.895C260.249 596.596 259.848 597.331 259.147 597.537C258.447 597.742 257.712 597.341 257.506 596.64Z" stroke="white"/>
</svg>
