<svg width="963" height="893" viewBox="0 0 963 893" fill="none" xmlns="http://www.w3.org/2000/svg">
<mask id="path-1-outside-1_50_19058" maskUnits="userSpaceOnUse" x="363.513" y="179.856" width="450" height="357" fill="black">
<rect fill="white" x="363.513" y="179.856" width="450" height="357"/>
<path fill-rule="evenodd" clip-rule="evenodd" d="M792.64 187.692L793.938 188.661L800.774 186.76L798.8 193.743L797.374 200.816L796.661 212.679L796.716 218.071L797.356 223.317L799.824 227.21L803.315 230.098L807.921 238.871L809.84 249.4L811.448 254.572L812.508 259.946L812.582 264.826L811.796 268.098L812.088 270.822L810.717 279.193L807.354 288.789L806.586 293.761L804.338 294.602L802.821 296.831L800.299 298.568L797.118 299.518L795.309 304.527L792.074 309.096L790.483 315.11L789.515 321.324L787.577 325.583L783.794 326.46L779.608 326.095L774.015 327.758L772.754 328.855L767.746 336.166L766.064 340.553L765.552 345.36L766.155 351.355L767.197 357.277L767.38 368.135L764.492 384.512L762.737 389.685L759.63 393.066L755.371 396.466L752.52 401.675L747.603 412.112L746.744 417.577L744.295 424.687L744.532 428.891L745.355 432.876L749.632 443.276L753.452 449.253L744.203 451.593L736.563 458.155L734.315 463.455L733.876 469.469L732.761 471.553L729.435 474.441L723.165 476.725L719.071 479.156L713.076 485.243L710.206 484.292L708.671 482.191L710.645 479.833L710.407 476.872L712.016 469.396L711.376 466.307L714.666 464.278L716.494 460.732L722.507 455.651L723.111 453.585L719.327 449.363L713.46 449.381L711.376 451.392L710.097 456.82L705.18 460.476L705.326 464.735L706.423 466.983L707.995 468.135L704.851 472.759L703.315 472.978L701.067 467.988L697.905 465.119L693.665 464.79L689.186 465.356L685.531 468.244L683.136 473.417L682.661 480.034L680.669 485.426L675.971 491.695L672.279 494.693L669.958 494.93L667.436 490.909L670.049 482.757L670.506 478.114L674.637 476.086L671.841 472.485L668.112 470.821L662.464 472.101L659.338 476.524L652.411 482.501L648.116 487.564L644.899 493.742L637.076 490.873L632.726 489.995L628.284 489.721L620.516 488.167L611.724 488.606L601.58 490.123L602.402 488.369L610.956 485.353L610.883 482.063L603.992 481.989L601.561 481.423L600.867 479.047L599.368 477.913L598.143 478.718L597.942 483.159L596.663 483.616L595.219 482.318L596.188 478.955L595.749 473.856L596.041 470.73L598.089 468.244L596.498 466.947L592.167 468.226L589.882 469.834L584.362 478.498L581.967 483.525L584.581 488.04L592.441 494.821L593.72 496.411L593.446 498.897L592.039 501.437L589.516 502.351L579.774 503.302L571.037 506.208L568.131 509.809L558.608 523.846L551.205 533.333L542.213 535.874L533.311 531.688L531.556 527.886L530.35 523.298L527.462 518.93L524.976 514.269L523.898 508.931L525.397 500.743L524.775 495.625L526.201 494.455L531.721 492.042L537.076 486.961L538.411 484.896L539.05 481.624L537.003 479.632L531.045 478.992L524.94 479.303L520.919 477.365L514.485 471.644L508.618 470.675L504.286 470.895L499.917 471.827L495.476 471.735L493.904 472.302L488.073 476.561L483.577 479.12L479.866 480.198L472.317 479.632L468.406 480.125L464.202 481.222L463.142 480.948L458.627 482.629L453.564 483.909L450.694 485.517L446.253 483.616L436.456 485.828L431.959 485.627L427.682 483.068L423.972 479.376L419.658 480.125L416.057 484.292L413.115 493.212L410.812 497.087L409.459 501.949L407.467 500.853L396.738 490.178L395.933 489.739L385.752 489.794L383.066 490.142L379.556 491.458L376.01 491.75L373.177 489.995L370.636 487.436L367.694 487.637L364.513 488.661L365.902 475.153L366.798 473.472L371.349 469.725L376.23 469.743L380.945 471.15L384.564 470.748L387.964 468.537L391.729 465.265L395.751 462.743L405.931 458.922L410.611 455.651L415.18 451.977L419.201 449.381L423.442 447.316L430.296 441.887L439.161 435.947L442.999 431.176L445.065 429.988L452.12 427.996L461.204 426.954L465.262 427.63L468.552 432.73L473.268 431.505L477.856 431.45L482.352 432.821L486.867 433.424L500.411 433.04L505.273 431.816L510.098 430.025L526.292 430.335L537.826 427.74L541.043 429.312L540.75 432.236L538.886 435.234L539.946 437.299L541.975 438.743L552.247 440.315L555.099 441.339L559.741 439.657L564.201 437.446L568.953 434.375L572.499 430.737L570.47 425.455L570.653 419.953L573.797 414.305L577.837 409.718L582.223 407.14L586.336 404.088L595.073 395.077L601.488 387.711L604.76 378.169L605.29 366.544L611.084 358.484L615.672 357.46L624.939 354.463L629.673 353.786L629.691 357.771L621.85 364.26L617.5 366.8L612.693 368.555L611.45 371.004L614.356 375.592L614.813 378.809L613.954 384.512L617.536 387.857L621.978 389.301L625.67 388.862L633.182 381.057L648.719 377.237L656.56 373.892L660.709 373.234L664.767 371.498L674.272 364.168L677.854 360.732L681.217 356.857L684.069 352.269L686.481 347.261L689.314 344.245L703.608 337.72L708.415 333.9L710.005 331.999L712.345 326.259L714.191 320.264L716.366 315.64L719.071 311.344L722.507 307.012L726.254 303.046L728.685 298.879L732.67 288.753L734.553 283.105L738.811 277.402L740.731 272.613L742.156 265.229L742.449 259.434L740.84 254.353L739.232 252.836L734.333 252.781L732.085 250.606L732.798 248.87L737.185 247.974L738.61 246.42L741.553 241.284L743.6 235.691L744.002 233.187L742.741 228.471L741.955 222.841L742.266 219.862L744.222 216.554L746.781 213.958L751.039 213.428L755.134 211.107L756.358 209.462L759.392 202.297L759.228 195.077L762.079 192.098L763.944 193.158L768.294 193.395L770.451 194.327L770.688 196.174L770.761 208.347L772.918 211.436L774.783 211.381L777.945 207.195L780.12 206.83L786.334 209.974L788.838 208.219L790.648 205.349L792.494 200.195L792.348 195.406L790.977 193.56L789.35 193.761L786.133 195.552L776.3 197.362L776.921 192.098L779.827 184.348L781.216 181.935L782.953 180.856L788.674 183.562L792.64 187.692Z"/>
</mask>
<path fill-rule="evenodd" clip-rule="evenodd" d="M792.64 187.692L793.938 188.661L800.774 186.76L798.8 193.743L797.374 200.816L796.661 212.679L796.716 218.071L797.356 223.317L799.824 227.21L803.315 230.098L807.921 238.871L809.84 249.4L811.448 254.572L812.508 259.946L812.582 264.826L811.796 268.098L812.088 270.822L810.717 279.193L807.354 288.789L806.586 293.761L804.338 294.602L802.821 296.831L800.299 298.568L797.118 299.518L795.309 304.527L792.074 309.096L790.483 315.11L789.515 321.324L787.577 325.583L783.794 326.46L779.608 326.095L774.015 327.758L772.754 328.855L767.746 336.166L766.064 340.553L765.552 345.36L766.155 351.355L767.197 357.277L767.38 368.135L764.492 384.512L762.737 389.685L759.63 393.066L755.371 396.466L752.52 401.675L747.603 412.112L746.744 417.577L744.295 424.687L744.532 428.891L745.355 432.876L749.632 443.276L753.452 449.253L744.203 451.593L736.563 458.155L734.315 463.455L733.876 469.469L732.761 471.553L729.435 474.441L723.165 476.725L719.071 479.156L713.076 485.243L710.206 484.292L708.671 482.191L710.645 479.833L710.407 476.872L712.016 469.396L711.376 466.307L714.666 464.278L716.494 460.732L722.507 455.651L723.111 453.585L719.327 449.363L713.46 449.381L711.376 451.392L710.097 456.82L705.18 460.476L705.326 464.735L706.423 466.983L707.995 468.135L704.851 472.759L703.315 472.978L701.067 467.988L697.905 465.119L693.665 464.79L689.186 465.356L685.531 468.244L683.136 473.417L682.661 480.034L680.669 485.426L675.971 491.695L672.279 494.693L669.958 494.93L667.436 490.909L670.049 482.757L670.506 478.114L674.637 476.086L671.841 472.485L668.112 470.821L662.464 472.101L659.338 476.524L652.411 482.501L648.116 487.564L644.899 493.742L637.076 490.873L632.726 489.995L628.284 489.721L620.516 488.167L611.724 488.606L601.58 490.123L602.402 488.369L610.956 485.353L610.883 482.063L603.992 481.989L601.561 481.423L600.867 479.047L599.368 477.913L598.143 478.718L597.942 483.159L596.663 483.616L595.219 482.318L596.188 478.955L595.749 473.856L596.041 470.73L598.089 468.244L596.498 466.947L592.167 468.226L589.882 469.834L584.362 478.498L581.967 483.525L584.581 488.04L592.441 494.821L593.72 496.411L593.446 498.897L592.039 501.437L589.516 502.351L579.774 503.302L571.037 506.208L568.131 509.809L558.608 523.846L551.205 533.333L542.213 535.874L533.311 531.688L531.556 527.886L530.35 523.298L527.462 518.93L524.976 514.269L523.898 508.931L525.397 500.743L524.775 495.625L526.201 494.455L531.721 492.042L537.076 486.961L538.411 484.896L539.05 481.624L537.003 479.632L531.045 478.992L524.94 479.303L520.919 477.365L514.485 471.644L508.618 470.675L504.286 470.895L499.917 471.827L495.476 471.735L493.904 472.302L488.073 476.561L483.577 479.12L479.866 480.198L472.317 479.632L468.406 480.125L464.202 481.222L463.142 480.948L458.627 482.629L453.564 483.909L450.694 485.517L446.253 483.616L436.456 485.828L431.959 485.627L427.682 483.068L423.972 479.376L419.658 480.125L416.057 484.292L413.115 493.212L410.812 497.087L409.459 501.949L407.467 500.853L396.738 490.178L395.933 489.739L385.752 489.794L383.066 490.142L379.556 491.458L376.01 491.75L373.177 489.995L370.636 487.436L367.694 487.637L364.513 488.661L365.902 475.153L366.798 473.472L371.349 469.725L376.23 469.743L380.945 471.15L384.564 470.748L387.964 468.537L391.729 465.265L395.751 462.743L405.931 458.922L410.611 455.651L415.18 451.977L419.201 449.381L423.442 447.316L430.296 441.887L439.161 435.947L442.999 431.176L445.065 429.988L452.12 427.996L461.204 426.954L465.262 427.63L468.552 432.73L473.268 431.505L477.856 431.45L482.352 432.821L486.867 433.424L500.411 433.04L505.273 431.816L510.098 430.025L526.292 430.335L537.826 427.74L541.043 429.312L540.75 432.236L538.886 435.234L539.946 437.299L541.975 438.743L552.247 440.315L555.099 441.339L559.741 439.657L564.201 437.446L568.953 434.375L572.499 430.737L570.47 425.455L570.653 419.953L573.797 414.305L577.837 409.718L582.223 407.14L586.336 404.088L595.073 395.077L601.488 387.711L604.76 378.169L605.29 366.544L611.084 358.484L615.672 357.46L624.939 354.463L629.673 353.786L629.691 357.771L621.85 364.26L617.5 366.8L612.693 368.555L611.45 371.004L614.356 375.592L614.813 378.809L613.954 384.512L617.536 387.857L621.978 389.301L625.67 388.862L633.182 381.057L648.719 377.237L656.56 373.892L660.709 373.234L664.767 371.498L674.272 364.168L677.854 360.732L681.217 356.857L684.069 352.269L686.481 347.261L689.314 344.245L703.608 337.72L708.415 333.9L710.005 331.999L712.345 326.259L714.191 320.264L716.366 315.64L719.071 311.344L722.507 307.012L726.254 303.046L728.685 298.879L732.67 288.753L734.553 283.105L738.811 277.402L740.731 272.613L742.156 265.229L742.449 259.434L740.84 254.353L739.232 252.836L734.333 252.781L732.085 250.606L732.798 248.87L737.185 247.974L738.61 246.42L741.553 241.284L743.6 235.691L744.002 233.187L742.741 228.471L741.955 222.841L742.266 219.862L744.222 216.554L746.781 213.958L751.039 213.428L755.134 211.107L756.358 209.462L759.392 202.297L759.228 195.077L762.079 192.098L763.944 193.158L768.294 193.395L770.451 194.327L770.688 196.174L770.761 208.347L772.918 211.436L774.783 211.381L777.945 207.195L780.12 206.83L786.334 209.974L788.838 208.219L790.648 205.349L792.494 200.195L792.348 195.406L790.977 193.56L789.35 193.761L786.133 195.552L776.3 197.362L776.921 192.098L779.827 184.348L781.216 181.935L782.953 180.856L788.674 183.562L792.64 187.692Z" fill="#7C7C7C"/>
<path fill-rule="evenodd" clip-rule="evenodd" d="M792.64 187.692L793.938 188.661L800.774 186.76L798.8 193.743L797.374 200.816L796.661 212.679L796.716 218.071L797.356 223.317L799.824 227.21L803.315 230.098L807.921 238.871L809.84 249.4L811.448 254.572L812.508 259.946L812.582 264.826L811.796 268.098L812.088 270.822L810.717 279.193L807.354 288.789L806.586 293.761L804.338 294.602L802.821 296.831L800.299 298.568L797.118 299.518L795.309 304.527L792.074 309.096L790.483 315.11L789.515 321.324L787.577 325.583L783.794 326.46L779.608 326.095L774.015 327.758L772.754 328.855L767.746 336.166L766.064 340.553L765.552 345.36L766.155 351.355L767.197 357.277L767.38 368.135L764.492 384.512L762.737 389.685L759.63 393.066L755.371 396.466L752.52 401.675L747.603 412.112L746.744 417.577L744.295 424.687L744.532 428.891L745.355 432.876L749.632 443.276L753.452 449.253L744.203 451.593L736.563 458.155L734.315 463.455L733.876 469.469L732.761 471.553L729.435 474.441L723.165 476.725L719.071 479.156L713.076 485.243L710.206 484.292L708.671 482.191L710.645 479.833L710.407 476.872L712.016 469.396L711.376 466.307L714.666 464.278L716.494 460.732L722.507 455.651L723.111 453.585L719.327 449.363L713.46 449.381L711.376 451.392L710.097 456.82L705.18 460.476L705.326 464.735L706.423 466.983L707.995 468.135L704.851 472.759L703.315 472.978L701.067 467.988L697.905 465.119L693.665 464.79L689.186 465.356L685.531 468.244L683.136 473.417L682.661 480.034L680.669 485.426L675.971 491.695L672.279 494.693L669.958 494.93L667.436 490.909L670.049 482.757L670.506 478.114L674.637 476.086L671.841 472.485L668.112 470.821L662.464 472.101L659.338 476.524L652.411 482.501L648.116 487.564L644.899 493.742L637.076 490.873L632.726 489.995L628.284 489.721L620.516 488.167L611.724 488.606L601.58 490.123L602.402 488.369L610.956 485.353L610.883 482.063L603.992 481.989L601.561 481.423L600.867 479.047L599.368 477.913L598.143 478.718L597.942 483.159L596.663 483.616L595.219 482.318L596.188 478.955L595.749 473.856L596.041 470.73L598.089 468.244L596.498 466.947L592.167 468.226L589.882 469.834L584.362 478.498L581.967 483.525L584.581 488.04L592.441 494.821L593.72 496.411L593.446 498.897L592.039 501.437L589.516 502.351L579.774 503.302L571.037 506.208L568.131 509.809L558.608 523.846L551.205 533.333L542.213 535.874L533.311 531.688L531.556 527.886L530.35 523.298L527.462 518.93L524.976 514.269L523.898 508.931L525.397 500.743L524.775 495.625L526.201 494.455L531.721 492.042L537.076 486.961L538.411 484.896L539.05 481.624L537.003 479.632L531.045 478.992L524.94 479.303L520.919 477.365L514.485 471.644L508.618 470.675L504.286 470.895L499.917 471.827L495.476 471.735L493.904 472.302L488.073 476.561L483.577 479.12L479.866 480.198L472.317 479.632L468.406 480.125L464.202 481.222L463.142 480.948L458.627 482.629L453.564 483.909L450.694 485.517L446.253 483.616L436.456 485.828L431.959 485.627L427.682 483.068L423.972 479.376L419.658 480.125L416.057 484.292L413.115 493.212L410.812 497.087L409.459 501.949L407.467 500.853L396.738 490.178L395.933 489.739L385.752 489.794L383.066 490.142L379.556 491.458L376.01 491.75L373.177 489.995L370.636 487.436L367.694 487.637L364.513 488.661L365.902 475.153L366.798 473.472L371.349 469.725L376.23 469.743L380.945 471.15L384.564 470.748L387.964 468.537L391.729 465.265L395.751 462.743L405.931 458.922L410.611 455.651L415.18 451.977L419.201 449.381L423.442 447.316L430.296 441.887L439.161 435.947L442.999 431.176L445.065 429.988L452.12 427.996L461.204 426.954L465.262 427.63L468.552 432.73L473.268 431.505L477.856 431.45L482.352 432.821L486.867 433.424L500.411 433.04L505.273 431.816L510.098 430.025L526.292 430.335L537.826 427.74L541.043 429.312L540.75 432.236L538.886 435.234L539.946 437.299L541.975 438.743L552.247 440.315L555.099 441.339L559.741 439.657L564.201 437.446L568.953 434.375L572.499 430.737L570.47 425.455L570.653 419.953L573.797 414.305L577.837 409.718L582.223 407.14L586.336 404.088L595.073 395.077L601.488 387.711L604.76 378.169L605.29 366.544L611.084 358.484L615.672 357.46L624.939 354.463L629.673 353.786L629.691 357.771L621.85 364.26L617.5 366.8L612.693 368.555L611.45 371.004L614.356 375.592L614.813 378.809L613.954 384.512L617.536 387.857L621.978 389.301L625.67 388.862L633.182 381.057L648.719 377.237L656.56 373.892L660.709 373.234L664.767 371.498L674.272 364.168L677.854 360.732L681.217 356.857L684.069 352.269L686.481 347.261L689.314 344.245L703.608 337.72L708.415 333.9L710.005 331.999L712.345 326.259L714.191 320.264L716.366 315.64L719.071 311.344L722.507 307.012L726.254 303.046L728.685 298.879L732.67 288.753L734.553 283.105L738.811 277.402L740.731 272.613L742.156 265.229L742.449 259.434L740.84 254.353L739.232 252.836L734.333 252.781L732.085 250.606L732.798 248.87L737.185 247.974L738.61 246.42L741.553 241.284L743.6 235.691L744.002 233.187L742.741 228.471L741.955 222.841L742.266 219.862L744.222 216.554L746.781 213.958L751.039 213.428L755.134 211.107L756.358 209.462L759.392 202.297L759.228 195.077L762.079 192.098L763.944 193.158L768.294 193.395L770.451 194.327L770.688 196.174L770.761 208.347L772.918 211.436L774.783 211.381L777.945 207.195L780.12 206.83L786.334 209.974L788.838 208.219L790.648 205.349L792.494 200.195L792.348 195.406L790.977 193.56L789.35 193.761L786.133 195.552L776.3 197.362L776.921 192.098L779.827 184.348L781.216 181.935L782.953 180.856L788.674 183.562L792.64 187.692Z" stroke="white" mask="url(#path-1-outside-1_50_19058)"/>
<mask id="path-2-outside-2_50_19058" maskUnits="userSpaceOnUse" x="747.499" y="0.163086" width="215" height="183" fill="black">
<rect fill="white" x="747.499" y="0.163086" width="215" height="183"/>
<path fill-rule="evenodd" clip-rule="evenodd" d="M894.267 67.6225L900.426 67.9333L903.643 68.7741L916.127 76.2498L920.002 77.31L924.042 77.5842L926.93 77.1272L929.562 75.3359L937.933 67.2753L946.615 59.9823L947.492 60.293L946.652 64.7163L942.576 71.5523L937.933 80.8011L936.782 85.5352L937.823 90.2326L940.145 94.1807L941.863 99.4997L943.782 106.902L948.809 108.127L952.227 106.043L955.498 103.356L958.203 103.119L961 103.685L953.561 107.761L950.307 112.148L949.138 112.971L943.672 112.642L935.795 116.37L932.212 118.856L928.41 120.117L924.407 120.3L918.138 122.165L914.153 122.146L906.824 119.971L903.168 120.3L894.943 124.139L887.266 129.878L880.43 136.403L874.472 144.373L872.004 148.558L870.341 153.274L869.189 159.489L866.137 163.199L861.842 161.956L854.987 157.149L841.608 149.966L827.863 139.273L820.113 133.863L804.503 134.301L788.857 142.654L787.651 141.759L782.771 134.941L780.358 132.199L777.214 131.249L772.425 131.45L768.751 134.502L767.253 136.787L765.498 141.302L765.662 143.203L768.294 147.663L771.786 151.117L773.485 151.848L778.914 152.342L784.452 159.141L790.648 165.575L791.964 167.659L789.205 169.542L786.298 170.382L779.992 168.865L774.783 165.941L772.188 167.915L768.039 172.064L765.461 176.725L763.56 178.809L759.192 181.386L754.732 182.574L752.557 181.898L751.076 179.942L750.181 175.117L751.734 169.724L754.549 164.972L755.993 160L755.043 152.799L750.089 146.749L748.499 142.563L748.609 137.518L751.095 128.763L752.539 125.765L757.017 124.486L764.858 120.008L768.843 117.028L772.882 113.318L775.258 109.096L772.846 103.521L772.608 100.304L773.412 97.3246L776.849 95.972L780.029 97.4342L786.243 102.333L798.344 104.8L803.882 104.27L806.934 100.816L808.744 96.2644L808.908 90.2875L809.53 84.3653L811.723 79.6679L817.791 72.2835L819.765 67.8236L821.484 56.7836L823.896 52.0495L825.925 47.0961L827.771 36.5862L826.729 26.2956L823.238 16.3157L824.097 11.8375L826.51 7.79806L827.278 5.45846L832.816 4.12415L836.727 1.16309L838.994 4.56283L843.618 9.93661L850.856 19.4595L859.155 33.8262L864.602 40.8998L870.45 47.3703L877.122 54.0236L884.232 59.8178L888.875 62.6143L892.092 66.8549L894.267 67.6225Z"/>
</mask>
<path fill-rule="evenodd" clip-rule="evenodd" d="M894.267 67.6225L900.426 67.9333L903.643 68.7741L916.127 76.2498L920.002 77.31L924.042 77.5842L926.93 77.1272L929.562 75.3359L937.933 67.2753L946.615 59.9823L947.492 60.293L946.652 64.7163L942.576 71.5523L937.933 80.8011L936.782 85.5352L937.823 90.2326L940.145 94.1807L941.863 99.4997L943.782 106.902L948.809 108.127L952.227 106.043L955.498 103.356L958.203 103.119L961 103.685L953.561 107.761L950.307 112.148L949.138 112.971L943.672 112.642L935.795 116.37L932.212 118.856L928.41 120.117L924.407 120.3L918.138 122.165L914.153 122.146L906.824 119.971L903.168 120.3L894.943 124.139L887.266 129.878L880.43 136.403L874.472 144.373L872.004 148.558L870.341 153.274L869.189 159.489L866.137 163.199L861.842 161.956L854.987 157.149L841.608 149.966L827.863 139.273L820.113 133.863L804.503 134.301L788.857 142.654L787.651 141.759L782.771 134.941L780.358 132.199L777.214 131.249L772.425 131.45L768.751 134.502L767.253 136.787L765.498 141.302L765.662 143.203L768.294 147.663L771.786 151.117L773.485 151.848L778.914 152.342L784.452 159.141L790.648 165.575L791.964 167.659L789.205 169.542L786.298 170.382L779.992 168.865L774.783 165.941L772.188 167.915L768.039 172.064L765.461 176.725L763.56 178.809L759.192 181.386L754.732 182.574L752.557 181.898L751.076 179.942L750.181 175.117L751.734 169.724L754.549 164.972L755.993 160L755.043 152.799L750.089 146.749L748.499 142.563L748.609 137.518L751.095 128.763L752.539 125.765L757.017 124.486L764.858 120.008L768.843 117.028L772.882 113.318L775.258 109.096L772.846 103.521L772.608 100.304L773.412 97.3246L776.849 95.972L780.029 97.4342L786.243 102.333L798.344 104.8L803.882 104.27L806.934 100.816L808.744 96.2644L808.908 90.2875L809.53 84.3653L811.723 79.6679L817.791 72.2835L819.765 67.8236L821.484 56.7836L823.896 52.0495L825.925 47.0961L827.771 36.5862L826.729 26.2956L823.238 16.3157L824.097 11.8375L826.51 7.79806L827.278 5.45846L832.816 4.12415L836.727 1.16309L838.994 4.56283L843.618 9.93661L850.856 19.4595L859.155 33.8262L864.602 40.8998L870.45 47.3703L877.122 54.0236L884.232 59.8178L888.875 62.6143L892.092 66.8549L894.267 67.6225Z" fill="#7C7C7C"/>
<path fill-rule="evenodd" clip-rule="evenodd" d="M894.267 67.6225L900.426 67.9333L903.643 68.7741L916.127 76.2498L920.002 77.31L924.042 77.5842L926.93 77.1272L929.562 75.3359L937.933 67.2753L946.615 59.9823L947.492 60.293L946.652 64.7163L942.576 71.5523L937.933 80.8011L936.782 85.5352L937.823 90.2326L940.145 94.1807L941.863 99.4997L943.782 106.902L948.809 108.127L952.227 106.043L955.498 103.356L958.203 103.119L961 103.685L953.561 107.761L950.307 112.148L949.138 112.971L943.672 112.642L935.795 116.37L932.212 118.856L928.41 120.117L924.407 120.3L918.138 122.165L914.153 122.146L906.824 119.971L903.168 120.3L894.943 124.139L887.266 129.878L880.43 136.403L874.472 144.373L872.004 148.558L870.341 153.274L869.189 159.489L866.137 163.199L861.842 161.956L854.987 157.149L841.608 149.966L827.863 139.273L820.113 133.863L804.503 134.301L788.857 142.654L787.651 141.759L782.771 134.941L780.358 132.199L777.214 131.249L772.425 131.45L768.751 134.502L767.253 136.787L765.498 141.302L765.662 143.203L768.294 147.663L771.786 151.117L773.485 151.848L778.914 152.342L784.452 159.141L790.648 165.575L791.964 167.659L789.205 169.542L786.298 170.382L779.992 168.865L774.783 165.941L772.188 167.915L768.039 172.064L765.461 176.725L763.56 178.809L759.192 181.386L754.732 182.574L752.557 181.898L751.076 179.942L750.181 175.117L751.734 169.724L754.549 164.972L755.993 160L755.043 152.799L750.089 146.749L748.499 142.563L748.609 137.518L751.095 128.763L752.539 125.765L757.017 124.486L764.858 120.008L768.843 117.028L772.882 113.318L775.258 109.096L772.846 103.521L772.608 100.304L773.412 97.3246L776.849 95.972L780.029 97.4342L786.243 102.333L798.344 104.8L803.882 104.27L806.934 100.816L808.744 96.2644L808.908 90.2875L809.53 84.3653L811.723 79.6679L817.791 72.2835L819.765 67.8236L821.484 56.7836L823.896 52.0495L825.925 47.0961L827.771 36.5862L826.729 26.2956L823.238 16.3157L824.097 11.8375L826.51 7.79806L827.278 5.45846L832.816 4.12415L836.727 1.16309L838.994 4.56283L843.618 9.93661L850.856 19.4595L859.155 33.8262L864.602 40.8998L870.45 47.3703L877.122 54.0236L884.232 59.8178L888.875 62.6143L892.092 66.8549L894.267 67.6225Z" stroke="white" mask="url(#path-2-outside-2_50_19058)"/>
<mask id="path-3-outside-3_50_19058" maskUnits="userSpaceOnUse" x="306.87" y="488.709" width="91" height="138" fill="black">
<rect fill="white" x="306.87" y="488.709" width="91" height="138"/>
<path fill-rule="evenodd" clip-rule="evenodd" d="M370.893 507.549L375.7 509.706L379.922 509.797L386.667 507.53L388.823 508.554L390.541 510.492L391.181 512.941L390.249 515.262L385.734 519.905L381.805 524.968L388.439 527.015L395.257 527.892L393.064 531.073L392.296 534.016L395.568 537.891L393.503 541.126L396.811 544.215L394.983 547.56L383.651 557.96L379.867 563.517L376.833 569.786L374.256 574.337L370.235 584.372L367.548 589.654L367.273 594.681L365.83 599.634L358.994 611.405L355.649 610.674L351.664 608.517L348.977 608.335L347.131 610.912L348.575 616.98L339.856 622.573L330.717 625.827L331.028 623.743L334.665 619.667L336.804 614.531L337.133 609.084L335.799 601.992L336.036 599.561L339.162 598.757L340.368 595.723L339.875 593.95L335.323 592.652L333.295 594.882L330.242 599.342L328.305 604.021L328.871 609.267L331.211 613.727L328.323 617.565L318.361 611.734L314.359 609.888L313.28 604.076L319.257 603.016L321.597 596.125L320.372 591.354L317.886 587.443L319.458 583.842L319.732 579.035L320.884 572.418L321.853 571.413L326.093 570.718L329.621 567.647L332.911 564.028L337.919 557.54L342.342 550.393L339.491 549.607L337.261 547.779L340.642 544.599V539.901L337.645 533.668L336.676 526.723L331.979 521.879L327.19 524.602L328.104 529.172L326.751 536.739L328.487 537.232L330.864 536.648L332.49 537.598L332.947 542.332L331.704 544.727L329.858 545.732L327.903 545.311L324.996 541.436L321.505 539.773L317.173 541.418L312.586 545.476L308.966 547.34L311.105 544.105L312.531 540.486L311.507 537.598L308.729 532.626L308.765 526.887L309.99 523.944L313.006 528.039L314.066 532.681L316.442 535.039L319.86 535.606L317.813 527.052L314.669 523.579L310.612 517.949L307.87 515.098L309.972 510.29L312.037 509.596L318.526 512.758L319.495 510.345L318.873 507.256L322.803 505.666L328.835 504.807L333.13 501.828L337.115 502.486L340.807 501.316L344.481 497.112L347.021 492.689L354.68 490.02L356.508 489.709L361.059 490.916L364.897 493.694L367.109 503.601L370.893 507.549Z"/>
</mask>
<path fill-rule="evenodd" clip-rule="evenodd" d="M370.893 507.549L375.7 509.706L379.922 509.797L386.667 507.53L388.823 508.554L390.541 510.492L391.181 512.941L390.249 515.262L385.734 519.905L381.805 524.968L388.439 527.015L395.257 527.892L393.064 531.073L392.296 534.016L395.568 537.891L393.503 541.126L396.811 544.215L394.983 547.56L383.651 557.96L379.867 563.517L376.833 569.786L374.256 574.337L370.235 584.372L367.548 589.654L367.273 594.681L365.83 599.634L358.994 611.405L355.649 610.674L351.664 608.517L348.977 608.335L347.131 610.912L348.575 616.98L339.856 622.573L330.717 625.827L331.028 623.743L334.665 619.667L336.804 614.531L337.133 609.084L335.799 601.992L336.036 599.561L339.162 598.757L340.368 595.723L339.875 593.95L335.323 592.652L333.295 594.882L330.242 599.342L328.305 604.021L328.871 609.267L331.211 613.727L328.323 617.565L318.361 611.734L314.359 609.888L313.28 604.076L319.257 603.016L321.597 596.125L320.372 591.354L317.886 587.443L319.458 583.842L319.732 579.035L320.884 572.418L321.853 571.413L326.093 570.718L329.621 567.647L332.911 564.028L337.919 557.54L342.342 550.393L339.491 549.607L337.261 547.779L340.642 544.599V539.901L337.645 533.668L336.676 526.723L331.979 521.879L327.19 524.602L328.104 529.172L326.751 536.739L328.487 537.232L330.864 536.648L332.49 537.598L332.947 542.332L331.704 544.727L329.858 545.732L327.903 545.311L324.996 541.436L321.505 539.773L317.173 541.418L312.586 545.476L308.966 547.34L311.105 544.105L312.531 540.486L311.507 537.598L308.729 532.626L308.765 526.887L309.99 523.944L313.006 528.039L314.066 532.681L316.442 535.039L319.86 535.606L317.813 527.052L314.669 523.579L310.612 517.949L307.87 515.098L309.972 510.29L312.037 509.596L318.526 512.758L319.495 510.345L318.873 507.256L322.803 505.666L328.835 504.807L333.13 501.828L337.115 502.486L340.807 501.316L344.481 497.112L347.021 492.689L354.68 490.02L356.508 489.709L361.059 490.916L364.897 493.694L367.109 503.601L370.893 507.549Z" fill="#7C7C7C"/>
<path fill-rule="evenodd" clip-rule="evenodd" d="M370.893 507.549L375.7 509.706L379.922 509.797L386.667 507.53L388.823 508.554L390.541 510.492L391.181 512.941L390.249 515.262L385.734 519.905L381.805 524.968L388.439 527.015L395.257 527.892L393.064 531.073L392.296 534.016L395.568 537.891L393.503 541.126L396.811 544.215L394.983 547.56L383.651 557.96L379.867 563.517L376.833 569.786L374.256 574.337L370.235 584.372L367.548 589.654L367.273 594.681L365.83 599.634L358.994 611.405L355.649 610.674L351.664 608.517L348.977 608.335L347.131 610.912L348.575 616.98L339.856 622.573L330.717 625.827L331.028 623.743L334.665 619.667L336.804 614.531L337.133 609.084L335.799 601.992L336.036 599.561L339.162 598.757L340.368 595.723L339.875 593.95L335.323 592.652L333.295 594.882L330.242 599.342L328.305 604.021L328.871 609.267L331.211 613.727L328.323 617.565L318.361 611.734L314.359 609.888L313.28 604.076L319.257 603.016L321.597 596.125L320.372 591.354L317.886 587.443L319.458 583.842L319.732 579.035L320.884 572.418L321.853 571.413L326.093 570.718L329.621 567.647L332.911 564.028L337.919 557.54L342.342 550.393L339.491 549.607L337.261 547.779L340.642 544.599V539.901L337.645 533.668L336.676 526.723L331.979 521.879L327.19 524.602L328.104 529.172L326.751 536.739L328.487 537.232L330.864 536.648L332.49 537.598L332.947 542.332L331.704 544.727L329.858 545.732L327.903 545.311L324.996 541.436L321.505 539.773L317.173 541.418L312.586 545.476L308.966 547.34L311.105 544.105L312.531 540.486L311.507 537.598L308.729 532.626L308.765 526.887L309.99 523.944L313.006 528.039L314.066 532.681L316.442 535.039L319.86 535.606L317.813 527.052L314.669 523.579L310.612 517.949L307.87 515.098L309.972 510.29L312.037 509.596L318.526 512.758L319.495 510.345L318.873 507.256L322.803 505.666L328.835 504.807L333.13 501.828L337.115 502.486L340.807 501.316L344.481 497.112L347.021 492.689L354.68 490.02L356.508 489.709L361.059 490.916L364.897 493.694L367.109 503.601L370.893 507.549Z" stroke="white" mask="url(#path-3-outside-3_50_19058)"/>
<path d="M481.501 487.167L486.399 487.294L486.454 487.296L486.503 487.32L491.638 489.842L491.66 489.853L491.679 489.867L496.449 493.455L501.336 496.033L506.76 496.141L507.047 496.147L507.001 496.431L505.617 504.934L505.957 507.844L507.077 510.572L507.114 510.662L507.08 510.753L505.794 514.226L507.902 515.689L508.273 515.946L507.857 516.124L499.965 519.496L492.59 524.327L486.272 531.552L484.228 535.658L482.606 540.214L482.467 540.608L482.186 540.298L480.249 538.16L480.233 538.143L480.221 538.124L475.093 529.777L471.474 527.234L465.299 525.301H463.298L449.098 530.572L446.548 535.421L446.542 535.433L446.535 535.444L441.673 542.755L441.663 542.771L441.65 542.785L439.53 545.125L439.496 545.162L439.449 545.183L435.958 546.786L433.435 553.146L433.409 553.212L433.351 553.254L428.562 556.783L428.487 556.838L428.392 556.831L425.87 556.611L425.832 556.608L425.796 556.592L421.752 554.903L419.795 555.255L419.261 555.351L419.535 554.883L423.017 548.93L419.387 547.669L415.301 547.234L415.043 547.207L415.08 546.949L415.685 542.774L413.682 540.079L413.567 539.923L413.689 539.772L415.988 536.933L416.471 534.454L416.486 534.377L416.541 534.323L417.786 533.094L418.598 529.595L416.391 528.777L416.334 528.755L416.293 528.709L414.977 527.248L414.889 527.15L414.92 527.023L415.927 522.719L411.177 522.651L403.192 525.162L403.138 525.179L403.082 525.17L401.053 524.878L400.345 524.776L400.963 524.416L404.527 522.332L404.547 522.32L404.568 522.312L411.717 519.741L414.982 518.163L422.394 513.453L422.408 513.444L422.423 513.437L426.855 511.365L429.708 507.004L430.834 504.265L430.846 504.234L430.867 504.208L432.659 501.889L434.532 498.054L434.571 497.974L434.653 497.937L436.951 496.886L441.119 493.921L441.22 493.849L441.338 493.886L443.348 494.507L443.469 494.544L443.511 494.664L445.107 499.219L447.59 502.777L449.738 502.793L455.983 501.538L456.03 501.529L456.076 501.537L460.618 502.348L464.995 500.872L467.02 498.724L468.096 495.868L467.391 490.612L467.345 490.26L467.691 490.334L471.459 491.137L476.424 488.511L476.449 488.499L476.476 488.491L481.43 487.175L481.465 487.166L481.501 487.167Z" fill="#7C7C7C" stroke="white" stroke-width="0.5"/>
<path d="M202.561 803.972L205.028 807.792L205.096 807.898L205.052 808.016L203.499 812.165L203.482 812.209L203.45 812.246L200.873 815.079L200.83 815.125L200.77 815.146L196.65 816.585L194.851 818.849L194.782 818.936L194.672 818.944L191.072 819.176L187.092 822.148L187.026 822.197L186.945 822.198L183.722 822.231L183.342 824.88L184.307 827.546L184.427 827.876L184.077 827.882L181.885 827.917L179.198 830.361L178.912 835.177L178.904 835.307L178.794 835.375L175.43 837.441L175.353 837.489L175.263 837.475L172.212 837.037L171.953 837L172.001 836.744L172.915 831.845L172.927 831.783L172.967 831.733L176.654 827.194L177.722 821.354L177.757 821.164L177.95 821.15L180.641 820.954L186.557 816.909L187.489 815.462L185.749 813.466L185.646 813.349L185.706 813.206L186.876 810.391L186.969 810.167L187.197 810.253L190.523 811.533L190.583 811.556L190.624 811.604L192.285 813.556L194.256 812.856L195.49 811.024L195.513 810.989L195.548 810.963L199.951 807.665L202.135 803.98L202.342 803.633L202.561 803.972Z" fill="#7C7C7C" stroke="white" stroke-width="0.5"/>
<path d="M678.233 321.063L678.141 323.731L678.141 323.773L678.126 323.811L675.085 331.852L679.203 332.69L679.529 332.757L679.374 333.052L675.555 340.308L675.518 340.376L675.451 340.412L669.328 343.684L669.252 343.724L669.167 343.71L664.835 342.961L663.992 342.814L664.781 342.483L666.946 341.575L669.054 335.748L666.594 335.357L666.345 335.318L666.386 335.07L667.025 331.195L667.035 331.138L667.067 331.092L669.627 327.436L669.644 327.41L669.669 327.389L676.14 321.87L676.155 321.856L676.174 321.845L677.855 320.84L678.249 320.604L678.233 321.063Z" fill="#7C7C7C" stroke="white" stroke-width="0.5"/>
<path d="M272.142 736.873L272.744 739.286L272.76 739.349L272.743 739.41L272.286 741.129L272.246 741.28L272.092 741.31L269.279 741.847L263.366 746.255L263.348 746.269L263.326 746.279L260.225 747.794L260.377 749.875L260.387 750.006L260.284 750.088L256.244 753.323L256.043 753.485L255.888 753.277L252.891 749.264L248.99 746.252L248.596 745.948L249.075 745.813L252.463 744.864L252.793 743.562L252.82 743.454L252.919 743.402L256.1 741.721L256.14 741.699L256.186 741.693L262.053 740.963L262.081 740.959L262.109 740.962L263.802 741.134L267.818 738.087L267.85 738.062L267.888 738.05L271.818 736.697L272.075 736.608L272.142 736.873Z" fill="#7C7C7C" stroke="white" stroke-width="0.5"/>
<path d="M317.632 550.885L323.773 550.921L323.964 550.923L324.013 551.106L324.689 553.61L324.704 553.663L324.694 553.718L323.488 560.791L323.473 560.883L323.401 560.941L317.991 565.42L317.957 565.447L317.916 565.462L314.626 566.65L314.411 566.728L314.314 566.52L313.108 563.925L313.022 563.74L313.186 563.618L315.614 561.827L314.707 559.222L314.673 559.125L314.719 559.031L317.362 553.598L317.38 551.133L317.382 550.883L317.632 550.885Z" fill="#7C7C7C" stroke="white" stroke-width="0.5"/>
<path d="M521.302 482.726L522.966 482.963L523.383 483.023L523.131 483.361L518.413 489.667L518.665 494.86L518.672 494.994L518.564 495.074L513.83 498.565L513.741 498.63L513.632 498.608L510.122 497.896L510.031 497.876L509.974 497.802L508.439 495.792L508.397 495.737L508.389 495.667L508.133 493.402L508.118 493.262L508.227 493.176L512.135 490.122L515.772 485.613L515.804 485.573L515.85 485.548L521.151 482.752L521.222 482.714L521.302 482.726Z" fill="#7C7C7C" stroke="white" stroke-width="0.5"/>
<path d="M319.155 650.299L325.186 656.002L325.332 656.141L325.228 656.314L322.449 660.883L322.382 660.994L322.252 661.002L317.628 661.313L317.544 661.319L317.474 661.273L315.226 659.792L315.139 659.735L315.118 659.633L313.875 653.492L313.84 653.32L313.99 653.228L318.852 650.267L319.015 650.168L319.155 650.299Z" fill="#7C7C7C" stroke="white" stroke-width="0.5"/>
<path d="M316.842 446.712L317.555 448.614L317.582 448.685L317.564 448.759L316.358 453.785L316.343 453.847L316.301 453.894L311.726 459.03L311.299 461.898L311.292 461.945L311.269 461.986L310.062 464.088L309.883 464.4L309.653 464.123L306.637 460.504L306.526 460.371L306.611 460.222L310.337 453.606L311.025 449.663L311.045 449.544L311.151 449.487L316.488 446.58L316.741 446.443L316.842 446.712Z" fill="#7C7C7C" stroke="white" stroke-width="0.5"/>
<path d="M343.953 636.757L344.52 638.657L344.542 638.731L344.519 638.804L342.361 645.64L342.351 645.677L342.328 645.708L338.927 650.581L336.617 656.603L336.555 656.765L336.381 656.763L332.908 656.727L332.624 656.724L332.664 656.442L333.048 653.719L333.055 653.664L333.085 653.617L336.79 647.915L337.841 643.497L337.851 643.454L337.875 643.418L341.348 638.117L341.376 638.073L341.419 638.045L343.575 636.619L343.856 636.433L343.953 636.757Z" fill="#7C7C7C" stroke="white" stroke-width="0.5"/>
<path d="M269.699 530.199L270.824 531.614L274.681 531.402L274.772 531.397L274.844 531.452L275.923 532.256L276 532.313L276.019 532.409L277.097 537.947L277.154 538.242L276.854 538.245L272.902 538.28L271.022 540.304L270.859 540.477L270.678 540.325L267.589 537.748L267.499 537.673V535.891L267.511 535.854L269.266 530.279L269.406 529.831L269.699 530.199Z" fill="#7C7C7C" stroke="white" stroke-width="0.5"/>
<path d="M5.76074 884.497L11.6826 888.354L11.8467 888.461L11.7822 888.646L11.1797 890.382L11.1582 890.444L11.1094 890.487L9.18945 892.188L9.12305 892.246L9.03516 892.25L6.45703 892.359L6.40234 892.362L6.35059 892.341L0.904297 890.074L0.722656 889.999L0.75293 889.805L0.972656 888.397L0.998047 888.235L1.15625 888.193L4.12891 887.419L5.39648 884.604L5.5166 884.338L5.76074 884.497Z" fill="#7C7C7C" stroke="white" stroke-width="0.5"/>
<path d="M28.029 881.02L28.7234 882.19L28.8112 882.337L28.7048 882.473L27.073 884.538L23.4284 891.41L23.3806 891.5L23.2839 891.531L21.1823 892.207L21.0798 892.24L20.9851 892.188L19.157 891.182L19.0642 891.131L19.0368 891.029L17.7937 886.459L17.7497 886.296L17.8835 886.195L19.5652 884.916L19.6745 884.832L19.8044 884.88L23.0612 886.099L27.6267 880.982L27.8542 880.727L28.029 881.02Z" fill="#7C7C7C" stroke="white" stroke-width="0.5"/>
<path d="M304.56 462.125L308.727 464.556L308.887 464.65L308.844 464.829L308.259 467.315L308.25 467.359L308.225 467.396L305.154 472.038L305.12 472.091L305.063 472.121L302.285 473.602L301.972 473.768L301.92 473.418L301.463 470.365L301.455 470.306L301.474 470.248L304.197 462.26L304.295 461.971L304.56 462.125Z" fill="#7C7C7C" stroke="white" stroke-width="0.5"/>
<path d="M289.603 516.958L289.997 523.122L290.901 523.73L291.12 523.876L290.961 524.087L289.462 526.08L289.415 526.143L289.338 526.167L287.715 526.685L285.644 530.508L285.597 530.595L285.503 530.626L284.461 530.974L284.179 531.068L284.135 530.774L283.221 524.724L283.191 524.523L283.381 524.453L284.872 523.897L289.14 516.843L289.552 516.162L289.603 516.958Z" fill="#7C7C7C" stroke="white" stroke-width="0.5"/>
<path d="M472.854 391.199L475.248 395.97L475.297 396.068L475.258 396.17L474.528 398.107L474.502 398.176L474.444 398.22L472.451 399.718L472.348 399.796L472.224 399.756L469.172 398.77L469.073 398.737L469.026 398.644L467.636 395.884L467.585 395.783L467.627 395.679L468.724 392.937L468.761 392.845L468.851 392.803L472.525 391.085L472.744 390.982L472.854 391.199Z" fill="#7C7C7C" stroke="white" stroke-width="0.5"/>
<path d="M238.293 760.514L239.719 767.552L239.736 767.637L239.697 767.715L238.581 769.908L238.535 770L238.437 770.032L236.645 770.617L236.519 770.659L236.413 770.577L234.403 769.005L234.302 768.926L234.307 768.797L234.545 763.277L234.547 763.215L234.578 763.161L236.004 760.73L236.065 760.629L236.181 760.61L238.008 760.317L238.245 760.279L238.293 760.514Z" fill="#7C7C7C" stroke="white" stroke-width="0.5"/>
<path d="M810.875 11.0837L812.72 11.906L812.797 11.9402L812.838 12.0134L814.995 15.8884L815.085 16.0505L814.955 16.1843L813.676 17.4998L813.609 17.5681L813.513 17.575L811.156 17.74L811.055 17.7468L810.978 17.6824L808.51 15.6169L808.423 15.5427L808.421 15.4285L808.385 13.0525L808.383 12.9314L808.477 12.8542L810.615 11.1179L810.734 11.0212L810.875 11.0837Z" fill="#7C7C7C" stroke="white" stroke-width="0.5"/>
<path d="M68.9056 875.75L69.9662 876.92L70.016 876.975L70.3949 879.343L72.7299 881.13L72.7582 881.153L72.7797 881.182L74.1693 883.101L74.4105 883.435L74.0033 883.495L70.4388 884.025L70.3705 884.035L70.306 884.008L66.8695 882.565L66.6674 882.48L66.725 882.268L68.4799 875.852L68.6 875.412L68.9056 875.75Z" fill="#7C7C7C" stroke="white" stroke-width="0.5"/>
<path d="M331.214 552.8L334.76 553.916L335.154 554.04L334.861 554.331L331.022 558.151L330.939 558.234L330.822 558.222L327.423 557.893L327.303 557.882L327.237 557.782L325.702 555.442L325.539 555.194L325.811 555.076L331.039 552.809L331.125 552.772L331.214 552.8Z" fill="#7C7C7C" stroke="white" stroke-width="0.5"/>
<path d="M412.709 496.935L414.883 497.374L414.974 497.392L415.032 497.466L416.491 499.341L420.843 499.27L420.961 499.268L421.037 499.356L421.511 499.905L421.693 500.114L421.466 500.273L417.719 502.905L417.597 502.991L417.464 502.925L414.188 501.295L412.051 500.936L411.806 500.895L411.845 500.65L412.412 497.14L412.454 496.884L412.709 496.935Z" fill="#7C7C7C" stroke="white" stroke-width="0.5"/>
<path d="M308.82 509.394L305.836 512.541L304.684 515.26L304.65 515.337L304.578 515.379L301.508 517.152L301.428 517.198L301.338 517.181L299.437 516.834L298.97 516.748L299.304 516.412L301.529 514.167L304.129 509.807L304.189 509.707L304.303 509.688L308.598 508.975L309.333 508.854L308.82 509.394Z" fill="#7C7C7C" stroke="white" stroke-width="0.5"/>
<path d="M738.859 143.833L736.209 150.029L736.179 150.097L736.119 150.138L735.205 150.759L735.122 150.815L735.022 150.799L733.414 150.524L733.227 150.492L733.208 150.304L732.841 146.795L732.834 146.721L732.868 146.654L733.782 144.881L733.833 144.783L733.938 144.754L738.563 143.493L739.062 143.357L738.859 143.833Z" fill="#7C7C7C" stroke="white" stroke-width="0.5"/>
<path d="M320.861 492.685L320.725 492.754L317.764 494.272L317.591 494.36L317.464 494.215L315.837 492.388L315.723 492.26L315.8 492.109L318.468 486.844L318.616 486.554L318.858 486.771L320.778 488.49L320.861 488.564V492.685Z" fill="#7C7C7C" stroke="white" stroke-width="0.5"/>
<path d="M497.214 480.259L497.265 480.283L498.911 481.069L499.16 481.188L499.016 481.425L497.974 483.143L497.94 483.199L497.882 483.231L493.661 485.589L493.326 485.776L493.289 485.395L493.093 483.333L491.39 480.661L491.146 480.278L491.6 480.277L497.157 480.259H497.214Z" fill="#7C7C7C" stroke="white" stroke-width="0.5"/>
<path d="M804.655 0.762695L807.379 1.67676L807.553 1.73535L807.55 1.91797L807.458 7.2002L807.457 7.26562L807.424 7.32227L805.797 10.1006L805.498 10.6113L805.341 10.041L804.134 5.67285L804.123 5.63477L804.125 5.59473L804.326 0.989258L804.341 0.657227L804.655 0.762695Z" fill="#7C7C7C" stroke="white" stroke-width="0.5"/>
<path d="M249.876 748.696L252.306 749.902L252.377 749.937L252.415 750.007L254.48 753.79L254.506 753.839L254.51 753.893L254.584 755.046L254.609 755.448L254.237 755.292L250.508 753.719L250.383 753.667L250.359 753.535L249.518 748.965L249.428 748.473L249.876 748.696Z" fill="#7C7C7C" stroke="white" stroke-width="0.5"/>
<path d="M691.29 489.109L693.447 489.273L693.604 489.285L693.661 489.432L694.593 491.845L694.624 491.926L694.599 492.008L693.941 494.183L693.867 494.427L693.624 494.348L691.614 493.69L691.519 493.659L691.471 493.572L690.649 492.054L690.609 491.98L690.622 491.897L691.024 489.32L691.059 489.092L691.29 489.109Z" fill="#7C7C7C" stroke="white" stroke-width="0.5"/>
<path d="M303.038 584.13L302.892 586.25L302.885 586.345L302.817 586.412L299.198 589.94L299.168 589.969L299.129 589.988L297.795 590.609L297.219 590.877L297.458 590.289L298.901 586.724L298.927 586.659L298.984 586.617L302.64 583.912L303.076 583.589L303.038 584.13Z" fill="#7C7C7C" stroke="white" stroke-width="0.5"/>
<path d="M427.337 488.386L428.215 491.273L428.254 491.403L428.167 491.507L426.741 493.206L426.633 493.335L426.473 493.284L423.238 492.242L422.834 492.112L423.143 491.821L426.927 488.275L427.221 488.001L427.337 488.386Z" fill="#7C7C7C" stroke="white" stroke-width="0.5"/>
<path d="M770.214 878.795L772.481 879.49L772.582 879.521L772.63 879.616L774.165 882.631L774.221 882.74L774.169 882.85L773.475 884.349L773.407 884.494H772.319L772.252 884.346L769.912 879.137L769.687 878.634L770.214 878.795Z" fill="#7C7C7C" stroke="white" stroke-width="0.5"/>
<path d="M700.565 568.105L702.96 569.988L703.165 570.149L702.995 570.347L701.551 572.029L701.423 572.177L701.249 572.088L698.762 570.828L698.604 570.748L698.628 570.572L698.921 568.36L698.947 568.159L699.15 568.143L700.392 568.052L700.489 568.044L700.565 568.105Z" fill="#7C7C7C" stroke="white" stroke-width="0.5"/>
</svg>
