<svg width="1336" height="988" viewBox="0 0 1336 988" fill="none" xmlns="http://www.w3.org/2000/svg">
<path d="M13.2455 20.4924L9.94547 22.9324V21.3324L13.3455 18.8124H14.6455V33.2124H13.2455V20.4924ZM21.9381 33.4524C20.5915 33.4524 19.5115 33.0791 18.6981 32.3324C17.8981 31.5857 17.4515 30.6124 17.3581 29.4124H18.7581C18.8515 30.2657 19.1781 30.9457 19.7381 31.4524C20.3115 31.9457 21.0448 32.1924 21.9381 32.1924C22.9381 32.1924 23.7248 31.8657 24.2981 31.2124C24.8715 30.5591 25.1581 29.7057 25.1581 28.6524C25.1581 27.5991 24.8715 26.7457 24.2981 26.0924C23.7248 25.4391 22.9381 25.1124 21.9381 25.1124C21.1648 25.1124 20.5448 25.2791 20.0781 25.6124C19.6115 25.9324 19.2248 26.4057 18.9181 27.0324H17.6381L18.8181 18.8124H25.9781V20.0724H19.9381L19.2181 24.9324C19.9781 24.2124 20.9181 23.8524 22.0381 23.8524C23.0115 23.8524 23.8381 24.0591 24.5181 24.4724C25.2115 24.8857 25.7315 25.4591 26.0781 26.1924C26.4381 26.9124 26.6181 27.7324 26.6181 28.6524C26.6181 29.5724 26.4315 30.3991 26.0581 31.1324C25.6981 31.8524 25.1648 32.4191 24.4581 32.8324C23.7515 33.2457 22.9115 33.4524 21.9381 33.4524ZM33.5548 18.8124H34.9348V28.0524L40.1948 22.8124H41.9548L37.8348 26.8724L42.2748 33.2124H40.6548L36.8748 27.8124L34.9348 29.7324V33.2124H33.5548V18.8124ZM57.4116 26.5724C57.4116 25.7057 57.1916 25.0257 56.7516 24.5324C56.3249 24.0391 55.7449 23.7924 55.0116 23.7924C54.5582 23.7924 54.1049 23.9124 53.6516 24.1524C53.2116 24.3791 52.8382 24.7657 52.5316 25.3124C52.2382 25.8457 52.0916 26.5391 52.0916 27.3924V33.2124H50.7516V26.5724C50.7516 25.7057 50.5316 25.0257 50.0916 24.5324C49.6649 24.0391 49.0849 23.7924 48.3516 23.7924C47.8982 23.7924 47.4449 23.9124 46.9916 24.1524C46.5516 24.3791 46.1782 24.7657 45.8716 25.3124C45.5782 25.8457 45.4316 26.5391 45.4316 27.3924V33.2124H44.0916V22.8124H45.3716V24.4724C46.0516 23.2057 47.1249 22.5724 48.5916 22.5724C49.3782 22.5724 50.0449 22.7724 50.5916 23.1724C51.1382 23.5724 51.5382 24.1057 51.7916 24.7724C52.1116 24.1057 52.5582 23.5724 53.1316 23.1724C53.7049 22.7724 54.4116 22.5724 55.2516 22.5724C55.9849 22.5724 56.6116 22.7457 57.1316 23.0924C57.6649 23.4391 58.0649 23.9057 58.3316 24.4924C58.6116 25.0791 58.7516 25.7257 58.7516 26.4324V33.2124H57.4116V26.5724Z" fill="white"/>
<path d="M12.3275 126.492L9.0275 128.932V127.332L12.4275 124.812H13.7275V139.212H12.3275V126.492ZM21.4002 139.452C19.6668 139.452 18.4135 138.792 17.6402 137.472C16.8802 136.139 16.5002 134.319 16.5002 132.012C16.5002 129.706 16.8802 127.892 17.6402 126.572C18.4135 125.239 19.6668 124.572 21.4002 124.572C23.1335 124.572 24.3802 125.239 25.1402 126.572C25.9135 127.892 26.3002 129.706 26.3002 132.012C26.3002 134.319 25.9135 136.139 25.1402 137.472C24.3802 138.792 23.1335 139.452 21.4002 139.452ZM17.9402 132.012C17.9402 133.959 18.2068 135.479 18.7402 136.572C19.2735 137.652 20.1602 138.192 21.4002 138.192C22.6402 138.192 23.5268 137.652 24.0602 136.572C24.5935 135.479 24.8602 133.959 24.8602 132.012C24.8602 130.066 24.5935 128.552 24.0602 127.472C23.5268 126.379 22.6402 125.832 21.4002 125.832C20.1602 125.832 19.2735 126.379 18.7402 127.472C18.2068 128.552 17.9402 130.066 17.9402 132.012ZM33.5548 124.812H34.9348V134.052L40.1948 128.812H41.9548L37.8348 132.872L42.2748 139.212H40.6548L36.8748 133.812L34.9348 135.732V139.212H33.5548V124.812ZM57.4116 132.572C57.4116 131.706 57.1916 131.026 56.7516 130.532C56.3249 130.039 55.7449 129.792 55.0116 129.792C54.5582 129.792 54.1049 129.912 53.6516 130.152C53.2116 130.379 52.8382 130.766 52.5316 131.312C52.2382 131.846 52.0916 132.539 52.0916 133.392V139.212H50.7516V132.572C50.7516 131.706 50.5316 131.026 50.0916 130.532C49.6649 130.039 49.0849 129.792 48.3516 129.792C47.8982 129.792 47.4449 129.912 46.9916 130.152C46.5516 130.379 46.1782 130.766 45.8716 131.312C45.5782 131.846 45.4316 132.539 45.4316 133.392V139.212H44.0916V128.812H45.3716V130.472C46.0516 129.206 47.1249 128.572 48.5916 128.572C49.3782 128.572 50.0449 128.772 50.5916 129.172C51.1382 129.572 51.5382 130.106 51.7916 130.772C52.1116 130.106 52.5582 129.572 53.1316 129.172C53.7049 128.772 54.4116 128.572 55.2516 128.572C55.9849 128.572 56.6116 128.746 57.1316 129.092C57.6649 129.439 58.0649 129.906 58.3316 130.492C58.6116 131.079 58.7516 131.726 58.7516 132.432V139.212H57.4116V132.572Z" fill="white"/>
<path d="M10.2202 253.072H2.62016V251.812H11.6202V252.992L5.88016 266.212H4.46016L10.2202 253.072ZM13.442 263.912H15.022V266.212H13.442V263.912ZM21.9381 266.452C20.5915 266.452 19.5115 266.079 18.6981 265.332C17.8981 264.586 17.4515 263.612 17.3581 262.412H18.7581C18.8515 263.266 19.1781 263.946 19.7381 264.452C20.3115 264.946 21.0448 265.192 21.9381 265.192C22.9381 265.192 23.7248 264.866 24.2981 264.212C24.8715 263.559 25.1581 262.706 25.1581 261.652C25.1581 260.599 24.8715 259.746 24.2981 259.092C23.7248 258.439 22.9381 258.112 21.9381 258.112C21.1648 258.112 20.5448 258.279 20.0781 258.612C19.6115 258.932 19.2248 259.406 18.9181 260.032H17.6381L18.8181 251.812H25.9781V253.072H19.9381L19.2181 257.932C19.9781 257.212 20.9181 256.852 22.0381 256.852C23.0115 256.852 23.8381 257.059 24.5181 257.472C25.2115 257.886 25.7315 258.459 26.0781 259.192C26.4381 259.912 26.6181 260.732 26.6181 261.652C26.6181 262.572 26.4315 263.399 26.0581 264.132C25.6981 264.852 25.1648 265.419 24.4581 265.832C23.7515 266.246 22.9115 266.452 21.9381 266.452ZM33.5548 251.812H34.9348V261.052L40.1948 255.812H41.9548L37.8348 259.872L42.2748 266.212H40.6548L36.8748 260.812L34.9348 262.732V266.212H33.5548V251.812ZM57.4116 259.572C57.4116 258.706 57.1916 258.026 56.7516 257.532C56.3249 257.039 55.7449 256.792 55.0116 256.792C54.5582 256.792 54.1049 256.912 53.6516 257.152C53.2116 257.379 52.8382 257.766 52.5316 258.312C52.2382 258.846 52.0916 259.539 52.0916 260.392V266.212H50.7516V259.572C50.7516 258.706 50.5316 258.026 50.0916 257.532C49.6649 257.039 49.0849 256.792 48.3516 256.792C47.8982 256.792 47.4449 256.912 46.9916 257.152C46.5516 257.379 46.1782 257.766 45.8716 258.312C45.5782 258.846 45.4316 259.539 45.4316 260.392V266.212H44.0916V255.812H45.3716V257.472C46.0516 256.206 47.1249 255.572 48.5916 255.572C49.3782 255.572 50.0449 255.772 50.5916 256.172C51.1382 256.572 51.5382 257.106 51.7916 257.772C52.1116 257.106 52.5582 256.572 53.1316 256.172C53.7049 255.772 54.4116 255.572 55.2516 255.572C55.9849 255.572 56.6116 255.746 57.1316 256.092C57.6649 256.439 58.0649 256.906 58.3316 257.492C58.6116 258.079 58.7516 258.726 58.7516 259.432V266.212H57.4116V259.572Z" fill="white"/>
<path d="M6.48188 349.452C5.36188 349.452 4.40188 349.119 3.60188 348.452C2.81521 347.826 2.26188 346.972 1.94188 345.892C1.63521 344.799 1.48188 343.532 1.48188 342.092C1.48188 339.786 1.90188 337.959 2.74188 336.612C3.58188 335.252 4.82854 334.572 6.48188 334.572C7.58854 334.572 8.52854 334.926 9.30188 335.632C10.0885 336.326 10.5819 337.252 10.7819 338.412H9.42188C9.26188 337.612 8.91521 336.986 8.38188 336.532C7.84854 336.066 7.21521 335.832 6.48188 335.832C5.22854 335.832 4.30188 336.412 3.70188 337.572C3.11521 338.719 2.82854 340.219 2.84188 342.072C3.20188 341.392 3.69521 340.859 4.32188 340.472C4.94854 340.086 5.66854 339.892 6.48188 339.892C7.44188 339.892 8.26854 340.099 8.96188 340.512C9.65521 340.926 10.1819 341.499 10.5419 342.232C10.9019 342.952 11.0819 343.766 11.0819 344.672C11.0819 345.579 10.9019 346.399 10.5419 347.132C10.1819 347.852 9.65521 348.419 8.96188 348.832C8.26854 349.246 7.44188 349.452 6.48188 349.452ZM3.30188 344.672C3.30188 345.712 3.58854 346.559 4.16188 347.212C4.74854 347.866 5.52188 348.192 6.48188 348.192C7.44188 348.192 8.20854 347.866 8.78188 347.212C9.36854 346.559 9.66188 345.712 9.66188 344.672C9.66188 343.632 9.36854 342.786 8.78188 342.132C8.20854 341.479 7.44188 341.152 6.48188 341.152C5.52188 341.152 4.74854 341.479 4.16188 342.132C3.58854 342.786 3.30188 343.632 3.30188 344.672ZM13.442 346.912H15.022V349.212H13.442V346.912ZM21.9381 349.452C20.5915 349.452 19.5115 349.079 18.6981 348.332C17.8981 347.586 17.4515 346.612 17.3581 345.412H18.7581C18.8515 346.266 19.1781 346.946 19.7381 347.452C20.3115 347.946 21.0448 348.192 21.9381 348.192C22.9381 348.192 23.7248 347.866 24.2981 347.212C24.8715 346.559 25.1581 345.706 25.1581 344.652C25.1581 343.599 24.8715 342.746 24.2981 342.092C23.7248 341.439 22.9381 341.112 21.9381 341.112C21.1648 341.112 20.5448 341.279 20.0781 341.612C19.6115 341.932 19.2248 342.406 18.9181 343.032H17.6381L18.8181 334.812H25.9781V336.072H19.9381L19.2181 340.932C19.9781 340.212 20.9181 339.852 22.0381 339.852C23.0115 339.852 23.8381 340.059 24.5181 340.472C25.2115 340.886 25.7315 341.459 26.0781 342.192C26.4381 342.912 26.6181 343.732 26.6181 344.652C26.6181 345.572 26.4315 346.399 26.0581 347.132C25.6981 347.852 25.1648 348.419 24.4581 348.832C23.7515 349.246 22.9115 349.452 21.9381 349.452ZM33.5548 334.812H34.9348V344.052L40.1948 338.812H41.9548L37.8348 342.872L42.2748 349.212H40.6548L36.8748 343.812L34.9348 345.732V349.212H33.5548V334.812ZM57.4116 342.572C57.4116 341.706 57.1916 341.026 56.7516 340.532C56.3249 340.039 55.7449 339.792 55.0116 339.792C54.5582 339.792 54.1049 339.912 53.6516 340.152C53.2116 340.379 52.8382 340.766 52.5316 341.312C52.2382 341.846 52.0916 342.539 52.0916 343.392V349.212H50.7516V342.572C50.7516 341.706 50.5316 341.026 50.0916 340.532C49.6649 340.039 49.0849 339.792 48.3516 339.792C47.8982 339.792 47.4449 339.912 46.9916 340.152C46.5516 340.379 46.1782 340.766 45.8716 341.312C45.5782 341.846 45.4316 342.539 45.4316 343.392V349.212H44.0916V338.812H45.3716V340.472C46.0516 339.206 47.1249 338.572 48.5916 338.572C49.3782 338.572 50.0449 338.772 50.5916 339.172C51.1382 339.572 51.5382 340.106 51.7916 340.772C52.1116 340.106 52.5582 339.572 53.1316 339.172C53.7049 338.772 54.4116 338.572 55.2516 338.572C55.9849 338.572 56.6116 338.746 57.1316 339.092C57.6649 339.439 58.0649 339.906 58.3316 340.492C58.6116 341.079 58.7516 341.726 58.7516 342.432V349.212H57.4116V342.572Z" fill="white"/>
<path d="M5.14125 620.972L10.8013 615.252C11.4146 614.612 11.8946 613.992 12.2413 613.392C12.6013 612.779 12.7813 612.139 12.7813 611.472C12.7813 610.672 12.5013 610.032 11.9413 609.552C11.3946 609.072 10.6679 608.832 9.76125 608.832C8.82792 608.832 8.05458 609.126 7.44125 609.712C6.84125 610.299 6.53459 611.126 6.52125 612.192H5.14125C5.15458 611.246 5.35458 610.426 5.74125 609.732C6.14125 609.039 6.68792 608.506 7.38125 608.132C8.07459 607.759 8.86792 607.572 9.76125 607.572C10.6413 607.572 11.4146 607.752 12.0813 608.112C12.7479 608.459 13.2546 608.932 13.6013 609.532C13.9613 610.132 14.1413 610.786 14.1413 611.492C14.1413 612.959 13.3346 614.512 11.7213 616.152L6.92125 620.932H14.3613V622.212H5.14125V620.972ZM21.4002 622.452C19.6668 622.452 18.4135 621.792 17.6402 620.472C16.8802 619.139 16.5002 617.319 16.5002 615.012C16.5002 612.706 16.8802 610.892 17.6402 609.572C18.4135 608.239 19.6668 607.572 21.4002 607.572C23.1335 607.572 24.3802 608.239 25.1402 609.572C25.9135 610.892 26.3002 612.706 26.3002 615.012C26.3002 617.319 25.9135 619.139 25.1402 620.472C24.3802 621.792 23.1335 622.452 21.4002 622.452ZM17.9402 615.012C17.9402 616.959 18.2068 618.479 18.7402 619.572C19.2735 620.652 20.1602 621.192 21.4002 621.192C22.6402 621.192 23.5268 620.652 24.0602 619.572C24.5935 618.479 24.8602 616.959 24.8602 615.012C24.8602 613.066 24.5935 611.552 24.0602 610.472C23.5268 609.379 22.6402 608.832 21.4002 608.832C20.1602 608.832 19.2735 609.379 18.7402 610.472C18.2068 611.552 17.9402 613.066 17.9402 615.012ZM33.5548 607.812H34.9348V617.052L40.1948 611.812H41.9548L37.8348 615.872L42.2748 622.212H40.6548L36.8748 616.812L34.9348 618.732V622.212H33.5548V607.812ZM57.4116 615.572C57.4116 614.706 57.1916 614.026 56.7516 613.532C56.3249 613.039 55.7449 612.792 55.0116 612.792C54.5582 612.792 54.1049 612.912 53.6516 613.152C53.2116 613.379 52.8382 613.766 52.5316 614.312C52.2382 614.846 52.0916 615.539 52.0916 616.392V622.212H50.7516V615.572C50.7516 614.706 50.5316 614.026 50.0916 613.532C49.6649 613.039 49.0849 612.792 48.3516 612.792C47.8982 612.792 47.4449 612.912 46.9916 613.152C46.5516 613.379 46.1782 613.766 45.8716 614.312C45.5782 614.846 45.4316 615.539 45.4316 616.392V622.212H44.0916V611.812H45.3716V613.472C46.0516 612.206 47.1249 611.572 48.5916 611.572C49.3782 611.572 50.0449 611.772 50.5916 612.172C51.1382 612.572 51.5382 613.106 51.7916 613.772C52.1116 613.106 52.5582 612.572 53.1316 612.172C53.7049 611.772 54.4116 611.572 55.2516 611.572C55.9849 611.572 56.6116 611.746 57.1316 612.092C57.6649 612.439 58.0649 612.906 58.3316 613.492C58.6116 614.079 58.7516 614.726 58.7516 615.432V622.212H57.4116V615.572Z" fill="white"/>
<path d="M21.4002 908.452C19.6668 908.452 18.4135 907.792 17.6402 906.472C16.8802 905.139 16.5002 903.319 16.5002 901.012C16.5002 898.706 16.8802 896.892 17.6402 895.572C18.4135 894.239 19.6668 893.572 21.4002 893.572C23.1335 893.572 24.3802 894.239 25.1402 895.572C25.9135 896.892 26.3002 898.706 26.3002 901.012C26.3002 903.319 25.9135 905.139 25.1402 906.472C24.3802 907.792 23.1335 908.452 21.4002 908.452ZM17.9402 901.012C17.9402 902.959 18.2068 904.479 18.7402 905.572C19.2735 906.652 20.1602 907.192 21.4002 907.192C22.6402 907.192 23.5268 906.652 24.0602 905.572C24.5935 904.479 24.8602 902.959 24.8602 901.012C24.8602 899.066 24.5935 897.552 24.0602 896.472C23.5268 895.379 22.6402 894.832 21.4002 894.832C20.1602 894.832 19.2735 895.379 18.7402 896.472C18.2068 897.552 17.9402 899.066 17.9402 901.012ZM33.5548 893.812H34.9348V903.052L40.1948 897.812H41.9548L37.8348 901.872L42.2748 908.212H40.6548L36.8748 902.812L34.9348 904.732V908.212H33.5548V893.812ZM57.4116 901.572C57.4116 900.706 57.1916 900.026 56.7516 899.532C56.3249 899.039 55.7449 898.792 55.0116 898.792C54.5582 898.792 54.1049 898.912 53.6516 899.152C53.2116 899.379 52.8382 899.766 52.5316 900.312C52.2382 900.846 52.0916 901.539 52.0916 902.392V908.212H50.7516V901.572C50.7516 900.706 50.5316 900.026 50.0916 899.532C49.6649 899.039 49.0849 898.792 48.3516 898.792C47.8982 898.792 47.4449 898.912 46.9916 899.152C46.5516 899.379 46.1782 899.766 45.8716 900.312C45.5782 900.846 45.4316 901.539 45.4316 902.392V908.212H44.0916V897.812H45.3716V899.472C46.0516 898.206 47.1249 897.572 48.5916 897.572C49.3782 897.572 50.0449 897.772 50.5916 898.172C51.1382 898.572 51.5382 899.106 51.7916 899.772C52.1116 899.106 52.5582 898.572 53.1316 898.172C53.7049 897.772 54.4116 897.572 55.2516 897.572C55.9849 897.572 56.6116 897.746 57.1316 898.092C57.6649 898.439 58.0649 898.906 58.3316 899.492C58.6116 900.079 58.7516 900.726 58.7516 901.432V908.212H57.4116V901.572Z" fill="white"/>
<path d="M1289.25 24.4924L1285.95 26.9324V25.3324L1289.35 22.8124H1290.65V37.2124H1289.25V24.4924ZM1297.94 37.4524C1296.59 37.4524 1295.51 37.0791 1294.7 36.3324C1293.9 35.5857 1293.45 34.6124 1293.36 33.4124H1294.76C1294.85 34.2657 1295.18 34.9457 1295.74 35.4524C1296.31 35.9457 1297.04 36.1924 1297.94 36.1924C1298.94 36.1924 1299.72 35.8657 1300.3 35.2124C1300.87 34.5591 1301.16 33.7057 1301.16 32.6524C1301.16 31.5991 1300.87 30.7457 1300.3 30.0924C1299.72 29.4391 1298.94 29.1124 1297.94 29.1124C1297.16 29.1124 1296.54 29.2791 1296.08 29.6124C1295.61 29.9324 1295.22 30.4057 1294.92 31.0324H1293.64L1294.82 22.8124H1301.98V24.0724H1295.94L1295.22 28.9324C1295.98 28.2124 1296.92 27.8524 1298.04 27.8524C1299.01 27.8524 1299.84 28.0591 1300.52 28.4724C1301.21 28.8857 1301.73 29.4591 1302.08 30.1924C1302.44 30.9124 1302.62 31.7324 1302.62 32.6524C1302.62 33.5724 1302.43 34.3991 1302.06 35.1324C1301.7 35.8524 1301.16 36.4191 1300.46 36.8324C1299.75 37.2457 1298.91 37.4524 1297.94 37.4524ZM1309.55 22.8124H1310.93V32.0524L1316.19 26.8124H1317.95L1313.83 30.8724L1318.27 37.2124H1316.65L1312.87 31.8124L1310.93 33.7324V37.2124H1309.55V22.8124ZM1333.41 30.5724C1333.41 29.7057 1333.19 29.0257 1332.75 28.5324C1332.32 28.0391 1331.74 27.7924 1331.01 27.7924C1330.56 27.7924 1330.1 27.9124 1329.65 28.1524C1329.21 28.3791 1328.84 28.7657 1328.53 29.3124C1328.24 29.8457 1328.09 30.5391 1328.09 31.3924V37.2124H1326.75V30.5724C1326.75 29.7057 1326.53 29.0257 1326.09 28.5324C1325.66 28.0391 1325.08 27.7924 1324.35 27.7924C1323.9 27.7924 1323.44 27.9124 1322.99 28.1524C1322.55 28.3791 1322.18 28.7657 1321.87 29.3124C1321.58 29.8457 1321.43 30.5391 1321.43 31.3924V37.2124H1320.09V26.8124H1321.37V28.4724C1322.05 27.2057 1323.12 26.5724 1324.59 26.5724C1325.38 26.5724 1326.04 26.7724 1326.59 27.1724C1327.14 27.5724 1327.54 28.1057 1327.79 28.7724C1328.11 28.1057 1328.56 27.5724 1329.13 27.1724C1329.7 26.7724 1330.41 26.5724 1331.25 26.5724C1331.98 26.5724 1332.61 26.7457 1333.13 27.0924C1333.66 27.4391 1334.06 27.9057 1334.33 28.4924C1334.61 29.0791 1334.75 29.7257 1334.75 30.4324V37.2124H1333.41V30.5724Z" fill="white"/>
<path d="M1286.22 257.072H1278.62V255.812H1287.62V256.992L1281.88 270.212H1280.46L1286.22 257.072ZM1289.44 267.912H1291.02V270.212H1289.44V267.912ZM1297.94 270.452C1296.59 270.452 1295.51 270.079 1294.7 269.332C1293.9 268.586 1293.45 267.612 1293.36 266.412H1294.76C1294.85 267.266 1295.18 267.946 1295.74 268.452C1296.31 268.946 1297.04 269.192 1297.94 269.192C1298.94 269.192 1299.72 268.866 1300.3 268.212C1300.87 267.559 1301.16 266.706 1301.16 265.652C1301.16 264.599 1300.87 263.746 1300.3 263.092C1299.72 262.439 1298.94 262.112 1297.94 262.112C1297.16 262.112 1296.54 262.279 1296.08 262.612C1295.61 262.932 1295.22 263.406 1294.92 264.032H1293.64L1294.82 255.812H1301.98V257.072H1295.94L1295.22 261.932C1295.98 261.212 1296.92 260.852 1298.04 260.852C1299.01 260.852 1299.84 261.059 1300.52 261.472C1301.21 261.886 1301.73 262.459 1302.08 263.192C1302.44 263.912 1302.62 264.732 1302.62 265.652C1302.62 266.572 1302.43 267.399 1302.06 268.132C1301.7 268.852 1301.16 269.419 1300.46 269.832C1299.75 270.246 1298.91 270.452 1297.94 270.452ZM1309.55 255.812H1310.93V265.052L1316.19 259.812H1317.95L1313.83 263.872L1318.27 270.212H1316.65L1312.87 264.812L1310.93 266.732V270.212H1309.55V255.812ZM1333.41 263.572C1333.41 262.706 1333.19 262.026 1332.75 261.532C1332.32 261.039 1331.74 260.792 1331.01 260.792C1330.56 260.792 1330.1 260.912 1329.65 261.152C1329.21 261.379 1328.84 261.766 1328.53 262.312C1328.24 262.846 1328.09 263.539 1328.09 264.392V270.212H1326.75V263.572C1326.75 262.706 1326.53 262.026 1326.09 261.532C1325.66 261.039 1325.08 260.792 1324.35 260.792C1323.9 260.792 1323.44 260.912 1322.99 261.152C1322.55 261.379 1322.18 261.766 1321.87 262.312C1321.58 262.846 1321.43 263.539 1321.43 264.392V270.212H1320.09V259.812H1321.37V261.472C1322.05 260.206 1323.12 259.572 1324.59 259.572C1325.38 259.572 1326.04 259.772 1326.59 260.172C1327.14 260.572 1327.54 261.106 1327.79 261.772C1328.11 261.106 1328.56 260.572 1329.13 260.172C1329.7 259.772 1330.41 259.572 1331.25 259.572C1331.98 259.572 1332.61 259.746 1333.13 260.092C1333.66 260.439 1334.06 260.906 1334.33 261.492C1334.61 262.079 1334.75 262.726 1334.75 263.432V270.212H1333.41V263.572Z" fill="white"/>
<path d="M1282.48 353.452C1281.36 353.452 1280.4 353.119 1279.6 352.452C1278.82 351.826 1278.26 350.972 1277.94 349.892C1277.64 348.799 1277.48 347.532 1277.48 346.092C1277.48 343.786 1277.9 341.959 1278.74 340.612C1279.58 339.252 1280.83 338.572 1282.48 338.572C1283.59 338.572 1284.53 338.926 1285.3 339.632C1286.09 340.326 1286.58 341.252 1286.78 342.412H1285.42C1285.26 341.612 1284.92 340.986 1284.38 340.532C1283.85 340.066 1283.22 339.832 1282.48 339.832C1281.23 339.832 1280.3 340.412 1279.7 341.572C1279.12 342.719 1278.83 344.219 1278.84 346.072C1279.2 345.392 1279.7 344.859 1280.32 344.472C1280.95 344.086 1281.67 343.892 1282.48 343.892C1283.44 343.892 1284.27 344.099 1284.96 344.512C1285.66 344.926 1286.18 345.499 1286.54 346.232C1286.9 346.952 1287.08 347.766 1287.08 348.672C1287.08 349.579 1286.9 350.399 1286.54 351.132C1286.18 351.852 1285.66 352.419 1284.96 352.832C1284.27 353.246 1283.44 353.452 1282.48 353.452ZM1279.3 348.672C1279.3 349.712 1279.59 350.559 1280.16 351.212C1280.75 351.866 1281.52 352.192 1282.48 352.192C1283.44 352.192 1284.21 351.866 1284.78 351.212C1285.37 350.559 1285.66 349.712 1285.66 348.672C1285.66 347.632 1285.37 346.786 1284.78 346.132C1284.21 345.479 1283.44 345.152 1282.48 345.152C1281.52 345.152 1280.75 345.479 1280.16 346.132C1279.59 346.786 1279.3 347.632 1279.3 348.672ZM1289.44 350.912H1291.02V353.212H1289.44V350.912ZM1297.94 353.452C1296.59 353.452 1295.51 353.079 1294.7 352.332C1293.9 351.586 1293.45 350.612 1293.36 349.412H1294.76C1294.85 350.266 1295.18 350.946 1295.74 351.452C1296.31 351.946 1297.04 352.192 1297.94 352.192C1298.94 352.192 1299.72 351.866 1300.3 351.212C1300.87 350.559 1301.16 349.706 1301.16 348.652C1301.16 347.599 1300.87 346.746 1300.3 346.092C1299.72 345.439 1298.94 345.112 1297.94 345.112C1297.16 345.112 1296.54 345.279 1296.08 345.612C1295.61 345.932 1295.22 346.406 1294.92 347.032H1293.64L1294.82 338.812H1301.98V340.072H1295.94L1295.22 344.932C1295.98 344.212 1296.92 343.852 1298.04 343.852C1299.01 343.852 1299.84 344.059 1300.52 344.472C1301.21 344.886 1301.73 345.459 1302.08 346.192C1302.44 346.912 1302.62 347.732 1302.62 348.652C1302.62 349.572 1302.43 350.399 1302.06 351.132C1301.7 351.852 1301.16 352.419 1300.46 352.832C1299.75 353.246 1298.91 353.452 1297.94 353.452ZM1309.55 338.812H1310.93V348.052L1316.19 342.812H1317.95L1313.83 346.872L1318.27 353.212H1316.65L1312.87 347.812L1310.93 349.732V353.212H1309.55V338.812ZM1333.41 346.572C1333.41 345.706 1333.19 345.026 1332.75 344.532C1332.32 344.039 1331.74 343.792 1331.01 343.792C1330.56 343.792 1330.1 343.912 1329.65 344.152C1329.21 344.379 1328.84 344.766 1328.53 345.312C1328.24 345.846 1328.09 346.539 1328.09 347.392V353.212H1326.75V346.572C1326.75 345.706 1326.53 345.026 1326.09 344.532C1325.66 344.039 1325.08 343.792 1324.35 343.792C1323.9 343.792 1323.44 343.912 1322.99 344.152C1322.55 344.379 1322.18 344.766 1321.87 345.312C1321.58 345.846 1321.43 346.539 1321.43 347.392V353.212H1320.09V342.812H1321.37V344.472C1322.05 343.206 1323.12 342.572 1324.59 342.572C1325.38 342.572 1326.04 342.772 1326.59 343.172C1327.14 343.572 1327.54 344.106 1327.79 344.772C1328.11 344.106 1328.56 343.572 1329.13 343.172C1329.7 342.772 1330.41 342.572 1331.25 342.572C1331.98 342.572 1332.61 342.746 1333.13 343.092C1333.66 343.439 1334.06 343.906 1334.33 344.492C1334.61 345.079 1334.75 345.726 1334.75 346.432V353.212H1333.41V346.572Z" fill="white"/>
<path d="M1300.6 777.492L1297.3 779.932V778.332L1300.7 775.812H1302V790.212H1300.6V777.492ZM1309.55 775.812H1310.93V785.052L1316.19 779.812H1317.95L1313.83 783.872L1318.27 790.212H1316.65L1312.87 784.812L1310.93 786.732V790.212H1309.55V775.812ZM1333.41 783.572C1333.41 782.706 1333.19 782.026 1332.75 781.532C1332.32 781.039 1331.74 780.792 1331.01 780.792C1330.56 780.792 1330.1 780.912 1329.65 781.152C1329.21 781.379 1328.84 781.766 1328.53 782.312C1328.24 782.846 1328.09 783.539 1328.09 784.392V790.212H1326.75V783.572C1326.75 782.706 1326.53 782.026 1326.09 781.532C1325.66 781.039 1325.08 780.792 1324.35 780.792C1323.9 780.792 1323.44 780.912 1322.99 781.152C1322.55 781.379 1322.18 781.766 1321.87 782.312C1321.58 782.846 1321.43 783.539 1321.43 784.392V790.212H1320.09V779.812H1321.37V781.472C1322.05 780.206 1323.12 779.572 1324.59 779.572C1325.38 779.572 1326.04 779.772 1326.59 780.172C1327.14 780.572 1327.54 781.106 1327.79 781.772C1328.11 781.106 1328.56 780.572 1329.13 780.172C1329.7 779.772 1330.41 779.572 1331.25 779.572C1331.98 779.572 1332.61 779.746 1333.13 780.092C1333.66 780.439 1334.06 780.906 1334.33 781.492C1334.61 782.079 1334.75 782.726 1334.75 783.432V790.212H1333.41V783.572Z" fill="white"/>
<path d="M1297.4 912.452C1295.67 912.452 1294.41 911.792 1293.64 910.472C1292.88 909.139 1292.5 907.319 1292.5 905.012C1292.5 902.706 1292.88 900.892 1293.64 899.572C1294.41 898.239 1295.67 897.572 1297.4 897.572C1299.13 897.572 1300.38 898.239 1301.14 899.572C1301.91 900.892 1302.3 902.706 1302.3 905.012C1302.3 907.319 1301.91 909.139 1301.14 910.472C1300.38 911.792 1299.13 912.452 1297.4 912.452ZM1293.94 905.012C1293.94 906.959 1294.21 908.479 1294.74 909.572C1295.27 910.652 1296.16 911.192 1297.4 911.192C1298.64 911.192 1299.53 910.652 1300.06 909.572C1300.59 908.479 1300.86 906.959 1300.86 905.012C1300.86 903.066 1300.59 901.552 1300.06 900.472C1299.53 899.379 1298.64 898.832 1297.4 898.832C1296.16 898.832 1295.27 899.379 1294.74 900.472C1294.21 901.552 1293.94 903.066 1293.94 905.012ZM1309.55 897.812H1310.93V907.052L1316.19 901.812H1317.95L1313.83 905.872L1318.27 912.212H1316.65L1312.87 906.812L1310.93 908.732V912.212H1309.55V897.812ZM1333.41 905.572C1333.41 904.706 1333.19 904.026 1332.75 903.532C1332.32 903.039 1331.74 902.792 1331.01 902.792C1330.56 902.792 1330.1 902.912 1329.65 903.152C1329.21 903.379 1328.84 903.766 1328.53 904.312C1328.24 904.846 1328.09 905.539 1328.09 906.392V912.212H1326.75V905.572C1326.75 904.706 1326.53 904.026 1326.09 903.532C1325.66 903.039 1325.08 902.792 1324.35 902.792C1323.9 902.792 1323.44 902.912 1322.99 903.152C1322.55 903.379 1322.18 903.766 1321.87 904.312C1321.58 904.846 1321.43 905.539 1321.43 906.392V912.212H1320.09V901.812H1321.37V903.472C1322.05 902.206 1323.12 901.572 1324.59 901.572C1325.38 901.572 1326.04 901.772 1326.59 902.172C1327.14 902.572 1327.54 903.106 1327.79 903.772C1328.11 903.106 1328.56 902.572 1329.13 902.172C1329.7 901.772 1330.41 901.572 1331.25 901.572C1331.98 901.572 1332.61 901.746 1333.13 902.092C1333.66 902.439 1334.06 902.906 1334.33 903.492C1334.61 904.079 1334.75 904.726 1334.75 905.432V912.212H1333.41V905.572Z" fill="white"/>
<path d="M434.395 944.006C434.213 943.576 433.478 942.59 432.74 941.539C431.882 940.317 431.146 939.255 430.163 938.265C429.266 937.363 428.2 937.091 427.033 936.75C425.736 936.371 424.395 935.979 419.221 935.914C417.367 935.891 416.413 936.346 415.429 936.593C414.939 936.716 414.324 936.779 413.833 936.657C412.967 936.442 414.685 934.808 415.087 933.818C415.509 932.777 415.853 931.536 415.917 929.099C415.954 927.715 415.061 926.655 414.323 925.666C413.615 924.715 412.608 923.876 411.562 923.224C410.518 922.575 409.293 922.082 407.788 921.464C406.355 920.876 403.956 920.722 400.123 920.69C398.452 920.676 397.32 921.584 396.615 921.709C396.333 921.759 396.213 921.345 396.211 921.034C396.204 919.76 396.884 918.565 397.162 917.268C397.419 916.069 397.132 915.041 396.949 914.579C396.535 913.535 394.688 911.839 393.329 910.687C392.43 909.925 390.272 908.686 388.572 907.907C387.476 907.404 385.966 907.011 383.329 906.978C381.694 906.958 378.916 908.667 376.97 909.939C376.603 910.18 376.327 910.524 376.049 910.773C375.771 911.022 375.527 911.206 375.25 910.872C373.652 908.949 373.443 907.326 372.273 906.64C370.944 905.861 369.144 907.255 367.334 907.841C365.797 908.338 364.109 909.045 363.156 909.417C362.688 909.599 362.326 910.035 361.806 910.067C360.288 910.162 360.057 907.448 359.563 906.396C359.316 905.871 358.888 905.345 358.429 904.79C356.986 903.044 353.306 904.291 351.954 904.384C350.829 904.462 349.501 904.724 347.903 905.063C347.226 905.206 346.429 905.525 345.601 905.987C344.297 906.716 343.85 909.531 343.356 910.988C342.744 912.793 342.558 914.044 342.342 915.647C342.056 917.772 342.372 919.421 342.342 919.761C342.261 920.692 338.771 917.524 336.821 916.369C335.812 915.771 334.826 915.534 333.201 915.563C331.673 915.59 330.653 917.443 329.607 918.463C328.494 919.548 327.765 920.778 326.783 922.69C326.209 923.806 325.982 924.854 325.737 926.182C325.415 927.919 325.673 930.164 325.889 931.217C325.939 931.462 325.92 931.71 325.798 931.836C325.199 932.457 323.596 931.287 322.119 930.974C320.864 930.708 318.689 930.113 316.993 929.893C314.648 929.59 312.052 930.105 311.159 930.878C310.17 931.733 309.411 933.555 308.977 935.138C308.671 936.468 308.363 937.209 308.21 937.702C308.118 937.95 307.997 938.195 307.871 938.632" stroke="#7E7E7E" stroke-width="2" stroke-linecap="round"/>
<path d="M1055.58 888.712L1114.72 919.212" stroke="#818181"/>
<path d="M737.015 695.212C769.319 622.712 838.399 663.712 844.362 695.212M737.015 695.212L789.198 738.712M737.015 695.212C739.108 689.29 745.092 682.398 753.416 676.533M844.362 695.212C839.687 687.394 834.504 681.252 829.014 676.533M844.362 695.212L789.198 738.712M789.198 738.712L753.416 676.533M789.198 738.712L772.798 666.739M789.198 738.712L809.077 665.485M789.198 738.712L829.014 676.533M753.416 676.533C758.984 672.61 765.599 669.146 772.798 666.739M772.798 666.739C784.055 662.975 796.739 661.796 809.077 665.485M809.077 665.485C815.931 667.535 822.678 671.087 829.014 676.533" stroke="white"/>
<path d="M887.102 722.627C919.406 650.127 988.486 691.127 994.449 722.627M887.102 722.627L939.285 766.127M887.102 722.627C889.195 716.705 895.179 709.813 903.503 703.948M994.449 722.627C989.774 714.808 984.592 708.667 979.101 703.948M994.449 722.627L939.285 766.127M939.285 766.127L903.503 703.948M939.285 766.127L922.885 694.154M939.285 766.127L959.164 692.9M939.285 766.127L979.101 703.948M903.503 703.948C909.071 700.024 915.686 696.561 922.885 694.154M922.885 694.154C934.142 690.39 946.826 689.21 959.164 692.9M959.164 692.9C966.018 694.949 972.765 698.501 979.101 703.948" stroke="white"/>
<path d="M713.161 303.213C710.775 310.813 720.45 323.046 725.585 328.213C738.308 315.013 740.494 306.046 739.997 303.213C743.178 298.813 739.997 297.046 738.009 296.713C727.275 283.513 717.965 291.213 714.651 296.713C708.688 298.713 711.173 301.879 713.161 303.213Z" fill="#B6B6B6"/>
<path d="M725.585 328.213C720.45 323.046 710.775 310.813 713.161 303.213C711.173 301.879 708.688 298.713 714.651 296.713C717.965 291.213 727.275 283.513 738.009 296.713C739.997 297.046 743.178 298.813 739.997 303.213C740.494 306.046 738.308 315.013 725.585 328.213ZM725.585 328.213V362.713" stroke="#B6B6B6"/>
<path d="M366.271 935.212C361.5 926.012 364.283 921.046 366.271 919.712L370.247 920.212C372.632 926.212 368.59 932.712 366.271 935.212Z" fill="#D9D9D9"/>
<path d="M394.598 710.212C392.213 668.212 396.089 666.712 399.568 661.712L402.55 662.212C406.029 671.712 399.071 697.546 394.598 710.212Z" fill="#D9D9D9"/>
<path d="M479.085 165.212L472.127 162.212L480.575 138.712C483.359 131.912 489.024 125.212 491.509 122.712C491.509 131.512 488.527 140.712 487.036 144.212L479.085 165.212Z" fill="white" stroke="white"/>
<path d="M639.608 43.7124L632.65 40.7124L641.099 17.2124C643.882 10.4124 649.548 3.7124 652.032 1.2124C652.032 10.0124 649.051 19.2124 647.56 22.7124L639.608 43.7124Z" fill="white" stroke="white"/>
<path d="M822.495 164.712L815.538 161.712L823.986 138.212C826.769 131.412 832.435 124.712 834.92 122.212C834.92 131.012 831.938 140.212 830.447 143.712L822.495 164.712Z" fill="white" stroke="white"/>
<path d="M849.069 352.262L849.095 344.646L873.897 343.288C881.206 343.209 889.55 345.838 892.808 347.162C884.757 350.601 875.174 351.434 871.39 351.421L849.069 352.262Z" fill="white" stroke="white"/>
<path d="M935.554 766.607L943.112 767.032L943.162 792.022C942.858 799.369 939.812 807.615 938.327 810.819C935.335 802.55 935.01 792.878 935.221 789.076L935.554 766.607Z" fill="white" stroke="white"/>
<path d="M942.296 951.64L943.506 944.122L968.214 946.685C975.445 947.756 983.277 951.666 986.29 953.487C977.803 955.616 968.208 954.931 964.472 954.322L942.296 951.64Z" fill="white" stroke="white"/>
<path d="M730.555 363.712H722.106L722.603 441.212L715.645 451.712V458.212H722.603L723.597 465.212H729.561L730.555 458.212H738.009V451.712L730.555 441.212V363.712Z" fill="white" stroke="white"/>
<path d="M793.671 739.212H785.222L785.719 816.712L778.762 827.212V833.712H785.719L786.713 840.712H792.677L793.671 833.712H801.125V827.212L793.671 816.712V739.212Z" fill="white" stroke="white"/>
<path d="M780.32 941.672L779.437 950.125L856.098 957.729L865.75 965.788L872.176 966.467L872.903 959.506L879.926 959.243L880.55 953.276L873.734 951.549L874.513 944.091L868.088 943.411L856.929 949.772L780.32 941.672Z" fill="white" stroke="white"/>
<path d="M432.369 452.712H427.399L426.405 446.712H418.95V439.712L428.393 427.712L438.332 351.212H446.781L436.344 428.712L441.811 439.712V446.712H433.363L432.369 452.712Z" fill="white"/>
<path d="M452.248 310.212L450.26 328.212L442.805 327.712L444.793 310.212C445.588 303.012 450.094 290.546 452.248 285.212C453.44 298.812 452.745 307.546 452.248 310.212Z" fill="white"/>
<path d="M404.538 661.712L397.58 661.212V653.712H391.12V646.712L399.568 636.712L410.999 538.212C412.191 530.212 416.465 519.546 418.453 515.212C420.441 531.212 419.613 541.212 418.95 544.212L408.017 638.212L412.987 648.712V654.712L405.035 655.212L404.538 661.712Z" fill="white" stroke="white"/>
<path d="M371.737 919.712L364.78 919.212V911.712H358.319V904.712L366.768 894.712L378.198 796.212C379.391 788.212 383.665 777.546 385.653 773.212C387.641 789.212 386.812 799.212 386.15 802.212L375.216 896.212L380.186 906.712V912.712L372.234 913.212L371.737 919.712Z" fill="white" stroke="white"/>
<path d="M405.532 769.212L394.101 768.212M405.532 769.212L404.276 779.712M405.532 769.212L392.772 779.212M394.101 768.212L392.772 779.212M394.101 768.212L404.276 779.712M378.695 895.712L374.222 939.212L408.514 940.712V931.212H386.15L390.397 895.712M378.695 895.712H390.397M378.695 895.712L379.843 886.212M378.695 895.712L391.534 886.212M390.397 895.712L391.534 886.212M390.397 895.712L379.843 886.212M391.534 886.212H379.843M391.534 886.212L381.112 875.712M391.534 886.212L392.79 875.712M379.843 886.212L381.112 875.712M379.843 886.212L392.79 875.712M381.112 875.712H392.79M381.112 875.712L382.381 865.212M381.112 875.712L394.046 865.212M392.79 875.712L382.381 865.212M392.79 875.712L394.046 865.212M382.381 865.212H394.046M382.381 865.212L383.649 854.712M382.381 865.212L395.302 854.712M394.046 865.212L383.649 854.712M394.046 865.212L395.302 854.712M383.649 854.712H395.302M383.649 854.712L385.039 843.212M383.649 854.712L396.619 843.712M395.302 854.712L396.619 843.712M395.302 854.712L385.039 843.212M385.039 843.212L396.619 843.712M385.039 843.212L397.935 832.712M385.039 843.212L386.308 832.712M396.619 843.712L397.935 832.712M396.619 843.712L386.308 832.712M397.935 832.712H386.308M397.935 832.712L387.576 822.212M397.935 832.712L399.191 822.212M386.308 832.712L387.576 822.212M386.308 832.712L399.191 822.212M387.576 822.212H399.191M387.576 822.212L388.845 811.712M387.576 822.212L400.447 811.712M399.191 822.212L388.845 811.712M399.191 822.212L400.447 811.712M388.845 811.712H400.447M388.845 811.712L390.114 801.212M388.845 811.712L401.703 801.212M400.447 811.712L390.114 801.212M400.447 811.712L401.703 801.212M390.114 801.212H401.703M390.114 801.212L391.443 790.212M390.114 801.212L403.019 790.212M401.703 801.212L391.443 790.212M401.703 801.212L403.019 790.212M391.443 790.212H403.019M391.443 790.212L404.276 779.712M391.443 790.212L392.772 779.212M403.019 790.212L404.276 779.712M403.019 790.212L392.772 779.212M404.276 779.712L392.772 779.212" stroke="white"/>
<path d="M235.069 909.712L243.517 923.212L235.069 936.712L226.62 923.212L235.069 909.712V872.712H229.602V855.712H233.578V849.712H234.572L233.578 845.712L228.608 840.712C227.78 839.879 226.72 838.512 229.105 839.712L232.584 841.212L237.057 836.212H238.548L238.051 837.712L234.572 842.212L236.063 843.712L244.511 837.712L245.008 840.712H248.487L239.542 848.212L241.033 850.212L242.027 851.212L247.99 848.212L249.481 848.712L248.984 849.712L243.02 853.212C244.511 854.879 246.897 858.012 244.511 857.212L238.548 851.212H237.057V856.212H240.039V872.712H235.069V909.712Z" fill="#B9B9B9"/>
<path d="M218.172 936.712L226.62 923.212M251.966 936.712L243.517 923.212M243.517 923.212L235.069 909.712L226.62 923.212M243.517 923.212L235.069 936.712M235.069 936.712L226.62 923.212M235.069 936.712V872.712M235.069 872.712H229.602V855.712H233.578V849.712H234.572L233.578 845.712L228.608 840.712C227.78 839.879 226.72 838.512 229.105 839.712L232.584 841.212L237.057 836.212H238.548L238.051 837.712L234.572 842.212L236.063 843.712L244.511 837.712L245.008 840.712H248.487L239.542 848.212L241.033 850.212L242.027 851.212L247.99 848.212L249.481 848.712L248.984 849.712L243.02 853.212C244.511 854.879 246.897 858.012 244.511 857.212L238.548 851.212H237.057V856.212H240.039V872.712H235.069ZM249.481 820.712C254.285 820.712 264.192 823.212 265.384 833.212M296.694 817.212C296.528 807.379 290.034 787.212 265.384 785.212M342.416 794.212C343.907 773.712 329.693 737.712 286.754 735.712" stroke="#B9B9B9"/>
<path d="M91.9395 939.713C183.718 933.84 398.664 930.937 538.225 964.954M538.225 964.954C541.242 965.689 544.225 966.442 547.17 967.213C686.324 1003.61 599.187 980.874 538.225 964.954Z" stroke="white"/>
<path d="M1030.73 943.712L1044.64 961.212H1139.07V949.212V943.712H1132.61V931.712H1123.17V919.712H1108.75V931.712H1100.31V943.712H1030.73Z" fill="#818181" stroke="white"/>
<path d="M1044.64 961.712L1030.73 943.712H1095.34M1139.07 949.212V943.712H1132.61V931.212H1123.17V919.212H1108.75V931.212H1100.31V937.462M1095.34 943.712H1100.31V937.462M1095.34 943.712L1097.32 934.212L1087.88 936.379M1095.34 943.712L1087.88 936.379M1072.97 921.712L1081.1 929.712M1072.97 921.712L1085.4 918.212L1081.1 929.712M1072.97 921.712L1077.44 909.107M1072.97 921.712L1066.23 912.212M1050.61 890.212L1053.59 887.212M1050.61 890.212L1052.38 892.712M1050.61 890.212L1050.11 943.212M1053.59 887.212L1057.95 891.212M1053.59 887.212L1052.38 892.712M1100.31 937.462L1091.77 926.212M1087.88 936.379L1091.77 926.212M1087.88 936.379L1081.1 929.712M1091.77 926.212L1081.92 913.212L1077.44 909.107M1091.77 926.212L1081.1 929.712M1077.44 909.107L1066.23 912.212M1077.44 909.107L1069.93 902.212M1066.23 912.212L1069.93 902.212M1066.23 912.212L1060.55 904.212M1069.93 902.212L1060.55 904.212M1069.93 902.212L1063.03 895.879M1060.55 904.212L1063.03 895.879M1060.55 904.212L1055.77 897.487M1063.03 895.879L1055.77 897.487M1063.03 895.879L1057.95 891.212M1055.77 897.487L1057.95 891.212M1055.77 897.487L1052.38 892.712M1057.95 891.212L1052.38 892.712" stroke="#818181"/>
<path d="M675.39 961.714C604.323 945.213 583.45 946.714 541.704 964.214V967.212H1238.96V961.714C1189.26 941.714 1124.16 949.213 1042.16 961.714C899.03 941.713 933.818 957.213 852.811 961.714C694.772 932.712 779.258 964.212 675.39 961.714Z" fill="#D9D9D9" stroke="#D9D9D9"/>
<path d="M366.271 943.711L449.266 312.212M449.266 312.212C451.627 288.212 626.19 70.7122 727.573 337.212L817.526 951.711M449.266 312.212C478.588 -49.2878 750.434 -40.2871 833.429 166.71L964.134 932.21" stroke="white" stroke-dasharray="25 25"/>
<path d="M96.4123 892.212H87.4667L82 900.712L87.4667 909.712H96.9093L101.382 900.712L96.4123 892.212Z" fill="white" stroke="white"/>
<path d="M96.4123 606.212H87.4667L82 614.712L87.4667 623.712H96.9093L101.382 614.712L96.4123 606.212Z" fill="white" stroke="white"/>
<path d="M97.4063 333.212H88.4607L82.9939 341.712L88.4607 350.712H97.9033L102.376 341.712L97.4063 333.212Z" fill="white" stroke="white"/>
<path d="M97.4063 123.212H88.4607L82.9939 131.712L88.4607 140.712H97.9033L102.376 131.712L97.4063 123.212Z" fill="white" stroke="white"/>
<path d="M97.4063 250.212H88.4607L82.9939 258.712L88.4607 267.712H97.9033L102.376 258.712L97.4063 250.212Z" fill="white" stroke="white"/>
<path d="M91.9395 893.212V30.7124" stroke="white"/>
<path d="M96.4123 17.2124H87.4667L82 25.7124L87.4667 34.7124H96.9093L101.382 25.7124L96.4123 17.2124Z" fill="white" stroke="white"/>
<path d="M1244.43 892.212H1235.48L1230.02 900.712L1235.48 909.712H1244.93L1249.4 900.712L1244.43 892.212Z" fill="white" stroke="white"/>
<path d="M1246.42 773.212H1237.47L1232 781.712L1237.47 790.712H1246.91L1251.39 781.712L1246.42 773.212Z" fill="white" stroke="white"/>
<path d="M1245.42 333.212H1236.48L1231.01 341.712L1236.48 350.712H1245.92L1250.39 341.712L1245.42 333.212Z" fill="white" stroke="white"/>
<path d="M1245.42 250.212H1236.48L1231.01 258.712L1236.48 267.712H1245.92L1250.39 258.712L1245.42 250.212Z" fill="white" stroke="white"/>
<path d="M1239.96 893.212V30.7124" stroke="white"/>
<path d="M1244.43 17.2124H1235.48L1230.02 25.7124L1235.48 34.7124H1244.93L1249.4 25.7124L1244.43 17.2124Z" fill="white" stroke="white"/>
<path d="M120.658 893.812H122.038V906.952H129.418V908.212H120.658V893.812ZM131.644 893.812H133.024V908.212H131.644V893.812ZM136.145 893.812H145.545V895.072H137.525V900.072H145.145V901.332H137.525V908.212H136.145V893.812ZM151.856 895.072H146.836V893.812H158.296V895.072H153.276V908.212H151.856V895.072ZM171.24 908.452C169.8 908.452 168.573 908.119 167.56 907.452C166.546 906.772 165.78 905.872 165.26 904.752C164.753 903.619 164.5 902.372 164.5 901.012C164.5 899.652 164.753 898.412 165.26 897.292C165.78 896.159 166.546 895.259 167.56 894.592C168.573 893.912 169.8 893.572 171.24 893.572C172.693 893.572 173.926 893.906 174.94 894.572C175.953 895.239 176.713 896.139 177.22 897.272C177.726 898.406 177.98 899.652 177.98 901.012C177.98 902.372 177.726 903.619 177.22 904.752C176.713 905.886 175.953 906.786 174.94 907.452C173.926 908.119 172.693 908.452 171.24 908.452ZM165.96 901.012C165.96 902.146 166.153 903.179 166.54 904.112C166.926 905.046 167.513 905.786 168.3 906.332C169.1 906.879 170.08 907.152 171.24 907.152C172.413 907.152 173.393 906.879 174.18 906.332C174.98 905.786 175.573 905.046 175.96 904.112C176.346 903.179 176.54 902.146 176.54 901.012C176.54 899.879 176.346 898.846 175.96 897.912C175.573 896.979 174.98 896.239 174.18 895.692C173.393 895.146 172.413 894.872 171.24 894.872C170.08 894.872 169.1 895.146 168.3 895.692C167.513 896.239 166.926 896.979 166.54 897.912C166.153 898.846 165.96 899.879 165.96 901.012ZM180.538 893.812H189.938V895.072H181.918V900.072H189.538V901.332H181.918V908.212H180.538V893.812ZM192.149 893.812H201.549V895.072H193.529V900.072H201.149V901.332H193.529V908.212H192.149V893.812Z" fill="white"/>
<path d="M125.52 324.452C123.8 324.452 122.413 324.046 121.36 323.232C120.307 322.406 119.74 321.139 119.66 319.432H121.1C121.153 320.752 121.58 321.712 122.38 322.312C123.18 322.899 124.227 323.192 125.52 323.192C126.707 323.192 127.64 322.946 128.32 322.452C129.013 321.946 129.36 321.239 129.36 320.332C129.36 319.826 129.247 319.406 129.02 319.072C128.793 318.739 128.373 318.439 127.76 318.172C127.16 317.906 126.273 317.652 125.1 317.412C123.913 317.172 122.96 316.886 122.24 316.552C121.533 316.219 121.007 315.792 120.66 315.272C120.327 314.739 120.16 314.066 120.16 313.252C120.16 312.519 120.367 311.879 120.78 311.332C121.193 310.772 121.767 310.339 122.5 310.032C123.233 309.726 124.067 309.572 125 309.572C126.8 309.572 128.153 310.006 129.06 310.872C129.98 311.726 130.453 312.846 130.48 314.232H129.06C128.94 311.966 127.587 310.832 125 310.832C123.973 310.832 123.147 311.059 122.52 311.512C121.907 311.952 121.6 312.532 121.6 313.252C121.6 313.786 121.7 314.219 121.9 314.552C122.1 314.886 122.487 315.186 123.06 315.452C123.633 315.706 124.5 315.946 125.66 316.172C127.033 316.452 128.093 316.786 128.84 317.172C129.587 317.559 130.1 318.006 130.38 318.512C130.66 319.006 130.8 319.612 130.8 320.332C130.8 321.146 130.58 321.866 130.14 322.492C129.713 323.106 129.1 323.586 128.3 323.932C127.5 324.279 126.573 324.452 125.52 324.452ZM133.143 309.812H142.943V311.072H134.523V316.072H142.343V317.332H134.523V322.952H142.943V324.212H133.143V309.812ZM145.34 309.812H151C152.04 309.812 152.92 310.006 153.64 310.392C154.373 310.766 154.92 311.279 155.28 311.932C155.653 312.586 155.84 313.319 155.84 314.132C155.84 314.946 155.653 315.679 155.28 316.332C154.92 316.986 154.373 317.506 153.64 317.892C152.92 318.266 152.04 318.452 151 318.452H146.72V324.212H145.34V309.812ZM151 317.192C152.106 317.192 152.946 316.912 153.52 316.352C154.106 315.779 154.4 315.039 154.4 314.132C154.4 313.226 154.106 312.492 153.52 311.932C152.946 311.359 152.106 311.072 151 311.072H146.72V317.192H151ZM167.595 319.992H160.595L158.915 324.212H157.435L163.335 309.812H164.855L170.755 324.212H169.275L167.595 319.992ZM167.075 318.712L164.095 311.252L161.115 318.712H167.075ZM172.858 309.812H178.678C180.265 309.812 181.465 310.172 182.278 310.892C183.105 311.599 183.518 312.586 183.518 313.852C183.518 314.599 183.318 315.279 182.918 315.892C182.518 316.492 181.912 316.966 181.098 317.312C182.165 317.646 182.798 318.439 182.998 319.692L183.718 324.212H182.278L181.718 320.412C181.585 319.532 181.298 318.892 180.858 318.492C180.418 318.079 179.718 317.872 178.758 317.872H174.238V324.212H172.858V309.812ZM178.678 316.612C179.812 316.612 180.665 316.366 181.238 315.872C181.812 315.379 182.098 314.706 182.098 313.852C182.098 312.986 181.812 312.306 181.238 311.812C180.665 311.319 179.812 311.072 178.678 311.072H174.238V316.612H178.678ZM195.191 319.992H188.191L186.511 324.212H185.031L190.931 309.812H192.451L198.351 324.212H196.871L195.191 319.992ZM194.671 318.712L191.691 311.252L188.711 318.712H194.671ZM204.555 311.072H199.535V309.812H210.995V311.072H205.975V324.212H204.555V311.072ZM213.199 309.812H214.579V324.212H213.199V309.812ZM223.861 324.452C222.421 324.452 221.194 324.119 220.181 323.452C219.167 322.772 218.401 321.872 217.881 320.752C217.374 319.619 217.121 318.372 217.121 317.012C217.121 315.652 217.374 314.412 217.881 313.292C218.401 312.159 219.167 311.259 220.181 310.592C221.194 309.912 222.421 309.572 223.861 309.572C225.314 309.572 226.547 309.906 227.561 310.572C228.574 311.239 229.334 312.139 229.841 313.272C230.347 314.406 230.601 315.652 230.601 317.012C230.601 318.372 230.347 319.619 229.841 320.752C229.334 321.886 228.574 322.786 227.561 323.452C226.547 324.119 225.314 324.452 223.861 324.452ZM218.581 317.012C218.581 318.146 218.774 319.179 219.161 320.112C219.547 321.046 220.134 321.786 220.921 322.332C221.721 322.879 222.701 323.152 223.861 323.152C225.034 323.152 226.014 322.879 226.801 322.332C227.601 321.786 228.194 321.046 228.581 320.112C228.967 319.179 229.161 318.146 229.161 317.012C229.161 315.879 228.967 314.846 228.581 313.912C228.194 312.979 227.601 312.239 226.801 311.692C226.014 311.146 225.034 310.872 223.861 310.872C222.701 310.872 221.721 311.146 220.921 311.692C220.134 312.239 219.547 312.979 219.161 313.912C218.774 314.846 218.581 315.879 218.581 317.012ZM234.539 311.692V324.212H233.159V309.812H234.839L243.139 322.312V309.812H244.539V324.212H242.839L234.539 311.692ZM256.12 324.452C255.2 324.452 254.394 324.279 253.7 323.932C253.02 323.586 252.5 323.119 252.14 322.532C251.78 321.932 251.6 321.272 251.6 320.552C251.6 319.539 251.894 318.706 252.48 318.052C253.067 317.399 253.887 316.766 254.94 316.152C254.5 315.672 254.16 315.279 253.92 314.972C253.694 314.666 253.514 314.326 253.38 313.952C253.247 313.579 253.18 313.152 253.18 312.672C253.18 312.046 253.334 311.499 253.64 311.032C253.947 310.552 254.354 310.192 254.86 309.952C255.38 309.699 255.947 309.572 256.56 309.572C257.187 309.572 257.754 309.699 258.26 309.952C258.78 310.192 259.194 310.552 259.5 311.032C259.807 311.499 259.96 312.046 259.96 312.672C259.96 313.499 259.7 314.199 259.18 314.772C258.66 315.332 257.927 315.892 256.98 316.452L260.52 320.412C261.067 319.386 261.354 318.206 261.38 316.872H262.66C262.62 318.632 262.22 320.159 261.46 321.452L263.92 324.212H262.14L260.64 322.532C260.08 323.146 259.414 323.619 258.64 323.952C257.88 324.286 257.04 324.452 256.12 324.452ZM253 320.532C253 321.279 253.274 321.912 253.82 322.432C254.367 322.939 255.134 323.192 256.12 323.192C256.84 323.192 257.507 323.052 258.12 322.772C258.747 322.479 259.294 322.066 259.76 321.532L255.8 317.132C254.894 317.666 254.2 318.186 253.72 318.692C253.24 319.199 253 319.812 253 320.532ZM254.56 312.672C254.56 313.166 254.674 313.599 254.9 313.972C255.127 314.332 255.527 314.839 256.1 315.492C256.9 315.039 257.507 314.606 257.92 314.192C258.347 313.766 258.56 313.259 258.56 312.672C258.56 312.112 258.374 311.659 258 311.312C257.627 310.952 257.147 310.772 256.56 310.772C255.987 310.772 255.507 310.952 255.12 311.312C254.747 311.659 254.56 312.112 254.56 312.672ZM120.36 334.812H126.02C127.06 334.812 127.94 335.006 128.66 335.392C129.393 335.766 129.94 336.279 130.3 336.932C130.673 337.586 130.86 338.319 130.86 339.132C130.86 339.946 130.673 340.679 130.3 341.332C129.94 341.986 129.393 342.506 128.66 342.892C127.94 343.266 127.06 343.452 126.02 343.452H121.74V349.212H120.36V334.812ZM126.02 342.192C127.127 342.192 127.967 341.912 128.54 341.352C129.127 340.779 129.42 340.039 129.42 339.132C129.42 338.226 129.127 337.492 128.54 336.932C127.967 336.359 127.127 336.072 126.02 336.072H121.74V342.192H126.02ZM133.475 334.812H139.295C140.882 334.812 142.082 335.172 142.895 335.892C143.722 336.599 144.135 337.586 144.135 338.852C144.135 339.599 143.935 340.279 143.535 340.892C143.135 341.492 142.528 341.966 141.715 342.312C142.782 342.646 143.415 343.439 143.615 344.692L144.335 349.212H142.895L142.335 345.412C142.202 344.532 141.915 343.892 141.475 343.492C141.035 343.079 140.335 342.872 139.375 342.872H134.855V349.212H133.475V334.812ZM139.295 341.612C140.428 341.612 141.282 341.366 141.855 340.872C142.428 340.379 142.715 339.706 142.715 338.852C142.715 337.986 142.428 337.306 141.855 336.812C141.282 336.319 140.428 336.072 139.295 336.072H134.855V341.612H139.295ZM152.828 349.452C151.388 349.452 150.161 349.119 149.148 348.452C148.134 347.772 147.368 346.872 146.848 345.752C146.341 344.619 146.088 343.372 146.088 342.012C146.088 340.652 146.341 339.412 146.848 338.292C147.368 337.159 148.134 336.259 149.148 335.592C150.161 334.912 151.388 334.572 152.828 334.572C154.281 334.572 155.514 334.906 156.528 335.572C157.541 336.239 158.301 337.139 158.808 338.272C159.314 339.406 159.568 340.652 159.568 342.012C159.568 343.372 159.314 344.619 158.808 345.752C158.301 346.886 157.541 347.786 156.528 348.452C155.514 349.119 154.281 349.452 152.828 349.452ZM147.548 342.012C147.548 343.146 147.741 344.179 148.128 345.112C148.514 346.046 149.101 346.786 149.888 347.332C150.688 347.879 151.668 348.152 152.828 348.152C154.001 348.152 154.981 347.879 155.768 347.332C156.568 346.786 157.161 346.046 157.548 345.112C157.934 344.179 158.128 343.146 158.128 342.012C158.128 340.879 157.934 339.846 157.548 338.912C157.161 337.979 156.568 337.239 155.768 336.692C154.981 336.146 154.001 335.872 152.828 335.872C151.668 335.872 150.688 336.146 149.888 336.692C149.101 337.239 148.514 337.979 148.128 338.912C147.741 339.846 147.548 340.879 147.548 342.012ZM162.126 334.812H167.786C168.826 334.812 169.706 335.006 170.426 335.392C171.16 335.766 171.706 336.279 172.066 336.932C172.44 337.586 172.626 338.319 172.626 339.132C172.626 339.946 172.44 340.679 172.066 341.332C171.706 341.986 171.16 342.506 170.426 342.892C169.706 343.266 168.826 343.452 167.786 343.452H163.506V349.212H162.126V334.812ZM167.786 342.192C168.893 342.192 169.733 341.912 170.306 341.352C170.893 340.779 171.186 340.039 171.186 339.132C171.186 338.226 170.893 337.492 170.306 336.932C169.733 336.359 168.893 336.072 167.786 336.072H163.506V342.192H167.786ZM180.541 349.452C178.808 349.452 177.455 348.979 176.481 348.032C175.521 347.086 175.041 345.712 175.041 343.912V334.812H176.421V343.912C176.421 345.366 176.775 346.446 177.481 347.152C178.201 347.846 179.221 348.192 180.541 348.192C181.861 348.192 182.875 347.846 183.581 347.152C184.301 346.446 184.661 345.366 184.661 343.912V334.812H186.061V343.912C186.061 345.712 185.575 347.086 184.601 348.032C183.641 348.979 182.288 349.452 180.541 349.452ZM188.981 334.812H190.361V347.952H197.741V349.212H188.981V334.812ZM205.127 349.452C203.407 349.452 202.02 349.046 200.967 348.232C199.914 347.406 199.347 346.139 199.267 344.432H200.707C200.76 345.752 201.187 346.712 201.987 347.312C202.787 347.899 203.834 348.192 205.127 348.192C206.314 348.192 207.247 347.946 207.927 347.452C208.62 346.946 208.967 346.239 208.967 345.332C208.967 344.826 208.854 344.406 208.627 344.072C208.4 343.739 207.98 343.439 207.367 343.172C206.767 342.906 205.88 342.652 204.707 342.412C203.52 342.172 202.567 341.886 201.847 341.552C201.14 341.219 200.614 340.792 200.267 340.272C199.934 339.739 199.767 339.066 199.767 338.252C199.767 337.519 199.974 336.879 200.387 336.332C200.8 335.772 201.374 335.339 202.107 335.032C202.84 334.726 203.674 334.572 204.607 334.572C206.407 334.572 207.76 335.006 208.667 335.872C209.587 336.726 210.06 337.846 210.087 339.232H208.667C208.547 336.966 207.194 335.832 204.607 335.832C203.58 335.832 202.754 336.059 202.127 336.512C201.514 336.952 201.207 337.532 201.207 338.252C201.207 338.786 201.307 339.219 201.507 339.552C201.707 339.886 202.094 340.186 202.667 340.452C203.24 340.706 204.107 340.946 205.267 341.172C206.64 341.452 207.7 341.786 208.447 342.172C209.194 342.559 209.707 343.006 209.987 343.512C210.267 344.006 210.407 344.612 210.407 345.332C210.407 346.146 210.187 346.866 209.747 347.492C209.32 348.106 208.707 348.586 207.907 348.932C207.107 349.279 206.18 349.452 205.127 349.452ZM212.75 334.812H214.13V349.212H212.75V334.812ZM223.411 349.452C221.971 349.452 220.745 349.119 219.731 348.452C218.718 347.772 217.951 346.872 217.431 345.752C216.925 344.619 216.671 343.372 216.671 342.012C216.671 340.652 216.925 339.412 217.431 338.292C217.951 337.159 218.718 336.259 219.731 335.592C220.745 334.912 221.971 334.572 223.411 334.572C224.865 334.572 226.098 334.906 227.111 335.572C228.125 336.239 228.885 337.139 229.391 338.272C229.898 339.406 230.151 340.652 230.151 342.012C230.151 343.372 229.898 344.619 229.391 345.752C228.885 346.886 228.125 347.786 227.111 348.452C226.098 349.119 224.865 349.452 223.411 349.452ZM218.131 342.012C218.131 343.146 218.325 344.179 218.711 345.112C219.098 346.046 219.685 346.786 220.471 347.332C221.271 347.879 222.251 348.152 223.411 348.152C224.585 348.152 225.565 347.879 226.351 347.332C227.151 346.786 227.745 346.046 228.131 345.112C228.518 344.179 228.711 343.146 228.711 342.012C228.711 340.879 228.518 339.846 228.131 338.912C227.745 337.979 227.151 337.239 226.351 336.692C225.565 336.146 224.585 335.872 223.411 335.872C222.251 335.872 221.271 336.146 220.471 336.692C219.685 337.239 219.098 337.979 218.711 338.912C218.325 339.846 218.131 340.879 218.131 342.012ZM234.09 336.692V349.212H232.71V334.812H234.39L242.69 347.312V334.812H244.09V349.212H242.39L234.09 336.692ZM256.951 349.452C255.231 349.452 253.845 349.046 252.791 348.232C251.738 347.406 251.171 346.139 251.091 344.432H252.531C252.585 345.752 253.011 346.712 253.811 347.312C254.611 347.899 255.658 348.192 256.951 348.192C258.138 348.192 259.071 347.946 259.751 347.452C260.445 346.946 260.791 346.239 260.791 345.332C260.791 344.826 260.678 344.406 260.451 344.072C260.225 343.739 259.805 343.439 259.191 343.172C258.591 342.906 257.705 342.652 256.531 342.412C255.345 342.172 254.391 341.886 253.671 341.552C252.965 341.219 252.438 340.792 252.091 340.272C251.758 339.739 251.591 339.066 251.591 338.252C251.591 337.519 251.798 336.879 252.211 336.332C252.625 335.772 253.198 335.339 253.931 335.032C254.665 334.726 255.498 334.572 256.431 334.572C258.231 334.572 259.585 335.006 260.491 335.872C261.411 336.726 261.885 337.846 261.911 339.232H260.491C260.371 336.966 259.018 335.832 256.431 335.832C255.405 335.832 254.578 336.059 253.951 336.512C253.338 336.952 253.031 337.532 253.031 338.252C253.031 338.786 253.131 339.219 253.331 339.552C253.531 339.886 253.918 340.186 254.491 340.452C255.065 340.706 255.931 340.946 257.091 341.172C258.465 341.452 259.525 341.786 260.271 342.172C261.018 342.559 261.531 343.006 261.811 343.512C262.091 344.006 262.231 344.612 262.231 345.332C262.231 346.146 262.011 346.866 261.571 347.492C261.145 348.106 260.531 348.586 259.731 348.932C258.931 349.279 258.005 349.452 256.951 349.452ZM264.574 334.812H274.374V336.072H265.954V341.072H273.774V342.332H265.954V347.952H274.374V349.212H264.574V334.812ZM282.931 349.452C281.491 349.452 280.264 349.119 279.251 348.452C278.238 347.772 277.471 346.872 276.951 345.752C276.444 344.619 276.191 343.372 276.191 342.012C276.191 340.652 276.444 339.412 276.951 338.292C277.471 337.159 278.238 336.259 279.251 335.592C280.264 334.912 281.491 334.572 282.931 334.572C283.998 334.572 284.944 334.792 285.771 335.232C286.598 335.672 287.264 336.279 287.771 337.052C288.291 337.826 288.631 338.699 288.791 339.672H287.371C287.184 338.552 286.691 337.639 285.891 336.932C285.104 336.226 284.118 335.872 282.931 335.872C281.771 335.872 280.791 336.146 279.991 336.692C279.204 337.239 278.618 337.979 278.231 338.912C277.844 339.846 277.651 340.879 277.651 342.012C277.651 343.146 277.844 344.179 278.231 345.112C278.618 346.046 279.204 346.786 279.991 347.332C280.791 347.879 281.771 348.152 282.931 348.152C284.184 348.152 285.211 347.766 286.011 346.992C286.824 346.206 287.311 345.192 287.471 343.952H288.871C288.751 344.992 288.431 345.932 287.911 346.772C287.404 347.599 286.724 348.252 285.871 348.732C285.018 349.212 284.038 349.452 282.931 349.452ZM295.509 336.072H290.489V334.812H301.949V336.072H296.929V349.212H295.509V336.072ZM304.153 334.812H305.533V349.212H304.153V334.812ZM314.815 349.452C313.375 349.452 312.148 349.119 311.135 348.452C310.121 347.772 309.355 346.872 308.835 345.752C308.328 344.619 308.075 343.372 308.075 342.012C308.075 340.652 308.328 339.412 308.835 338.292C309.355 337.159 310.121 336.259 311.135 335.592C312.148 334.912 313.375 334.572 314.815 334.572C316.268 334.572 317.501 334.906 318.515 335.572C319.528 336.239 320.288 337.139 320.795 338.272C321.301 339.406 321.555 340.652 321.555 342.012C321.555 343.372 321.301 344.619 320.795 345.752C320.288 346.886 319.528 347.786 318.515 348.452C317.501 349.119 316.268 349.452 314.815 349.452ZM309.535 342.012C309.535 343.146 309.728 344.179 310.115 345.112C310.501 346.046 311.088 346.786 311.875 347.332C312.675 347.879 313.655 348.152 314.815 348.152C315.988 348.152 316.968 347.879 317.755 347.332C318.555 346.786 319.148 346.046 319.535 345.112C319.921 344.179 320.115 343.146 320.115 342.012C320.115 340.879 319.921 339.846 319.535 338.912C319.148 337.979 318.555 337.239 317.755 336.692C316.968 336.146 315.988 335.872 314.815 335.872C313.655 335.872 312.675 336.146 311.875 336.692C311.088 337.239 310.501 337.979 310.115 338.912C309.728 339.846 309.535 340.879 309.535 342.012ZM325.493 336.692V349.212H324.113V334.812H325.793L334.093 347.312V334.812H335.493V349.212H333.793L325.493 336.692ZM120.36 359.812H125.78C127.34 359.812 128.52 360.166 129.32 360.872C130.133 361.579 130.54 362.499 130.54 363.632C130.54 364.326 130.38 364.939 130.06 365.472C129.74 365.992 129.267 366.406 128.64 366.712C129.467 366.992 130.087 367.432 130.5 368.032C130.927 368.632 131.14 369.352 131.14 370.192C131.14 371.406 130.727 372.379 129.9 373.112C129.073 373.846 127.873 374.212 126.3 374.212H120.36V359.812ZM126.34 372.952C127.46 372.952 128.307 372.712 128.88 372.232C129.453 371.739 129.74 371.059 129.74 370.192C129.74 369.326 129.453 368.652 128.88 368.172C128.307 367.692 127.46 367.452 126.34 367.452H121.74V372.952H126.34ZM125.84 366.192C126.96 366.192 127.793 365.966 128.34 365.512C128.9 365.046 129.18 364.419 129.18 363.632C129.18 362.846 128.9 362.226 128.34 361.772C127.793 361.306 126.96 361.072 125.84 361.072H121.74V366.192H125.84ZM142.556 369.992H135.556L133.876 374.212H132.396L138.296 359.812H139.816L145.716 374.212H144.236L142.556 369.992ZM142.036 368.712L139.056 361.252L136.076 368.712H142.036ZM147.82 359.812H149.2V372.952H156.58V374.212H147.82V359.812ZM158.806 359.812H160.186V372.952H167.566V374.212H158.806V359.812ZM175.092 374.452C173.359 374.452 172.005 373.979 171.032 373.032C170.072 372.086 169.592 370.712 169.592 368.912V359.812H170.972V368.912C170.972 370.366 171.325 371.446 172.032 372.152C172.752 372.846 173.772 373.192 175.092 373.192C176.412 373.192 177.425 372.846 178.132 372.152C178.852 371.446 179.212 370.366 179.212 368.912V359.812H180.612V368.912C180.612 370.712 180.125 372.086 179.152 373.032C178.192 373.979 176.839 374.452 175.092 374.452ZM187.632 361.072H182.612V359.812H194.072V361.072H189.052V374.212H187.632V361.072ZM196.276 359.812H206.076V361.072H197.656V366.072H205.476V367.332H197.656V372.952H206.076V374.212H196.276V359.812ZM213.052 359.812H217.552C219.099 359.812 220.399 360.132 221.452 360.772C222.519 361.399 223.312 362.259 223.832 363.352C224.366 364.432 224.632 365.652 224.632 367.012C224.632 368.372 224.366 369.599 223.832 370.692C223.312 371.772 222.519 372.632 221.452 373.272C220.399 373.899 219.099 374.212 217.552 374.212H213.052V359.812ZM217.552 372.952C218.806 372.952 219.852 372.692 220.692 372.172C221.546 371.652 222.172 370.946 222.572 370.052C222.986 369.159 223.192 368.146 223.192 367.012C223.192 365.879 222.986 364.866 222.572 363.972C222.172 363.079 221.546 362.372 220.692 361.852C219.852 361.332 218.806 361.072 217.552 361.072H214.432V372.952H217.552ZM227.163 359.812H236.963V361.072H228.543V366.072H236.363V367.332H228.543V372.952H236.963V374.212H227.163V359.812ZM239.36 359.812H245.02C246.06 359.812 246.94 360.006 247.66 360.392C248.393 360.766 248.94 361.279 249.3 361.932C249.673 362.586 249.86 363.319 249.86 364.132C249.86 364.946 249.673 365.679 249.3 366.332C248.94 366.986 248.393 367.506 247.66 367.892C246.94 368.266 246.06 368.452 245.02 368.452H240.74V374.212H239.36V359.812ZM245.02 367.192C246.127 367.192 246.967 366.912 247.54 366.352C248.127 365.779 248.42 365.039 248.42 364.132C248.42 363.226 248.127 362.492 247.54 361.932C246.967 361.359 246.127 361.072 245.02 361.072H240.74V367.192H245.02ZM252.475 359.812H253.855V372.952H261.235V374.212H252.475V359.812ZM269.621 374.452C268.181 374.452 266.954 374.119 265.941 373.452C264.927 372.772 264.161 371.872 263.641 370.752C263.134 369.619 262.881 368.372 262.881 367.012C262.881 365.652 263.134 364.412 263.641 363.292C264.161 362.159 264.927 361.259 265.941 360.592C266.954 359.912 268.181 359.572 269.621 359.572C271.074 359.572 272.307 359.906 273.321 360.572C274.334 361.239 275.094 362.139 275.601 363.272C276.107 364.406 276.361 365.652 276.361 367.012C276.361 368.372 276.107 369.619 275.601 370.752C275.094 371.886 274.334 372.786 273.321 373.452C272.307 374.119 271.074 374.452 269.621 374.452ZM264.341 367.012C264.341 368.146 264.534 369.179 264.921 370.112C265.307 371.046 265.894 371.786 266.681 372.332C267.481 372.879 268.461 373.152 269.621 373.152C270.794 373.152 271.774 372.879 272.561 372.332C273.361 371.786 273.954 371.046 274.341 370.112C274.727 369.179 274.921 368.146 274.921 367.012C274.921 365.879 274.727 364.846 274.341 363.912C273.954 362.979 273.361 362.239 272.561 361.692C271.774 361.146 270.794 360.872 269.621 360.872C268.461 360.872 267.481 361.146 266.681 361.692C265.894 362.239 265.307 362.979 264.921 363.912C264.534 364.846 264.341 365.879 264.341 367.012ZM283.579 368.292L277.899 359.812H279.499L284.279 367.052L289.059 359.812H290.659L284.959 368.312V374.212H283.579V368.292Z" fill="white"/>
<path d="M129.5 30.9924H122.5L120.82 35.2124H119.34L125.24 20.8124H126.76L132.66 35.2124H131.18L129.5 30.9924ZM128.98 29.7124L126 22.2524L123.02 29.7124H128.98ZM134.764 20.8124H140.424C141.464 20.8124 142.344 21.0057 143.064 21.3924C143.797 21.7657 144.344 22.2791 144.704 22.9324C145.077 23.5857 145.264 24.3191 145.264 25.1324C145.264 25.9457 145.077 26.6791 144.704 27.3324C144.344 27.9857 143.797 28.5057 143.064 28.8924C142.344 29.2657 141.464 29.4524 140.424 29.4524H136.144V35.2124H134.764V20.8124ZM140.424 28.1924C141.531 28.1924 142.371 27.9124 142.944 27.3524C143.531 26.7791 143.824 26.0391 143.824 25.1324C143.824 24.2257 143.531 23.4924 142.944 22.9324C142.371 22.3591 141.531 22.0724 140.424 22.0724H136.144V28.1924H140.424ZM154.039 35.4524C152.599 35.4524 151.372 35.1191 150.359 34.4524C149.345 33.7724 148.579 32.8724 148.059 31.7524C147.552 30.6191 147.299 29.3724 147.299 28.0124C147.299 26.6524 147.552 25.4124 148.059 24.2924C148.579 23.1591 149.345 22.2591 150.359 21.5924C151.372 20.9124 152.599 20.5724 154.039 20.5724C155.492 20.5724 156.725 20.9057 157.739 21.5724C158.752 22.2391 159.512 23.1391 160.019 24.2724C160.525 25.4057 160.779 26.6524 160.779 28.0124C160.779 29.3724 160.525 30.6191 160.019 31.7524C159.512 32.8857 158.752 33.7857 157.739 34.4524C156.725 35.1191 155.492 35.4524 154.039 35.4524ZM148.759 28.0124C148.759 29.1457 148.952 30.1791 149.339 31.1124C149.725 32.0457 150.312 32.7857 151.099 33.3324C151.899 33.8791 152.879 34.1524 154.039 34.1524C155.212 34.1524 156.192 33.8791 156.979 33.3324C157.779 32.7857 158.372 32.0457 158.759 31.1124C159.145 30.1791 159.339 29.1457 159.339 28.0124C159.339 26.8791 159.145 25.8457 158.759 24.9124C158.372 23.9791 157.779 23.2391 156.979 22.6924C156.192 22.1457 155.212 21.8724 154.039 21.8724C152.879 21.8724 151.899 22.1457 151.099 22.6924C150.312 23.2391 149.725 23.9791 149.339 24.9124C148.952 25.8457 148.759 26.8791 148.759 28.0124ZM169.497 35.4524C168.057 35.4524 166.831 35.1191 165.817 34.4524C164.804 33.7724 164.037 32.8724 163.517 31.7524C163.011 30.6191 162.757 29.3724 162.757 28.0124C162.757 26.6524 163.011 25.4124 163.517 24.2924C164.037 23.1591 164.804 22.2591 165.817 21.5924C166.831 20.9124 168.057 20.5724 169.497 20.5724C170.657 20.5724 171.684 20.7924 172.577 21.2324C173.471 21.6724 174.184 22.2791 174.717 23.0524C175.264 23.8124 175.617 24.6857 175.777 25.6724H174.357C174.171 24.5391 173.644 23.6257 172.777 22.9324C171.924 22.2257 170.831 21.8724 169.497 21.8724C168.337 21.8724 167.357 22.1457 166.557 22.6924C165.771 23.2391 165.184 23.9791 164.797 24.9124C164.411 25.8457 164.217 26.8791 164.217 28.0124C164.217 29.1457 164.411 30.1791 164.797 31.1124C165.184 32.0457 165.771 32.7857 166.557 33.3324C167.357 33.8791 168.337 34.1524 169.497 34.1524C171.004 34.1524 172.177 33.6991 173.017 32.7924C173.871 31.8724 174.391 30.6591 174.577 29.1524H168.897V27.8724H175.977V35.2124H174.737V32.2724C174.271 33.2724 173.604 34.0524 172.737 34.6124C171.884 35.1724 170.804 35.4524 169.497 35.4524ZM178.894 20.8124H188.694V22.0724H180.274V27.0724H188.094V28.3324H180.274V33.9524H188.694V35.2124H178.894V20.8124ZM191.09 20.8124H200.89V22.0724H192.47V27.0724H200.29V28.3324H192.47V33.9524H200.89V35.2124H191.09V20.8124Z" fill="white"/>
<path d="M1104.31 894.392C1103.02 894.392 1101.98 894.087 1101.19 893.477C1100.4 892.857 1099.97 891.907 1099.91 890.627H1100.99C1101.03 891.617 1101.35 892.337 1101.95 892.787C1102.55 893.227 1103.34 893.447 1104.31 893.447C1105.2 893.447 1105.9 893.262 1106.41 892.892C1106.93 892.512 1107.19 891.982 1107.19 891.302C1107.19 890.922 1107.1 890.607 1106.93 890.357C1106.76 890.107 1106.45 889.882 1105.99 889.682C1105.54 889.482 1104.87 889.292 1103.99 889.112C1103.1 888.932 1102.39 888.717 1101.85 888.467C1101.32 888.217 1100.92 887.897 1100.66 887.507C1100.41 887.107 1100.29 886.602 1100.29 885.992C1100.29 885.442 1100.44 884.962 1100.75 884.552C1101.06 884.132 1101.49 883.807 1102.04 883.577C1102.59 883.347 1103.22 883.232 1103.92 883.232C1105.27 883.232 1106.28 883.557 1106.96 884.207C1107.65 884.847 1108.01 885.687 1108.03 886.727H1106.96C1106.87 885.027 1105.86 884.177 1103.92 884.177C1103.15 884.177 1102.53 884.347 1102.06 884.687C1101.6 885.017 1101.37 885.452 1101.37 885.992C1101.37 886.392 1101.44 886.717 1101.59 886.967C1101.74 887.217 1102.03 887.442 1102.46 887.642C1102.89 887.832 1103.54 888.012 1104.41 888.182C1105.44 888.392 1106.24 888.642 1106.8 888.932C1107.36 889.222 1107.74 889.557 1107.95 889.937C1108.16 890.307 1108.27 890.762 1108.27 891.302C1108.27 891.912 1108.1 892.452 1107.77 892.922C1107.45 893.382 1106.99 893.742 1106.39 894.002C1105.79 894.262 1105.1 894.392 1104.31 894.392ZM1110.02 883.412H1114.27C1115.05 883.412 1115.71 883.557 1116.25 883.847C1116.8 884.127 1117.21 884.512 1117.48 885.002C1117.76 885.492 1117.9 886.042 1117.9 886.652C1117.9 887.262 1117.76 887.812 1117.48 888.302C1117.21 888.792 1116.8 889.182 1116.25 889.472C1115.71 889.752 1115.05 889.892 1114.27 889.892H1111.06V894.212H1110.02V883.412ZM1114.27 888.947C1115.1 888.947 1115.73 888.737 1116.16 888.317C1116.6 887.887 1116.82 887.332 1116.82 886.652C1116.82 885.972 1116.6 885.422 1116.16 885.002C1115.73 884.572 1115.1 884.357 1114.27 884.357H1111.06V888.947H1114.27ZM1119.86 883.412H1120.9V893.267H1126.43V894.212H1119.86V883.412ZM1134.96 891.047H1129.71L1128.45 894.212H1127.34L1131.76 883.412H1132.9L1137.33 894.212H1136.22L1134.96 891.047ZM1134.57 890.087L1132.33 884.492L1130.1 890.087H1134.57ZM1142.77 894.392C1141.48 894.392 1140.44 894.087 1139.65 893.477C1138.86 892.857 1138.44 891.907 1138.38 890.627H1139.46C1139.5 891.617 1139.82 892.337 1140.42 892.787C1141.02 893.227 1141.8 893.447 1142.77 893.447C1143.66 893.447 1144.36 893.262 1144.87 892.892C1145.39 892.512 1145.65 891.982 1145.65 891.302C1145.65 890.922 1145.57 890.607 1145.4 890.357C1145.23 890.107 1144.91 889.882 1144.45 889.682C1144 889.482 1143.34 889.292 1142.46 889.112C1141.57 888.932 1140.85 888.717 1140.31 888.467C1139.78 888.217 1139.39 887.897 1139.13 887.507C1138.88 887.107 1138.75 886.602 1138.75 885.992C1138.75 885.442 1138.91 884.962 1139.22 884.552C1139.53 884.132 1139.96 883.807 1140.51 883.577C1141.06 883.347 1141.68 883.232 1142.38 883.232C1143.73 883.232 1144.75 883.557 1145.43 884.207C1146.12 884.847 1146.47 885.687 1146.49 886.727H1145.43C1145.34 885.027 1144.32 884.177 1142.38 884.177C1141.61 884.177 1140.99 884.347 1140.52 884.687C1140.06 885.017 1139.83 885.452 1139.83 885.992C1139.83 886.392 1139.91 886.717 1140.06 886.967C1140.21 887.217 1140.5 887.442 1140.93 887.642C1141.36 887.832 1142.01 888.012 1142.88 888.182C1143.91 888.392 1144.7 888.642 1145.26 888.932C1145.82 889.222 1146.21 889.557 1146.42 889.937C1146.63 890.307 1146.73 890.762 1146.73 891.302C1146.73 891.912 1146.57 892.452 1146.24 892.922C1145.92 893.382 1145.46 893.742 1144.86 894.002C1144.26 894.262 1143.56 894.392 1142.77 894.392ZM1155.86 889.112H1149.53V894.212H1148.49V883.412H1149.53V888.137H1155.86V883.412H1156.91V894.212H1155.86V889.112ZM1159.25 883.412H1162.62C1163.78 883.412 1164.76 883.652 1165.55 884.132C1166.35 884.602 1166.94 885.247 1167.33 886.067C1167.73 886.877 1167.93 887.792 1167.93 888.812C1167.93 889.832 1167.73 890.752 1167.33 891.572C1166.94 892.382 1166.35 893.027 1165.55 893.507C1164.76 893.977 1163.78 894.212 1162.62 894.212H1159.25V883.412ZM1162.62 893.267C1163.56 893.267 1164.35 893.072 1164.98 892.682C1165.62 892.292 1166.09 891.762 1166.39 891.092C1166.7 890.422 1166.85 889.662 1166.85 888.812C1166.85 887.962 1166.7 887.202 1166.39 886.532C1166.09 885.862 1165.62 885.332 1164.98 884.942C1164.35 884.552 1163.56 884.357 1162.62 884.357H1160.28V893.267H1162.62ZM1174.45 894.392C1173.37 894.392 1172.45 894.142 1171.69 893.642C1170.93 893.132 1170.36 892.457 1169.97 891.617C1169.59 890.767 1169.4 889.832 1169.4 888.812C1169.4 887.792 1169.59 886.862 1169.97 886.022C1170.36 885.172 1170.93 884.497 1171.69 883.997C1172.45 883.487 1173.37 883.232 1174.45 883.232C1175.54 883.232 1176.47 883.482 1177.23 883.982C1177.99 884.482 1178.56 885.157 1178.94 886.007C1179.32 886.857 1179.51 887.792 1179.51 888.812C1179.51 889.832 1179.32 890.767 1178.94 891.617C1178.56 892.467 1177.99 893.142 1177.23 893.642C1176.47 894.142 1175.54 894.392 1174.45 894.392ZM1170.49 888.812C1170.49 889.662 1170.64 890.437 1170.93 891.137C1171.22 891.837 1171.66 892.392 1172.25 892.802C1172.85 893.212 1173.58 893.417 1174.45 893.417C1175.33 893.417 1176.07 893.212 1176.66 892.802C1177.26 892.392 1177.7 891.837 1177.99 891.137C1178.28 890.437 1178.43 889.662 1178.43 888.812C1178.43 887.962 1178.28 887.187 1177.99 886.487C1177.7 885.787 1177.26 885.232 1176.66 884.822C1176.07 884.412 1175.33 884.207 1174.45 884.207C1173.58 884.207 1172.85 884.412 1172.25 884.822C1171.66 885.232 1171.22 885.787 1170.93 886.487C1170.64 887.187 1170.49 887.962 1170.49 888.812ZM1187.8 884.792L1185.09 894.212H1183.93L1180.66 883.412H1181.74L1184.52 892.742L1187.23 883.412H1188.39L1191.1 892.712L1193.86 883.412H1194.96L1191.69 894.212H1190.52L1187.8 884.792ZM1197.57 884.822V894.212H1196.54V883.412H1197.8L1204.02 892.787V883.412H1205.07V894.212H1203.8L1197.57 884.822ZM1213.76 894.392C1213.07 894.392 1212.46 894.262 1211.94 894.002C1211.43 893.742 1211.04 893.392 1210.77 892.952C1210.5 892.502 1210.37 892.007 1210.37 891.467C1210.37 890.707 1210.59 890.082 1211.03 889.592C1211.47 889.102 1212.08 888.627 1212.87 888.167C1212.54 887.807 1212.29 887.512 1212.11 887.282C1211.94 887.052 1211.8 886.797 1211.7 886.517C1211.6 886.237 1211.55 885.917 1211.55 885.557C1211.55 885.087 1211.67 884.677 1211.9 884.327C1212.13 883.967 1212.43 883.697 1212.81 883.517C1213.2 883.327 1213.63 883.232 1214.09 883.232C1214.56 883.232 1214.98 883.327 1215.36 883.517C1215.75 883.697 1216.06 883.967 1216.29 884.327C1216.52 884.677 1216.64 885.087 1216.64 885.557C1216.64 886.177 1216.44 886.702 1216.05 887.132C1215.66 887.552 1215.11 887.972 1214.4 888.392L1217.06 891.362C1217.47 890.592 1217.68 889.707 1217.7 888.707H1218.66C1218.63 890.027 1218.33 891.172 1217.76 892.142L1219.61 894.212H1218.27L1217.15 892.952C1216.73 893.412 1216.23 893.767 1215.65 894.017C1215.08 894.267 1214.45 894.392 1213.76 894.392ZM1211.42 891.452C1211.42 892.012 1211.62 892.487 1212.03 892.877C1212.44 893.257 1213.02 893.447 1213.76 893.447C1214.3 893.447 1214.8 893.342 1215.26 893.132C1215.73 892.912 1216.14 892.602 1216.49 892.202L1213.52 888.902C1212.84 889.302 1212.32 889.692 1211.96 890.072C1211.6 890.452 1211.42 890.912 1211.42 891.452ZM1212.59 885.557C1212.59 885.927 1212.67 886.252 1212.84 886.532C1213.01 886.802 1213.31 887.182 1213.74 887.672C1214.34 887.332 1214.8 887.007 1215.11 886.697C1215.43 886.377 1215.59 885.997 1215.59 885.557C1215.59 885.137 1215.45 884.797 1215.17 884.537C1214.89 884.267 1214.53 884.132 1214.09 884.132C1213.66 884.132 1213.3 884.267 1213.01 884.537C1212.73 884.797 1212.59 885.137 1212.59 885.557ZM1139.99 902.412H1144.36C1145.55 902.412 1146.45 902.682 1147.06 903.222C1147.68 903.752 1147.99 904.492 1147.99 905.442C1147.99 906.002 1147.84 906.512 1147.54 906.972C1147.24 907.422 1146.78 907.777 1146.17 908.037C1146.97 908.287 1147.45 908.882 1147.6 909.822L1148.14 913.212H1147.06L1146.64 910.362C1146.54 909.702 1146.32 909.222 1145.99 908.922C1145.66 908.612 1145.14 908.457 1144.42 908.457H1141.03V913.212H1139.99V902.412ZM1144.36 907.512C1145.21 907.512 1145.85 907.327 1146.28 906.957C1146.71 906.587 1146.92 906.082 1146.92 905.442C1146.92 904.792 1146.71 904.282 1146.28 903.912C1145.85 903.542 1145.21 903.357 1144.36 903.357H1141.03V907.512H1144.36ZM1149.89 902.412H1157.24V903.357H1150.92V907.107H1156.79V908.052H1150.92V912.267H1157.24V913.212H1149.89V902.412ZM1163.66 913.392C1162.58 913.392 1161.66 913.142 1160.9 912.642C1160.14 912.132 1159.56 911.457 1159.17 910.617C1158.79 909.767 1158.6 908.832 1158.6 907.812C1158.6 906.792 1158.79 905.862 1159.17 905.022C1159.56 904.172 1160.14 903.497 1160.9 902.997C1161.66 902.487 1162.58 902.232 1163.66 902.232C1164.46 902.232 1165.17 902.397 1165.79 902.727C1166.41 903.057 1166.91 903.512 1167.29 904.092C1167.68 904.672 1167.93 905.327 1168.05 906.057H1166.99C1166.85 905.217 1166.48 904.532 1165.88 904.002C1165.29 903.472 1164.55 903.207 1163.66 903.207C1162.79 903.207 1162.05 903.412 1161.45 903.822C1160.86 904.232 1160.42 904.787 1160.13 905.487C1159.84 906.187 1159.7 906.962 1159.7 907.812C1159.7 908.662 1159.84 909.437 1160.13 910.137C1160.42 910.837 1160.86 911.392 1161.45 911.802C1162.05 912.212 1162.79 912.417 1163.66 912.417C1164.6 912.417 1165.37 912.127 1165.97 911.547C1166.58 910.957 1166.94 910.197 1167.06 909.267H1168.11C1168.02 910.047 1167.78 910.752 1167.39 911.382C1167.01 912.002 1166.5 912.492 1165.86 912.852C1165.22 913.212 1164.49 913.392 1163.66 913.392ZM1174.64 913.392C1173.56 913.392 1172.64 913.142 1171.88 912.642C1171.12 912.132 1170.54 911.457 1170.15 910.617C1169.77 909.767 1169.58 908.832 1169.58 907.812C1169.58 906.792 1169.77 905.862 1170.15 905.022C1170.54 904.172 1171.12 903.497 1171.88 902.997C1172.64 902.487 1173.56 902.232 1174.64 902.232C1175.73 902.232 1176.65 902.482 1177.41 902.982C1178.17 903.482 1178.74 904.157 1179.12 905.007C1179.5 905.857 1179.69 906.792 1179.69 907.812C1179.69 908.832 1179.5 909.767 1179.12 910.617C1178.74 911.467 1178.17 912.142 1177.41 912.642C1176.65 913.142 1175.73 913.392 1174.64 913.392ZM1170.68 907.812C1170.68 908.662 1170.82 909.437 1171.11 910.137C1171.4 910.837 1171.84 911.392 1172.43 911.802C1173.03 912.212 1173.77 912.417 1174.64 912.417C1175.52 912.417 1176.25 912.212 1176.84 911.802C1177.44 911.392 1177.89 910.837 1178.18 910.137C1178.47 909.437 1178.61 908.662 1178.61 907.812C1178.61 906.962 1178.47 906.187 1178.18 905.487C1177.89 904.787 1177.44 904.232 1176.84 903.822C1176.25 903.412 1175.52 903.207 1174.64 903.207C1173.77 903.207 1173.03 903.412 1172.43 903.822C1171.84 904.232 1171.4 904.787 1171.11 905.487C1170.82 906.187 1170.68 906.962 1170.68 907.812ZM1180.84 902.412H1181.94L1185.6 912.057L1189.24 902.412H1190.35L1186.17 913.212H1185.03L1180.84 902.412ZM1191.91 902.412H1199.26V903.357H1192.95V907.107H1198.81V908.052H1192.95V912.267H1199.26V913.212H1191.91V902.412ZM1201.06 902.412H1205.43C1206.62 902.412 1207.52 902.682 1208.13 903.222C1208.75 903.752 1209.06 904.492 1209.06 905.442C1209.06 906.002 1208.91 906.512 1208.61 906.972C1208.31 907.422 1207.85 907.777 1207.24 908.037C1208.04 908.287 1208.52 908.882 1208.67 909.822L1209.21 913.212H1208.13L1207.71 910.362C1207.61 909.702 1207.39 909.222 1207.06 908.922C1206.73 908.612 1206.21 908.457 1205.49 908.457H1202.1V913.212H1201.06V902.412ZM1205.43 907.512C1206.28 907.512 1206.92 907.327 1207.35 906.957C1207.78 906.587 1207.99 906.082 1207.99 905.442C1207.99 904.792 1207.78 904.282 1207.35 903.912C1206.92 903.542 1206.28 903.357 1205.43 903.357H1202.1V907.512H1205.43ZM1214.45 908.772L1210.19 902.412H1211.39L1214.98 907.842L1218.56 902.412H1219.76L1215.49 908.787V913.212H1214.45V908.772Z" fill="white"/>
<path d="M1025.72 777.212V789.212H1024.36V774.812H1026.16L1031.5 787.672L1036.86 774.812H1038.66V789.212H1037.3V777.152L1032.16 789.212H1030.84L1025.72 777.212ZM1050.91 784.992H1043.91L1042.23 789.212H1040.75L1046.65 774.812H1048.17L1054.07 789.212H1052.59L1050.91 784.992ZM1050.39 783.712L1047.41 776.252L1044.43 783.712H1050.39ZM1056.18 774.812H1057.56V789.212H1056.18V774.812ZM1062.06 776.692V789.212H1060.68V774.812H1062.36L1070.66 787.312V774.812H1072.06V789.212H1070.36L1062.06 776.692ZM1084.34 774.812H1090C1091.04 774.812 1091.92 775.006 1092.64 775.392C1093.37 775.766 1093.92 776.279 1094.28 776.932C1094.65 777.586 1094.84 778.319 1094.84 779.132C1094.84 779.946 1094.65 780.679 1094.28 781.332C1093.92 781.986 1093.37 782.506 1092.64 782.892C1091.92 783.266 1091.04 783.452 1090 783.452H1085.72V789.212H1084.34V774.812ZM1090 782.192C1091.1 782.192 1091.94 781.912 1092.52 781.352C1093.1 780.779 1093.4 780.039 1093.4 779.132C1093.4 778.226 1093.1 777.492 1092.52 776.932C1091.94 776.359 1091.1 776.072 1090 776.072H1085.72V782.192H1090ZM1106.59 784.992H1099.59L1097.91 789.212H1096.43L1102.33 774.812H1103.85L1109.75 789.212H1108.27L1106.59 784.992ZM1106.07 783.712L1103.09 776.252L1100.11 783.712H1106.07ZM1111.86 774.812H1117.68C1119.26 774.812 1120.46 775.172 1121.28 775.892C1122.1 776.599 1122.52 777.586 1122.52 778.852C1122.52 779.599 1122.32 780.279 1121.92 780.892C1121.52 781.492 1120.91 781.966 1120.1 782.312C1121.16 782.646 1121.8 783.439 1122 784.692L1122.72 789.212H1121.28L1120.72 785.412C1120.58 784.532 1120.3 783.892 1119.86 783.492C1119.42 783.079 1118.72 782.872 1117.76 782.872H1113.24V789.212H1111.86V774.812ZM1117.68 781.612C1118.81 781.612 1119.66 781.366 1120.24 780.872C1120.81 780.379 1121.1 779.706 1121.1 778.852C1121.1 777.986 1120.81 777.306 1120.24 776.812C1119.66 776.319 1118.81 776.072 1117.68 776.072H1113.24V781.612H1117.68ZM1134.19 784.992H1127.19L1125.51 789.212H1124.03L1129.93 774.812H1131.45L1137.35 789.212H1135.87L1134.19 784.992ZM1133.67 783.712L1130.69 776.252L1127.71 783.712H1133.67ZM1145.61 789.452C1144.17 789.452 1142.95 789.119 1141.93 788.452C1140.92 787.772 1140.15 786.872 1139.63 785.752C1139.13 784.619 1138.87 783.372 1138.87 782.012C1138.87 780.652 1139.13 779.412 1139.63 778.292C1140.15 777.159 1140.92 776.259 1141.93 775.592C1142.95 774.912 1144.17 774.572 1145.61 774.572C1146.68 774.572 1147.63 774.792 1148.45 775.232C1149.28 775.672 1149.95 776.279 1150.45 777.052C1150.97 777.826 1151.31 778.699 1151.47 779.672H1150.05C1149.87 778.552 1149.37 777.639 1148.57 776.932C1147.79 776.226 1146.8 775.872 1145.61 775.872C1144.45 775.872 1143.47 776.146 1142.67 776.692C1141.89 777.239 1141.3 777.979 1140.91 778.912C1140.53 779.846 1140.33 780.879 1140.33 782.012C1140.33 783.146 1140.53 784.179 1140.91 785.112C1141.3 786.046 1141.89 786.786 1142.67 787.332C1143.47 787.879 1144.45 788.152 1145.61 788.152C1146.87 788.152 1147.89 787.766 1148.69 786.992C1149.51 786.206 1149.99 785.192 1150.15 783.952H1151.55C1151.43 784.992 1151.11 785.932 1150.59 786.772C1150.09 787.599 1149.41 788.252 1148.55 788.732C1147.7 789.212 1146.72 789.452 1145.61 789.452ZM1163.91 782.412H1155.47V789.212H1154.09V774.812H1155.47V781.112H1163.91V774.812H1165.31V789.212H1163.91V782.412ZM1173.74 789.452C1172 789.452 1170.65 788.979 1169.68 788.032C1168.72 787.086 1168.24 785.712 1168.24 783.912V774.812H1169.62V783.912C1169.62 785.366 1169.97 786.446 1170.68 787.152C1171.4 787.846 1172.42 788.192 1173.74 788.192C1175.06 788.192 1176.07 787.846 1176.78 787.152C1177.5 786.446 1177.86 785.366 1177.86 783.912V774.812H1179.26V783.912C1179.26 785.712 1178.77 787.086 1177.8 788.032C1176.84 788.979 1175.48 789.452 1173.74 789.452ZM1186.28 776.072H1181.26V774.812H1192.72V776.072H1187.7V789.212H1186.28V776.072ZM1194.92 774.812H1204.72V776.072H1196.3V781.072H1204.12V782.332H1196.3V787.952H1204.72V789.212H1194.92V774.812ZM1212.28 789.452C1210.56 789.452 1209.17 789.046 1208.12 788.232C1207.06 787.406 1206.5 786.139 1206.42 784.432H1207.86C1207.91 785.752 1208.34 786.712 1209.14 787.312C1209.94 787.899 1210.98 788.192 1212.28 788.192C1213.46 788.192 1214.4 787.946 1215.08 787.452C1215.77 786.946 1216.12 786.239 1216.12 785.332C1216.12 784.826 1216 784.406 1215.78 784.072C1215.55 783.739 1215.13 783.439 1214.52 783.172C1213.92 782.906 1213.03 782.652 1211.86 782.412C1210.67 782.172 1209.72 781.886 1209 781.552C1208.29 781.219 1207.76 780.792 1207.42 780.272C1207.08 779.739 1206.92 779.066 1206.92 778.252C1206.92 777.519 1207.12 776.879 1207.54 776.332C1207.95 775.772 1208.52 775.339 1209.26 775.032C1209.99 774.726 1210.82 774.572 1211.76 774.572C1213.56 774.572 1214.91 775.006 1215.82 775.872C1216.74 776.726 1217.21 777.846 1217.24 779.232H1215.82C1215.7 776.966 1214.34 775.832 1211.76 775.832C1210.73 775.832 1209.9 776.059 1209.28 776.512C1208.66 776.952 1208.36 777.532 1208.36 778.252C1208.36 778.786 1208.46 779.219 1208.66 779.552C1208.86 779.886 1209.24 780.186 1209.82 780.452C1210.39 780.706 1211.26 780.946 1212.42 781.172C1213.79 781.452 1214.85 781.786 1215.6 782.172C1216.34 782.559 1216.86 783.006 1217.14 783.512C1217.42 784.006 1217.56 784.612 1217.56 785.332C1217.56 786.146 1217.34 786.866 1216.9 787.492C1216.47 788.106 1215.86 788.586 1215.06 788.932C1214.26 789.279 1213.33 789.452 1212.28 789.452Z" fill="white"/>
<path d="M1022.06 323.812H1027.72C1028.76 323.812 1029.64 324.006 1030.36 324.392C1031.09 324.766 1031.64 325.279 1032 325.932C1032.37 326.586 1032.56 327.319 1032.56 328.132C1032.56 328.946 1032.37 329.679 1032 330.332C1031.64 330.986 1031.09 331.506 1030.36 331.892C1029.64 332.266 1028.76 332.452 1027.72 332.452H1023.44V338.212H1022.06V323.812ZM1027.72 331.192C1028.83 331.192 1029.67 330.912 1030.24 330.352C1030.83 329.779 1031.12 329.039 1031.12 328.132C1031.12 327.226 1030.83 326.492 1030.24 325.932C1029.67 325.359 1028.83 325.072 1027.72 325.072H1023.44V331.192H1027.72ZM1044.32 333.992H1037.32L1035.64 338.212H1034.16L1040.06 323.812H1041.58L1047.48 338.212H1046L1044.32 333.992ZM1043.8 332.712L1040.82 325.252L1037.84 332.712H1043.8ZM1054.24 332.292L1048.56 323.812H1050.16L1054.94 331.052L1059.72 323.812H1061.32L1055.62 332.312V338.212H1054.24V332.292ZM1063.4 323.812H1064.78V336.952H1072.16V338.212H1063.4V323.812ZM1080.54 338.452C1079.1 338.452 1077.88 338.119 1076.86 337.452C1075.85 336.772 1075.08 335.872 1074.56 334.752C1074.06 333.619 1073.8 332.372 1073.8 331.012C1073.8 329.652 1074.06 328.412 1074.56 327.292C1075.08 326.159 1075.85 325.259 1076.86 324.592C1077.88 323.912 1079.1 323.572 1080.54 323.572C1082 323.572 1083.23 323.906 1084.24 324.572C1085.26 325.239 1086.02 326.139 1086.52 327.272C1087.03 328.406 1087.28 329.652 1087.28 331.012C1087.28 332.372 1087.03 333.619 1086.52 334.752C1086.02 335.886 1085.26 336.786 1084.24 337.452C1083.23 338.119 1082 338.452 1080.54 338.452ZM1075.26 331.012C1075.26 332.146 1075.46 333.179 1075.84 334.112C1076.23 335.046 1076.82 335.786 1077.6 336.332C1078.4 336.879 1079.38 337.152 1080.54 337.152C1081.72 337.152 1082.7 336.879 1083.48 336.332C1084.28 335.786 1084.88 335.046 1085.26 334.112C1085.65 333.179 1085.84 332.146 1085.84 331.012C1085.84 329.879 1085.65 328.846 1085.26 327.912C1084.88 326.979 1084.28 326.239 1083.48 325.692C1082.7 325.146 1081.72 324.872 1080.54 324.872C1079.38 324.872 1078.4 325.146 1077.6 325.692C1076.82 326.239 1076.23 326.979 1075.84 327.912C1075.46 328.846 1075.26 329.879 1075.26 331.012ZM1098.98 333.992H1091.98L1090.3 338.212H1088.82L1094.72 323.812H1096.24L1102.14 338.212H1100.66L1098.98 333.992ZM1098.46 332.712L1095.48 325.252L1092.5 332.712H1098.46ZM1104.25 323.812H1108.75C1110.29 323.812 1111.59 324.132 1112.65 324.772C1113.71 325.399 1114.51 326.259 1115.03 327.352C1115.56 328.432 1115.83 329.652 1115.83 331.012C1115.83 332.372 1115.56 333.599 1115.03 334.692C1114.51 335.772 1113.71 336.632 1112.65 337.272C1111.59 337.899 1110.29 338.212 1108.75 338.212H1104.25V323.812ZM1108.75 336.952C1110 336.952 1111.05 336.692 1111.89 336.172C1112.74 335.652 1113.37 334.946 1113.77 334.052C1114.18 333.159 1114.39 332.146 1114.39 331.012C1114.39 329.879 1114.18 328.866 1113.77 327.972C1113.37 327.079 1112.74 326.372 1111.89 325.852C1111.05 325.332 1110 325.072 1108.75 325.072H1105.63V336.952H1108.75ZM1128.1 338.452C1126.38 338.452 1124.99 338.046 1123.94 337.232C1122.88 336.406 1122.32 335.139 1122.24 333.432H1123.68C1123.73 334.752 1124.16 335.712 1124.96 336.312C1125.76 336.899 1126.8 337.192 1128.1 337.192C1129.28 337.192 1130.22 336.946 1130.9 336.452C1131.59 335.946 1131.94 335.239 1131.94 334.332C1131.94 333.826 1131.82 333.406 1131.6 333.072C1131.37 332.739 1130.95 332.439 1130.34 332.172C1129.74 331.906 1128.85 331.652 1127.68 331.412C1126.49 331.172 1125.54 330.886 1124.82 330.552C1124.11 330.219 1123.58 329.792 1123.24 329.272C1122.9 328.739 1122.74 328.066 1122.74 327.252C1122.74 326.519 1122.94 325.879 1123.36 325.332C1123.77 324.772 1124.34 324.339 1125.08 324.032C1125.81 323.726 1126.64 323.572 1127.58 323.572C1129.38 323.572 1130.73 324.006 1131.64 324.872C1132.56 325.726 1133.03 326.846 1133.06 328.232H1131.64C1131.52 325.966 1130.16 324.832 1127.58 324.832C1126.55 324.832 1125.72 325.059 1125.1 325.512C1124.48 325.952 1124.18 326.532 1124.18 327.252C1124.18 327.786 1124.28 328.219 1124.48 328.552C1124.68 328.886 1125.06 329.186 1125.64 329.452C1126.21 329.706 1127.08 329.946 1128.24 330.172C1129.61 330.452 1130.67 330.786 1131.42 331.172C1132.16 331.559 1132.68 332.006 1132.96 332.512C1133.24 333.006 1133.38 333.612 1133.38 334.332C1133.38 335.146 1133.16 335.866 1132.72 336.492C1132.29 337.106 1131.68 337.586 1130.88 337.932C1130.08 338.279 1129.15 338.452 1128.1 338.452ZM1135.72 323.812H1145.52V325.072H1137.1V330.072H1144.92V331.332H1137.1V336.952H1145.52V338.212H1135.72V323.812ZM1154.08 338.452C1152.64 338.452 1151.41 338.119 1150.4 337.452C1149.38 336.772 1148.62 335.872 1148.1 334.752C1147.59 333.619 1147.34 332.372 1147.34 331.012C1147.34 329.652 1147.59 328.412 1148.1 327.292C1148.62 326.159 1149.38 325.259 1150.4 324.592C1151.41 323.912 1152.64 323.572 1154.08 323.572C1155.14 323.572 1156.09 323.792 1156.92 324.232C1157.74 324.672 1158.41 325.279 1158.92 326.052C1159.44 326.826 1159.78 327.699 1159.94 328.672H1158.52C1158.33 327.552 1157.84 326.639 1157.04 325.932C1156.25 325.226 1155.26 324.872 1154.08 324.872C1152.92 324.872 1151.94 325.146 1151.14 325.692C1150.35 326.239 1149.76 326.979 1149.38 327.912C1148.99 328.846 1148.8 329.879 1148.8 331.012C1148.8 332.146 1148.99 333.179 1149.38 334.112C1149.76 335.046 1150.35 335.786 1151.14 336.332C1151.94 336.879 1152.92 337.152 1154.08 337.152C1155.33 337.152 1156.36 336.766 1157.16 335.992C1157.97 335.206 1158.46 334.192 1158.62 332.952H1160.02C1159.9 333.992 1159.58 334.932 1159.06 335.772C1158.55 336.599 1157.87 337.252 1157.02 337.732C1156.16 338.212 1155.18 338.452 1154.08 338.452ZM1166.65 325.072H1161.63V323.812H1173.09V325.072H1168.07V338.212H1166.65V325.072ZM1175.3 323.812H1176.68V338.212H1175.3V323.812ZM1185.96 338.452C1184.52 338.452 1183.29 338.119 1182.28 337.452C1181.27 336.772 1180.5 335.872 1179.98 334.752C1179.47 333.619 1179.22 332.372 1179.22 331.012C1179.22 329.652 1179.47 328.412 1179.98 327.292C1180.5 326.159 1181.27 325.259 1182.28 324.592C1183.29 323.912 1184.52 323.572 1185.96 323.572C1187.41 323.572 1188.65 323.906 1189.66 324.572C1190.67 325.239 1191.43 326.139 1191.94 327.272C1192.45 328.406 1192.7 329.652 1192.7 331.012C1192.7 332.372 1192.45 333.619 1191.94 334.752C1191.43 335.886 1190.67 336.786 1189.66 337.452C1188.65 338.119 1187.41 338.452 1185.96 338.452ZM1180.68 331.012C1180.68 332.146 1180.87 333.179 1181.26 334.112C1181.65 335.046 1182.23 335.786 1183.02 336.332C1183.82 336.879 1184.8 337.152 1185.96 337.152C1187.13 337.152 1188.11 336.879 1188.9 336.332C1189.7 335.786 1190.29 335.046 1190.68 334.112C1191.07 333.179 1191.26 332.146 1191.26 331.012C1191.26 329.879 1191.07 328.846 1190.68 327.912C1190.29 326.979 1189.7 326.239 1188.9 325.692C1188.11 325.146 1187.13 324.872 1185.96 324.872C1184.8 324.872 1183.82 325.146 1183.02 325.692C1182.23 326.239 1181.65 326.979 1181.26 327.912C1180.87 328.846 1180.68 329.879 1180.68 331.012ZM1196.64 325.692V338.212H1195.26V323.812H1196.94L1205.24 336.312V323.812H1206.64V338.212H1204.94L1196.64 325.692ZM1058.06 348.812H1067.46V350.072H1059.44V355.072H1067.06V356.332H1059.44V363.212H1058.06V348.812ZM1069.67 348.812H1071.05V361.952H1078.43V363.212H1069.67V348.812ZM1089.79 358.992H1082.79L1081.11 363.212H1079.63L1085.53 348.812H1087.05L1092.95 363.212H1091.47L1089.79 358.992ZM1089.27 357.712L1086.29 350.252L1083.31 357.712H1089.27ZM1099.16 350.072H1094.14V348.812H1105.6V350.072H1100.58V363.212H1099.16V350.072ZM1107.38 356.812H1113.1V358.012H1107.38V356.812ZM1120.96 363.452C1119.24 363.452 1117.85 363.046 1116.8 362.232C1115.74 361.406 1115.18 360.139 1115.1 358.432H1116.54C1116.59 359.752 1117.02 360.712 1117.82 361.312C1118.62 361.899 1119.66 362.192 1120.96 362.192C1122.14 362.192 1123.08 361.946 1123.76 361.452C1124.45 360.946 1124.8 360.239 1124.8 359.332C1124.8 358.826 1124.68 358.406 1124.46 358.072C1124.23 357.739 1123.81 357.439 1123.2 357.172C1122.6 356.906 1121.71 356.652 1120.54 356.412C1119.35 356.172 1118.4 355.886 1117.68 355.552C1116.97 355.219 1116.44 354.792 1116.1 354.272C1115.76 353.739 1115.6 353.066 1115.6 352.252C1115.6 351.519 1115.8 350.879 1116.22 350.332C1116.63 349.772 1117.2 349.339 1117.94 349.032C1118.67 348.726 1119.5 348.572 1120.44 348.572C1122.24 348.572 1123.59 349.006 1124.5 349.872C1125.42 350.726 1125.89 351.846 1125.92 353.232H1124.5C1124.38 350.966 1123.02 349.832 1120.44 349.832C1119.41 349.832 1118.58 350.059 1117.96 350.512C1117.34 350.952 1117.04 351.532 1117.04 352.252C1117.04 352.786 1117.14 353.219 1117.34 353.552C1117.54 353.886 1117.92 354.186 1118.5 354.452C1119.07 354.706 1119.94 354.946 1121.1 355.172C1122.47 355.452 1123.53 355.786 1124.28 356.172C1125.02 356.559 1125.54 357.006 1125.82 357.512C1126.1 358.006 1126.24 358.612 1126.24 359.332C1126.24 360.146 1126.02 360.866 1125.58 361.492C1125.15 362.106 1124.54 362.586 1123.74 362.932C1122.94 363.279 1122.01 363.452 1120.96 363.452ZM1128.58 348.812H1134.24C1135.28 348.812 1136.16 349.006 1136.88 349.392C1137.61 349.766 1138.16 350.279 1138.52 350.932C1138.89 351.586 1139.08 352.319 1139.08 353.132C1139.08 353.946 1138.89 354.679 1138.52 355.332C1138.16 355.986 1137.61 356.506 1136.88 356.892C1136.16 357.266 1135.28 357.452 1134.24 357.452H1129.96V363.212H1128.58V348.812ZM1134.24 356.192C1135.35 356.192 1136.19 355.912 1136.76 355.352C1137.35 354.779 1137.64 354.039 1137.64 353.132C1137.64 352.226 1137.35 351.492 1136.76 350.932C1136.19 350.359 1135.35 350.072 1134.24 350.072H1129.96V356.192H1134.24ZM1141.7 348.812H1143.08V363.212H1141.7V348.812ZM1147.58 350.692V363.212H1146.2V348.812H1147.88L1156.18 361.312V348.812H1157.58V363.212H1155.88L1147.58 350.692ZM1162.08 350.692V363.212H1160.7V348.812H1162.38L1170.68 361.312V348.812H1172.08V363.212H1170.38L1162.08 350.692ZM1175.2 348.812H1176.58V363.212H1175.2V348.812ZM1181.08 350.692V363.212H1179.7V348.812H1181.38L1189.68 361.312V348.812H1191.08V363.212H1189.38L1181.08 350.692ZM1200.36 363.452C1198.92 363.452 1197.7 363.119 1196.68 362.452C1195.67 361.772 1194.9 360.872 1194.38 359.752C1193.88 358.619 1193.62 357.372 1193.62 356.012C1193.62 354.652 1193.88 353.412 1194.38 352.292C1194.9 351.159 1195.67 350.259 1196.68 349.592C1197.7 348.912 1198.92 348.572 1200.36 348.572C1201.52 348.572 1202.55 348.792 1203.44 349.232C1204.34 349.672 1205.05 350.279 1205.58 351.052C1206.13 351.812 1206.48 352.686 1206.64 353.672H1205.22C1205.04 352.539 1204.51 351.626 1203.64 350.932C1202.79 350.226 1201.7 349.872 1200.36 349.872C1199.2 349.872 1198.22 350.146 1197.42 350.692C1196.64 351.239 1196.05 351.979 1195.66 352.912C1195.28 353.846 1195.08 354.879 1195.08 356.012C1195.08 357.146 1195.28 358.179 1195.66 359.112C1196.05 360.046 1196.64 360.786 1197.42 361.332C1198.22 361.879 1199.2 362.152 1200.36 362.152C1201.87 362.152 1203.04 361.699 1203.88 360.792C1204.74 359.872 1205.26 358.659 1205.44 357.152H1199.76V355.872H1206.84V363.212H1205.6V360.272C1205.14 361.272 1204.47 362.052 1203.6 362.612C1202.75 363.172 1201.67 363.452 1200.36 363.452Z" fill="white"/>
<path d="M1124.97 32.9924H1117.97L1116.29 37.2124H1114.81L1120.71 22.8124H1122.23L1128.13 37.2124H1126.65L1124.97 32.9924ZM1124.45 31.7124L1121.47 24.2524L1118.49 31.7124H1124.45ZM1130.24 22.8124H1135.9C1136.94 22.8124 1137.82 23.0057 1138.54 23.3924C1139.27 23.7657 1139.82 24.2791 1140.18 24.9324C1140.55 25.5857 1140.74 26.3191 1140.74 27.1324C1140.74 27.9457 1140.55 28.6791 1140.18 29.3324C1139.82 29.9857 1139.27 30.5057 1138.54 30.8924C1137.82 31.2657 1136.94 31.4524 1135.9 31.4524H1131.62V37.2124H1130.24V22.8124ZM1135.9 30.1924C1137 30.1924 1137.84 29.9124 1138.42 29.3524C1139 28.7791 1139.3 28.0391 1139.3 27.1324C1139.3 26.2257 1139 25.4924 1138.42 24.9324C1137.84 24.3591 1137 24.0724 1135.9 24.0724H1131.62V30.1924H1135.9ZM1149.51 37.4524C1148.07 37.4524 1146.84 37.1191 1145.83 36.4524C1144.82 35.7724 1144.05 34.8724 1143.53 33.7524C1143.02 32.6191 1142.77 31.3724 1142.77 30.0124C1142.77 28.6524 1143.02 27.4124 1143.53 26.2924C1144.05 25.1591 1144.82 24.2591 1145.83 23.5924C1146.84 22.9124 1148.07 22.5724 1149.51 22.5724C1150.96 22.5724 1152.2 22.9057 1153.21 23.5724C1154.22 24.2391 1154.98 25.1391 1155.49 26.2724C1156 27.4057 1156.25 28.6524 1156.25 30.0124C1156.25 31.3724 1156 32.6191 1155.49 33.7524C1154.98 34.8857 1154.22 35.7857 1153.21 36.4524C1152.2 37.1191 1150.96 37.4524 1149.51 37.4524ZM1144.23 30.0124C1144.23 31.1457 1144.42 32.1791 1144.81 33.1124C1145.2 34.0457 1145.78 34.7857 1146.57 35.3324C1147.37 35.8791 1148.35 36.1524 1149.51 36.1524C1150.68 36.1524 1151.66 35.8791 1152.45 35.3324C1153.25 34.7857 1153.84 34.0457 1154.23 33.1124C1154.62 32.1791 1154.81 31.1457 1154.81 30.0124C1154.81 28.8791 1154.62 27.8457 1154.23 26.9124C1153.84 25.9791 1153.25 25.2391 1152.45 24.6924C1151.66 24.1457 1150.68 23.8724 1149.51 23.8724C1148.35 23.8724 1147.37 24.1457 1146.57 24.6924C1145.78 25.2391 1145.2 25.9791 1144.81 26.9124C1144.42 27.8457 1144.23 28.8791 1144.23 30.0124ZM1164.97 37.4524C1163.53 37.4524 1162.3 37.1191 1161.29 36.4524C1160.28 35.7724 1159.51 34.8724 1158.99 33.7524C1158.48 32.6191 1158.23 31.3724 1158.23 30.0124C1158.23 28.6524 1158.48 27.4124 1158.99 26.2924C1159.51 25.1591 1160.28 24.2591 1161.29 23.5924C1162.3 22.9124 1163.53 22.5724 1164.97 22.5724C1166.13 22.5724 1167.16 22.7924 1168.05 23.2324C1168.94 23.6724 1169.66 24.2791 1170.19 25.0524C1170.74 25.8124 1171.09 26.6857 1171.25 27.6724H1169.83C1169.64 26.5391 1169.12 25.6257 1168.25 24.9324C1167.4 24.2257 1166.3 23.8724 1164.97 23.8724C1163.81 23.8724 1162.83 24.1457 1162.03 24.6924C1161.24 25.2391 1160.66 25.9791 1160.27 26.9124C1159.88 27.8457 1159.69 28.8791 1159.69 30.0124C1159.69 31.1457 1159.88 32.1791 1160.27 33.1124C1160.66 34.0457 1161.24 34.7857 1162.03 35.3324C1162.83 35.8791 1163.81 36.1524 1164.97 36.1524C1166.48 36.1524 1167.65 35.6991 1168.49 34.7924C1169.34 33.8724 1169.86 32.6591 1170.05 31.1524H1164.37V29.8724H1171.45V37.2124H1170.21V34.2724C1169.74 35.2724 1169.08 36.0524 1168.21 36.6124C1167.36 37.1724 1166.28 37.4524 1164.97 37.4524ZM1174.37 22.8124H1184.17V24.0724H1175.75V29.0724H1183.57V30.3324H1175.75V35.9524H1184.17V37.2124H1174.37V22.8124ZM1186.56 22.8124H1196.36V24.0724H1187.94V29.0724H1195.76V30.3324H1187.94V35.9524H1196.36V37.2124H1186.56V22.8124Z" fill="white"/>
</svg>
