<svg width="169" height="1808" viewBox="0 0 169 1808" fill="none" xmlns="http://www.w3.org/2000/svg">
<path d="M50 1754.39L0.5 1806.39V1709.39L48.0856 1622.39M50 1754.39V1618.89L48.0856 1622.39M50 1754.39C70.5 1788.39 102.5 1773.89 118.5 1762.89M118.5 1762.89L166 1782.39M118.5 1762.89V1635.39M166 1782.39L168 1779.89V1687.39M166 1782.39L165.5 1688.89M168 1687.39L165.5 1688.89M168 1687.39L123 1636.64M165.5 1688.89L118.5 1635.39M118.5 1635.39L121 1634.39L123 1636.64M48.0856 1622.39V812.387L61 714.887V214.887C64.5 151.387 76.5 21.8871 87.5 1.38715C105.836 76.7002 107.654 126.708 112 214.887L111.051 689.387M123 1636.64L124.5 812.387L111 714.887L111.051 689.387M61 637.887L26 634.387V689.387L61 697.387M111.169 630.387L148.5 624.887V680.887L111.051 689.387" stroke="white"/>
<path d="M71.5 1771.89V1372.39H104V1771.89M87 1771.89V1705.89" stroke="white"/>
<path d="M64 715.387H70M113 715.387H105.5M105.5 715.387V435.387H70V715.387M105.5 715.387H87.75M70 715.387H87.75M87.75 715.387V674.887M64 209.887H113" stroke="white"/>
<path d="M90.1016 111.445C90.8455 111.522 91.5679 111.675 92.2607 111.9V111.901L92.1064 112.376C92.7781 112.594 93.4213 112.88 94.0283 113.228L94.2764 112.794C94.9156 113.16 95.5152 113.592 96.0693 114.079L95.7412 114.454C96.2676 114.916 96.7502 115.432 97.1816 115.993L97.5762 115.689C98.0218 116.268 98.4133 116.894 98.7461 117.558L98.3027 117.782C98.6151 118.405 98.8727 119.064 99.0674 119.75L99.5449 119.614C99.7429 120.312 99.8802 121.037 99.9482 121.784L99.4521 121.829C99.4839 122.177 99.5 122.53 99.5 122.887C99.5 123.244 99.4839 123.598 99.4521 123.946L99.9482 123.99C99.8803 124.736 99.7428 125.461 99.5449 126.16L99.0674 126.024C98.8727 126.711 98.6151 127.369 98.3027 127.993L98.7461 128.215C98.4134 128.879 98.0217 129.505 97.5762 130.084L97.1816 129.782C96.7502 130.343 96.2676 130.858 95.7412 131.321L96.0693 131.695C95.5152 132.181 94.9156 132.613 94.2764 132.979L94.0283 132.546C93.4213 132.894 92.7781 133.18 92.1064 133.398L92.2607 133.873C91.5679 134.098 90.8455 134.251 90.1016 134.329L90.0508 133.832C89.7053 133.868 89.3548 133.887 89 133.887C88.6452 133.887 88.2947 133.868 87.9492 133.832L87.8975 134.329C87.1535 134.251 86.4311 134.098 85.7383 133.873H85.7393L85.8936 133.398C85.2219 133.18 84.5787 132.894 83.9717 132.546L83.7227 132.979C83.0834 132.613 82.4837 132.181 81.9297 131.695L82.2588 131.321C81.7324 130.858 81.2498 130.343 80.8184 129.782L80.4229 130.084C79.9773 129.505 79.5856 128.879 79.2529 128.215L79.6973 127.993C79.3849 127.369 79.1273 126.711 78.9326 126.024L78.4541 126.16C78.2562 125.462 78.1187 124.736 78.0508 123.99L78.5479 123.946C78.5161 123.598 78.5 123.244 78.5 122.887C78.5 122.53 78.5161 122.177 78.5479 121.829L78.0508 121.784C78.1188 121.037 78.2562 120.312 78.4541 119.614L78.9326 119.75C79.1273 119.064 79.3849 118.405 79.6973 117.782L79.2529 117.558C79.5856 116.894 79.9773 116.268 80.4229 115.689L80.8184 115.993C81.2498 115.432 81.7324 114.916 82.2588 114.454L81.9297 114.079C82.4837 113.592 83.0835 113.16 83.7227 112.794L83.9717 113.228C84.5787 112.88 85.2219 112.594 85.8936 112.376L85.7393 111.901L85.7383 111.9C86.4311 111.675 87.1536 111.522 87.8975 111.445L87.9492 111.942C88.2947 111.906 88.6452 111.887 89 111.887C89.3548 111.887 89.7053 111.906 90.0508 111.942L90.1016 111.445Z" stroke="black" stroke-dasharray="2 2"/>
<path d="M50.5 814.887H126" stroke="white"/>
<path d="M115.5 821.887H61C57.6863 821.887 55 824.573 55 827.887V849.387C55 852.701 57.6863 855.387 61 855.387H115.5C118.814 855.387 121.5 852.701 121.5 849.387V827.887C121.5 824.573 118.814 821.887 115.5 821.887Z" stroke="white" stroke-linejoin="round" stroke-dasharray="2 2"/>
<path d="M66.5 839.387L88.5 828.887M66.5 839.387H88.5M66.5 839.387L88.5 849.387M88.5 828.887V849.387M88.5 828.887C115.7 834.087 107 846.887 88.5 849.387" stroke="white" stroke-linejoin="round" stroke-dasharray="2 2"/>
</svg>
