<svg width="260" height="1532" viewBox="0 0 260 1532" fill="none" xmlns="http://www.w3.org/2000/svg">
<g clip-path="url(#clip0_270_78)">
<path d="M113.218 1413.57C161.608 1417.23 173.366 1385.95 173.197 1369.85L164.556 160.621C158.05 79.7006 132.025 19.8235 119.826 0C104.408 33.378 85.3934 72.6861 78.6545 160.621V1349.52V1396.29L83.2292 1399.34M113.218 1413.57V1267.69M113.218 1413.57L85.2623 1532M113.218 1267.69H106.611L78.6545 1426.78M113.218 1267.69L83.2292 1426.78M78.6545 1426.78V1532H85.2623M78.6545 1426.78H83.2292M85.2623 1532L83.2292 1426.78" stroke="white"/>
<g filter="url(#filter0_n_270_78)">
<path d="M117.697 439.151C102.334 419.247 85.6895 423.749 79.2879 428.488L78.2771 872.259C81.5005 878.64 87.1866 881.035 98.4926 884.953C108.879 886.955 109.825 889.944 110.622 895.616H129.321C121.689 883.849 166.72 882.414 166.72 872.259C166.72 862.104 164.699 423.918 164.699 423.918C155.433 437.289 133.061 459.054 117.697 439.151Z" stroke="white"/>
</g>
<path d="M175.87 1260.57L254.147 1312.93V1447.62L175.87 1371.89" stroke="white"/>
<path d="M78.2771 1260.57L-2.74181e-05 1324.62V1447.62L78.2771 1371.89" stroke="white"/>
<path d="M88.1456 980.858V972.874H164.469V980.858M88.1456 980.858H164.469M88.1456 980.858V996.026M164.469 980.858V996.026M88.1456 996.026H164.469M88.1456 996.026L80.0583 1017.98M164.469 996.026L170.534 1017.98M80.0583 1017.98H170.534M80.0583 1017.98V1023.57H101.287M170.534 1017.98V1023.57H148.8M101.287 1023.57V1266.67H148.8V1023.57M101.287 1023.57H148.8" stroke="white"/>
<path d="M119.45 277.528V291.252H111.825V299.893H98.6098C96.4072 300.402 92.2053 302.435 93.0186 306.501V321.242H109.792M109.792 321.242V318.7M109.792 321.242V325.816C99.7958 328.188 79.7013 335.372 79.2947 345.132V873.25C84.3776 885.449 111.012 883.314 111.825 893.073V897.14M109.792 318.7H96.0684V306.501C96.0684 305.315 96.5767 303.045 98.6098 303.451H111.825V309.551H119.45V316.159H111.825L109.792 318.7ZM126.058 277.528V291.252H135.207V309.551H126.058V316.159H133.174V325.816C144.017 327.002 165.501 332.526 164.688 345.132L168.246 873.25C159.097 886.974 130.632 882.094 130.632 893.073V897.14H141.815M141.815 897.14H97.5932V904.764H141.815V897.14Z" stroke="white"/>
<path d="M78.7861 159.605H164.688" stroke="white"/>
<path d="M121.484 62.5134C138.332 62.5134 151.99 76.1714 151.99 93.0193C151.99 109.867 138.332 123.525 121.484 123.525C104.636 123.525 90.9785 109.867 90.9785 93.0193C90.9786 76.1714 104.636 62.5134 121.484 62.5134Z" stroke="white"/>
<path d="M79.8037 277.019H165.197" stroke="white"/>
<path d="M163.163 253.231C131.039 293.356 93.5266 269.95 78.7861 253.231V188.214C115.383 136.201 150.286 166.542 163.163 188.214V253.231Z" stroke="white"/>
<path d="M116.4 905.272V917.98H105.218V936.787H116.4V946.953H125.041V936.787H135.715M135.715 936.787V917.98M135.715 936.787V949.494H147.406V910.864H135.715V917.98M135.715 917.98H125.041V905.272M79.2947 972.367H170.279M86.9191 972.367C99.6264 946.953 130.124 932.212 164.688 972.367" stroke="white"/>
<path d="M171.805 1273.79V1266.67H80.3118V1273.79M171.805 1273.79H80.3118M171.805 1273.79L164.18 1286.5M80.3118 1273.79L85.903 1286.5M85.903 1286.5H164.18M85.903 1286.5V1292.09M164.18 1286.5V1292.09M164.18 1292.09H85.903M164.18 1292.09V1315.47M85.903 1292.09V1315.47M85.903 1315.47H164.18M85.903 1315.47V1325.63H114.876M164.18 1315.47V1325.63H134.191M114.876 1325.63C119.45 1339.36 106.235 1377.99 89.9693 1398.32M114.876 1325.63H134.191M134.191 1325.63C130.633 1336.31 148.423 1375.45 161.639 1393.24" stroke="white"/>
</g>
<defs>
<filter id="filter0_n_270_78" x="77.7769" y="422.329" width="89.4431" height="473.786" filterUnits="userSpaceOnUse" color-interpolation-filters="sRGB">
<feFlood flood-opacity="0" result="BackgroundImageFix"/>
<feBlend mode="normal" in="SourceGraphic" in2="BackgroundImageFix" result="shape"/>
<feTurbulence type="fractalNoise" baseFrequency="0.47619050741195679 0.47619050741195679" stitchTiles="stitch" numOctaves="3" result="noise" seed="6093" />
<feColorMatrix in="noise" type="luminanceToAlpha" result="alphaNoise" />
<feComponentTransfer in="alphaNoise" result="coloredNoise1">
<feFuncA type="discrete" tableValues="1 1 1 1 1 1 1 1 1 1 1 1 1 1 1 1 1 1 1 1 1 1 1 1 1 1 1 1 1 1 1 1 1 1 1 1 1 1 1 1 1 1 1 1 1 1 1 1 1 1 1 0 0 0 0 0 0 0 0 0 0 0 0 0 0 0 0 0 0 0 0 0 0 0 0 0 0 0 0 0 0 0 0 0 0 0 0 0 0 0 0 0 0 0 0 0 0 0 0 0 "/>
</feComponentTransfer>
<feComposite operator="in" in2="shape" in="coloredNoise1" result="noise1Clipped" />
<feFlood flood-color="rgba(0, 0, 0, 0.3)" result="color1Flood" />
<feComposite operator="in" in2="noise1Clipped" in="color1Flood" result="color1" />
<feMerge result="effect1_noise_270_78">
<feMergeNode in="shape" />
<feMergeNode in="color1" />
</feMerge>
</filter>
<clipPath id="clip0_270_78">
<rect width="260" height="1532" fill="white"/>
</clipPath>
</defs>
</svg>
